<svg xmlns="http://www.w3.org/2000/svg" xmlns:xlink="http://www.w3.org/1999/xlink" width="71.149" height="70.236" viewBox="0 0 71.149 70.236">
  <defs>
    <clipPath id="clip-path">
      <rect id="Rectángulo_402785" data-name="Rectángulo 402785" width="32.38" height="25.904" transform="translate(0)" fill="#fff" stroke="#ffbc02" stroke-width="1"/>
    </clipPath>
  </defs>
  <g id="Grupo_1110773" data-name="Grupo 1110773" transform="translate(-480.575 -800.968)">
    <path id="Trazado_900443" data-name="Trazado 900443" d="M31.014,0A30.788,30.788,0,0,1,62.027,30.557,30.788,30.788,0,0,1,31.014,61.115,30.788,30.788,0,0,1,0,30.557,30.788,30.788,0,0,1,31.014,0Z" transform="translate(485.136 805.529)" fill="#12263f" opacity="0.96"/>
    <g id="Grupo_1110683" data-name="Grupo 1110683" transform="translate(490.495 822.973)">
      <path id="Trazado_898893" data-name="Trazado 898893" d="M152.116,388.254h-.9v-.9a.573.573,0,1,0-1.146,0v.9h-.9a.574.574,0,0,0,0,1.148h.9v.9a.573.573,0,1,0,1.146,0v-.9h.9a.574.574,0,0,0,0-1.148Z" transform="translate(-118.069 -357.279)" fill="#fff"/>
      <path id="Trazado_898894" data-name="Trazado 898894" d="M166.912,366.7h-1.727v-1.727a.574.574,0,1,0-1.147,0V366.7h-1.727a.574.574,0,0,0,0,1.148h1.727v1.727a.574.574,0,1,0,1.147,0v-1.727h1.727a.574.574,0,0,0,0-1.148Z" transform="translate(-120.571 -353.015)" fill="#fff"/>
      <path id="Trazado_898895" data-name="Trazado 898895" d="M120.683,376.64h-1.673v-1.673a.574.574,0,1,0-1.147,0v1.673h-1.673a.574.574,0,1,0,0,1.148h1.673v1.672a.574.574,0,1,0,1.147,0v-1.672h1.673a.574.574,0,0,0,0-1.148Z" transform="translate(-111.785 -354.919)" fill="#fff"/>
      <path id="Trazado_898896" data-name="Trazado 898896" d="M132.012,387.881a1.328,1.328,0,1,0,1.878,0A1.327,1.327,0,0,0,132.012,387.881Z" transform="translate(-114.835 -357.414)" fill="#fff"/>
      <path id="Trazado_898897" data-name="Trazado 898897" d="M112.556,352.171a1.672,1.672,0,1,0,1.672,1.673A1.673,1.673,0,0,0,112.556,352.171Z" transform="translate(-110.884 -350.685)" fill="#fff"/>
      <path id="Trazado_898898" data-name="Trazado 898898" d="M168.909,350.336a1.16,1.16,0,1,0,1.16,1.16A1.16,1.16,0,0,0,168.909,350.336Z" transform="translate(-121.716 -350.336)" fill="#fff"/>
      <ellipse id="Elipse_12171" data-name="Elipse 12171" cx="1.197" cy="1.197" rx="1.197" ry="1.197" transform="translate(40.888 26.195)" fill="#fff"/>
      <ellipse id="Elipse_12172" data-name="Elipse 12172" cx="0.857" cy="0.857" rx="0.857" ry="0.857" transform="translate(10.342 10.242)" fill="#fff"/>
      <g id="Enmascarar_grupo_1099159" data-name="Enmascarar grupo 1099159" transform="translate(10.119 2.422)" clip-path="url(#clip-path)">
        <g id="Grupo_1105106" data-name="Grupo 1105106" transform="translate(-53.352 -38.238)">
          <text id="THE_DIAMOND" data-name="THE DIAMOND" transform="translate(0 114.07)" fill="#fff" font-size="11" font-family="SegoeUI, Segoe UI"><tspan x="0" y="0">THE DIAMOND</tspan></text>
          <g id="Grupo_1105099" data-name="Grupo 1105099" transform="translate(12.564 125.846)">
            <text id="ORIGINAL_BRAND" data-name="ORIGINAL BRAND" transform="translate(0 1)" fill="#fff" font-size="1" font-family="SegoeUI, Segoe UI"><tspan x="0" y="0">ORIGINAL BRAND</tspan></text>
          </g>
          <g id="Grupo_1105104" data-name="Grupo 1105104" transform="translate(10.02 58.132)">
            <g id="Grupo_1105100" data-name="Grupo 1105100">
              <ellipse id="Elipse_12175" data-name="Elipse 12175" cx="10.157" cy="10.157" rx="10.157" ry="10.157" transform="translate(0.622 0.622)" fill="#fff"/>
              <path id="Trazado_898909" data-name="Trazado 898909" d="M305.367,374.392a10.779,10.779,0,1,1,10.779-10.779A10.791,10.791,0,0,1,305.367,374.392Zm0-20.314a9.535,9.535,0,1,0,9.535,9.535A9.547,9.547,0,0,0,305.367,354.078Z" transform="translate(-294.588 -352.835)" fill="#fff"/>
            </g>
            <g id="Grupo_1105101" data-name="Grupo 1105101" transform="translate(97.444)">
              <ellipse id="Elipse_12176" data-name="Elipse 12176" cx="10.157" cy="10.157" rx="10.157" ry="10.157" transform="translate(0.622 0.622)" fill="#fff"/>
              <path id="Trazado_898910" data-name="Trazado 898910" d="M416.482,374.392a10.779,10.779,0,1,1,10.779-10.779A10.791,10.791,0,0,1,416.482,374.392Zm0-20.314a9.535,9.535,0,1,0,9.535,9.535A9.547,9.547,0,0,0,416.482,354.078Z" transform="translate(-405.703 -352.835)" fill="#fff"/>
            </g>
            <g id="Grupo_1105102" data-name="Grupo 1105102" transform="translate(4.104 0.518)">
              <text id="_19" data-name="19" transform="translate(0 5)" fill="#fff" font-size="5" font-family="SegoeUI, Segoe UI"><tspan x="0" y="0">19</tspan></text>
            </g>
            <g id="Grupo_1105103" data-name="Grupo 1105103" transform="translate(102.316 0.518)">
              <text id="_71" data-name="71" transform="translate(0 5)" fill="#fff" font-size="5" font-family="SegoeUI, Segoe UI"><tspan x="0" y="0">71</tspan></text>
            </g>
          </g>
          <g id="Grupo_1105105" data-name="Grupo 1105105" transform="translate(26.841)">
            <path id="Trazado_898911" data-name="Trazado 898911" d="M334.25,354.5a34.258,34.258,0,0,0,22.2,7.794,38.749,38.749,0,0,0,6.637-.559c30.974-5.4,35.993-48.55,36.041-48.985a.622.622,0,0,0-.467-.67c-.109-.027-8.553-2.175-14.608-5.84.037-.085.06-.142.062-.15a.622.622,0,0,0-.365-.8.613.613,0,0,0-.747.28,16.091,16.091,0,0,1-3.319-2.845c-3.707-4.378-4.624-7.936-4.852-9.386a2.428,2.428,0,0,0,.106-.707c0-3.953-9.526-6.085-18.488-6.085s-18.488,2.134-18.488,6.085a2.418,2.418,0,0,0,.106.706c-.228,1.451-1.146,5.009-4.852,9.386a16.007,16.007,0,0,1-3.3,2.833.616.616,0,0,0-.663-.292.666.666,0,0,0-.5.761,1.819,1.819,0,0,0,.049.24c-6.051,3.648-14.451,5.785-14.56,5.813a.621.621,0,0,0-.466.677C313.806,313.036,317.343,340.722,334.25,354.5Zm22.2-66.71c9.44,0,16.212,2.2,17.129,4.351a1.266,1.266,0,0,1,.116.492,1.458,1.458,0,0,1-.315.849c-1.471,2.028-8.013,3.994-16.93,3.994s-15.46-1.965-16.93-3.994a1.458,1.458,0,0,1-.315-.849,1.267,1.267,0,0,1,.116-.492C340.237,289.993,347.008,287.791,356.448,287.791Zm-22.285,15.738a22.619,22.619,0,0,0,4.872-8.741c2.731,2.566,10.25,3.931,17.414,3.931s14.682-1.365,17.414-3.93a22.619,22.619,0,0,0,4.871,8.741,17.618,17.618,0,0,0,3.714,3.17c-1.729,3.218-8.358,12.791-25.989,12.791-17.423,0-24.6-9.428-26.147-12.7A17.85,17.85,0,0,0,334.163,303.528ZM352.324,335.4c1.464.11,2.9.155,4.125.155s2.662-.047,4.125-.155l-4.125,9.6Zm6.666-2.8,1.32,1.578c-1.163.082-2.448.132-3.861.132s-2.7-.05-3.861-.132l1.32-1.578.119-.143,2.422-2.894,2.422,2.894Zm-9.737-4.551c1.247.83,4.1,1.071,5.887,1.139l-2.735,3.268-.119.143-1.209,1.444a16.577,16.577,0,0,1-5.62-1.286,1.374,1.374,0,0,1-.224-.16s-.011-.008-.016-.012l.047-.053.068-.077Zm1.662,7.219,3.347,7.786-7.215-8.436A27.378,27.378,0,0,0,350.914,335.276Zm11.067,0a27.493,27.493,0,0,0,3.868-.651l-7.215,8.436Zm5.65-2.733.038.043-.028.022a1.338,1.338,0,0,1-.179.132,16.1,16.1,0,0,1-5.643,1.312l-1.208-1.444-.119-.143-2.735-3.268c1.784-.068,4.64-.31,5.887-1.139l3.919,4.408Zm-4.663-5.507a1.012,1.012,0,0,1-.125.078c-.677.357-2.856.866-6.395.866s-5.718-.51-6.395-.866a.885.885,0,0,1-.125-.078,1.017,1.017,0,0,1,.125-.077c.676-.356,2.855-.865,6.4-.865s5.72.51,6.4.865A1.047,1.047,0,0,1,362.969,327.036Zm-33.7-19.594c1.871,3.821,9.138,13.058,26.561,13.28v4.135c-2.017.039-6.96.312-7.167,2l-4.622,5.2a.571.571,0,0,0-.042.072.646.646,0,0,0-.072.123.681.681,0,0,0-.026.128.633.633,0,0,0-.018.09c0,.006,0,.011,0,.017a.471.471,0,0,0,.006.05.615.615,0,0,0,.14.478l.047.054.339.4,11.557,13.513,0,0,0,0,.011.011c.011.013.026.022.039.034a.624.624,0,0,0,.134.095.3.3,0,0,0,.031.019s0,0,.007.005.019,0,.028.006a.555.555,0,0,0,.437,0c.009,0,.018,0,.028-.006s0,0,.007-.005.02-.014.031-.019a.625.625,0,0,0,.134-.095c.013-.012.027-.021.039-.034l.011-.011,0,0,0,0,11.557-13.513.34-.4.047-.053a.612.612,0,0,0,.14-.478c0-.017.005-.033.006-.05s0-.011,0-.018a.7.7,0,0,0-.018-.095.688.688,0,0,0-.025-.123.611.611,0,0,0-.1-.167c-.007-.009-.009-.019-.017-.028l-.008-.009-.031-.034-4.583-5.155c-.206-1.685-5.149-1.958-7.167-2v-4.136c17.6-.222,24.494-9.846,26.425-13.361a61.785,61.785,0,0,0,14.328,5.785c-.673,4.927-6.728,42.443-34.951,47.365a37.5,37.5,0,0,1-6.423.54,33.047,33.047,0,0,1-21.415-7.515c-15.226-12.407-19.372-36.5-19.953-40.392A62.166,62.166,0,0,0,329.266,307.442Z" transform="translate(-313.769 -286.547)" fill="#fff"/>
            <path id="Trazado_898912" data-name="Trazado 898912" d="M391.62,386.568c-.091,0-9.215-.057-13.221-5.243a17.453,17.453,0,0,1-2.981-7.907.622.622,0,0,0-1.23.182,18.675,18.675,0,0,0,3.228,8.486c3.784,4.9,11.349,5.606,13.582,5.709v5.419H324.148v-5.419c2.234-.1,9.8-.811,13.583-5.709A18.892,18.892,0,0,0,341,373.267a.622.622,0,0,0-1.232-.167,17.682,17.682,0,0,1-3.025,8.223c-4,5.177-13.131,5.243-13.222,5.243a.622.622,0,0,0-.622.622v6.645a.621.621,0,0,0,.622.622H391.62a.621.621,0,0,0,.622-.622v-6.645a.621.621,0,0,0-.622-.621Z" transform="translate(-314.893 -297.13)" fill="#fff"/>
          </g>
        </g>
      </g>
      <path id="Trazado_898947" data-name="Trazado 898947" d="M168.909,350.336a1.16,1.16,0,1,0,1.16,1.16A1.16,1.16,0,0,0,168.909,350.336Z" transform="translate(-121.716 -350.336)" fill="#fff"/>
    </g>
    <g id="Trazado_900436" data-name="Trazado 900436" transform="translate(480.575 800.968)" fill="none">
      <path d="M35.574,0A35.348,35.348,0,0,1,71.149,35.118,35.348,35.348,0,0,1,35.574,70.236,35.348,35.348,0,0,1,0,35.118,35.348,35.348,0,0,1,35.574,0Z" stroke="none"/>
      <path d="M 35.57433700561523 2 C 31.03776931762695 2 26.63819122314453 2.876564025878906 22.497802734375 4.605339050292969 C 18.49932479858398 6.274864196777344 14.9083251953125 8.664943695068359 11.82454681396484 11.70918655395508 C 8.742549896240234 14.75165176391602 6.323295593261719 18.29347610473633 4.633979797363281 22.23625183105469 C 2.886199951171875 26.31547546386719 2 30.64957427978516 2 35.1181640625 C 2 39.58675384521484 2.886199951171875 43.92085266113281 4.633979797363281 48.00007629394531 C 6.323295593261719 51.94285202026367 8.742549896240234 55.48467636108398 11.82454681396484 58.52714157104492 C 14.9083251953125 61.57138824462891 18.49932479858398 63.96146392822266 22.497802734375 65.63098907470703 C 26.63819122314453 67.35976409912109 31.03776931762695 68.236328125 35.57433700561523 68.236328125 C 40.11090087890625 68.236328125 44.51049041748047 67.35976409912109 48.65087127685547 65.63098907470703 C 52.64934539794922 63.96146392822266 56.24034881591797 61.57138824462891 59.32413482666016 58.52714157104492 C 62.4061279296875 55.48467636108398 64.82537841796875 51.94285202026367 66.51470184326172 48.00007629394531 C 68.26246643066406 43.92085266113281 69.14867401123047 39.58675384521484 69.14867401123047 35.1181640625 C 69.14867401123047 30.64957427978516 68.26246643066406 26.31547546386719 66.51470184326172 22.23625183105469 C 64.82537841796875 18.29347610473633 62.4061279296875 14.75165176391602 59.32413482666016 11.70918655395508 C 56.24034881591797 8.664943695068359 52.64934539794922 6.274864196777344 48.65087127685547 4.605339050292969 C 44.51049041748047 2.876564025878906 40.11090087890625 2 35.57433700561523 2 M 35.57433700561523 0 C 55.22150421142578 0 71.14867401123047 15.72294235229492 71.14867401123047 35.1181640625 C 71.14867401123047 54.51338577270508 55.22150421142578 70.236328125 35.57433700561523 70.236328125 C 15.92718124389648 70.236328125 0 54.51338577270508 0 35.1181640625 C 0 15.72294235229492 15.92718124389648 0 35.57433700561523 0 Z" stroke="none" fill="#12263f"/>
    </g>
  </g>
</svg>
