<svg xmlns="http://www.w3.org/2000/svg" xmlns:xlink="http://www.w3.org/1999/xlink" width="1600" height="220.644" viewBox="0 0 1600 220.644">
  <defs>
    <linearGradient id="linear-gradient" x1="0.943" y1="-1.501" x2="-0.228" y2="0.918" gradientUnits="objectBoundingBox">
      <stop offset="0" stop-color="#df7d2a"/>
      <stop offset="0.583" stop-color="#2c3465"/>
      <stop offset="1"/>
    </linearGradient>
    <clipPath id="clip-path">
      <path id="Recurso_1" data-name="Recurso 1" d="M0,0H1600V220H0Z" transform="translate(0 70)" opacity="0.41" fill="url(#linear-gradient)"/>
    </clipPath>
    <clipPath id="clip-path-2">
      <rect id="Rect치ngulo_402785" data-name="Rect치ngulo 402785" width="40" height="32" transform="translate(344 330.5)" fill="#fff" stroke="#707070" stroke-width="1"/>
    </clipPath>
    <clipPath id="clip-path-5">
      <rect id="Rect치ngulo_402815" data-name="Rect치ngulo 402815" width="83.131" height="66.505" transform="translate(344 330.5)" fill="#fff" stroke="#707070" stroke-width="1"/>
    </clipPath>
  </defs>
  <g id="Grupo_1105201" data-name="Grupo 1105201" transform="translate(0 -106.356)">
    <g id="Grupo_1105138" data-name="Grupo 1105138" transform="translate(7173.636 14436.356)">
      <g id="Enmascarar_grupo_1099162" data-name="Enmascarar grupo 1099162" transform="translate(-7173.636 -14399.356)" clip-path="url(#clip-path)">
        <g id="Grupo_1105133" data-name="Grupo 1105133" transform="translate(-180.333 -208)">
          <path id="Trazado_898982" data-name="Trazado 898982" d="M24.846,0H1701.308a24.846,24.846,0,0,1,24.846,24.846V638.154A24.846,24.846,0,0,1,1701.308,663H24.846A24.846,24.846,0,0,1,0,638.154V24.846A24.846,24.846,0,0,1,24.846,0Z" transform="translate(144.333 70)" fill="url(#linear-gradient)"/>
        </g>
      </g>
      <g id="Grupo_1105122" data-name="Grupo 1105122" transform="translate(-7220.766 -14233.662) rotate(-20)">
        <path id="Trazado_898881" data-name="Trazado 898881" d="M381.318,328.959h2.122v2.122a.908.908,0,1,0,1.816,0v-2.122h2.123a.908.908,0,0,0,0-1.816h-2.123v-2.122a.908.908,0,1,0-1.816,0v2.122h-2.122a.908.908,0,0,0,0,1.816Z" transform="translate(160.28 -146.223)" fill="#ffcf11"/>
        <path id="Trazado_898882" data-name="Trazado 898882" d="M356.45,364.148H358.3v1.845a.908.908,0,1,0,1.816,0v-1.845h1.845a.908.908,0,0,0,0-1.816h-1.845v-1.845a.908.908,0,0,0-1.816,0v1.845H356.45a.908.908,0,0,0,0,1.816Z" transform="translate(153.302 -136.272)" fill="#ffcf11"/>
        <path id="Trazado_898883" data-name="Trazado 898883" d="M338.433,350.675a.907.907,0,0,0,.908.908h3.592v3.593a.908.908,0,0,0,1.816,0v-3.593h3.593a.908.908,0,0,0,0-1.816h-3.593v-3.592a.908.908,0,0,0-1.816,0v3.592h-3.592A.908.908,0,0,0,338.433,350.675Z" transform="translate(148.502 -140.287)" fill="#ffcf11"/>
        <path id="Trazado_898884" data-name="Trazado 898884" d="M376.808,359.422a2.844,2.844,0,1,0-2.844-2.844A2.844,2.844,0,0,0,376.808,359.422Z" transform="translate(158.471 -137.912)" fill="#ffcf11"/>
        <path id="Trazado_898885" data-name="Trazado 898885" d="M384.265,343.588a2.032,2.032,0,1,0,2.032-2.032A2.033,2.033,0,0,0,384.265,343.588Z" transform="translate(161.362 -141.329)" fill="#ffcf11"/>
        <path id="Trazado_898886" data-name="Trazado 898886" d="M339.621,332.219a2.186,2.186,0,1,0-2.186-2.186A2.186,2.186,0,0,0,339.621,332.219Z" transform="translate(148.222 -145.175)" fill="#ffcf11"/>
        <path id="Trazado_898913" data-name="Trazado 898913" d="M134.634,361.986a1.214,1.214,0,0,0-.375.337c-.016.023-.017.049-.033.071a1.327,1.327,0,0,0-.066.144,1.181,1.181,0,0,0-.111.415c0,.033-.024.061-.024.094v31.709c0,.033.023.061.024.094a1.171,1.171,0,0,0,.111.414,1.208,1.208,0,0,0,.066.146.646.646,0,0,0,.033.071,1.159,1.159,0,0,0,.255.215c.047.038.073.1.125.125l15.022,8.673c.017.01.038.005.056.016a1.111,1.111,0,0,0,1.119,0c.017-.009.038-.005.056-.016l15.022-8.673c.054-.031.078-.089.125-.125a1.252,1.252,0,0,0,.255-.215c.016-.023.017-.049.033-.071a1.208,1.208,0,0,0,.066-.146,1.183,1.183,0,0,0,.111-.414c0-.033.024-.061.024-.094V363.048c0-.033-.023-.061-.024-.094a1.173,1.173,0,0,0-.111-.414,1.212,1.212,0,0,0-.066-.146c-.014-.023-.017-.049-.033-.071a1.223,1.223,0,0,0-.374-.335l-.005-.007-14.171-7.792c.271-.3-3.652,0-2.7,0C149.234,354.189,134.636,361.985,134.634,361.986Zm25.226,18.145h4.2v12.205l-4.2-3.055Zm4.2-2.462h-4.2v-9.151l4.2-3.055ZM157.4,378.9v10.3l-7.124,4.113-7.126-4.113V368.6l7.126-4.115L157.4,368.6Zm-16.713-1.232h-4.2V365.463l4.2,3.057Zm-4.2,2.462h4.2v9.151l-4.2,3.055Zm12.562-23.625v5.851l-7.048,4.07-4.485-3.262Zm-7.05,34.87,7.05,4.07V401.3l-11.533-6.659Zm9.512,9.919v-5.851l7.046-4.07,4.487,3.26Zm11.533-38.13-4.487,3.26-7.046-4.07V356.5Z" transform="translate(365.907 -188.839)" fill="#ffcf11"/>
      </g>
      <g id="Grupo_1105123" data-name="Grupo 1105123" transform="translate(-7222.57 -14346.565)">
        <path id="Trazado_898893" data-name="Trazado 898893" d="M152.943,388.6h-1.108v-1.108a.708.708,0,1,0-1.416,0V388.6h-1.108a.709.709,0,0,0,0,1.418h1.108v1.107a.708.708,0,1,0,1.416,0v-1.107h1.108a.709.709,0,0,0,0-1.418Z" transform="translate(69.616 -228.328)" fill="#ffcf11"/>
        <path id="Trazado_898894" data-name="Trazado 898894" d="M168.129,367.239H166v-2.133a.708.708,0,1,0-1.417,0v2.133h-2.133a.709.709,0,0,0,0,1.418h2.133v2.133a.708.708,0,1,0,1.417,0v-2.133h2.133a.709.709,0,0,0,0-1.418Z" transform="translate(69.616 -228.328)" fill="#ffcf11"/>
        <path id="Trazado_898895" data-name="Trazado 898895" d="M121.875,377.169h-2.067V375.1a.709.709,0,1,0-1.417,0v2.067h-2.067a.709.709,0,0,0,0,1.418h2.067v2.066a.709.709,0,1,0,1.417,0v-2.066h2.067a.709.709,0,0,0,0-1.418Z" transform="translate(69.616 -228.328)" fill="#ffcf11"/>
        <path id="Trazado_898896" data-name="Trazado 898896" d="M132.1,387.972a1.64,1.64,0,1,0,2.32,0A1.64,1.64,0,0,0,132.1,387.972Z" transform="translate(69.616 -228.328)" fill="#ffcf11"/>
        <path id="Trazado_898897" data-name="Trazado 898897" d="M112.95,352.171a2.066,2.066,0,1,0,2.066,2.066A2.066,2.066,0,0,0,112.95,352.171Z" transform="translate(69.616 -228.328)" fill="#ffcf11"/>
        <path id="Trazado_898898" data-name="Trazado 898898" d="M169.182,350.336a1.433,1.433,0,1,0,1.433,1.433A1.433,1.433,0,0,0,169.182,350.336Z" transform="translate(69.616 -228.328)" fill="#ffcf11"/>
        <circle id="Elipse_12171" data-name="Elipse 12171" cx="1.479" cy="1.479" r="1.479" transform="translate(231.01 154.367)" fill="#ffcf11"/>
        <circle id="Elipse_12172" data-name="Elipse 12172" cx="1.059" cy="1.059" r="1.059" transform="translate(193.275 134.66)" fill="#ffcf11"/>
        <g id="Enmascarar_grupo_1099159" data-name="Enmascarar grupo 1099159" transform="translate(-151 -205.5)" clip-path="url(#clip-path-2)">
          <g id="Grupo_1105106" data-name="Grupo 1105106" transform="translate(278.093 283.263)">
            <text id="THE_DIAMOND" data-name="THE DIAMOND" transform="translate(0 150.09)" fill="#4f4641" font-size="22" font-family="SegoeUI, Segoe UI"><tspan x="0" y="0">THE DIAMOND</tspan></text>
            <g id="Grupo_1105099" data-name="Grupo 1105099" transform="translate(15.521 155.46)">
              <text id="ORIGINAL_BRAND" data-name="ORIGINAL BRAND" transform="translate(0 10)" fill="#4f4641" font-size="9" font-family="SegoeUI, Segoe UI"><tspan x="0" y="0">ORIGINAL BRAND</tspan></text>
            </g>
            <g id="Grupo_1105104" data-name="Grupo 1105104" transform="translate(12.378 71.812)">
              <g id="Grupo_1105100" data-name="Grupo 1105100">
                <circle id="Elipse_12175" data-name="Elipse 12175" cx="12.547" cy="12.547" r="12.547" transform="translate(0.768 0.768)" fill="#fff"/>
                <path id="Trazado_898909" data-name="Trazado 898909" d="M307.9,379.465a13.315,13.315,0,1,1,13.315-13.315A13.331,13.331,0,0,1,307.9,379.465Zm0-25.094a11.779,11.779,0,1,0,11.779,11.779A11.793,11.793,0,0,0,307.9,354.371Z" transform="translate(-294.588 -352.835)" fill="#4f4641"/>
              </g>
              <g id="Grupo_1105101" data-name="Grupo 1105101" transform="translate(120.375)">
                <circle id="Elipse_12176" data-name="Elipse 12176" cx="12.547" cy="12.547" r="12.547" transform="translate(0.768 0.768)" fill="#fff"/>
                <path id="Trazado_898910" data-name="Trazado 898910" d="M419.018,379.465a13.315,13.315,0,1,1,13.315-13.315A13.331,13.331,0,0,1,419.018,379.465Zm0-25.094A11.779,11.779,0,1,0,430.8,366.15,11.793,11.793,0,0,0,419.018,354.371Z" transform="translate(-405.703 -352.835)" fill="#4f4641"/>
              </g>
              <g id="Grupo_1105102" data-name="Grupo 1105102" transform="translate(5.07 0.64)">
                <text id="_19" data-name="19" transform="translate(0 17)" fill="#4f4641" font-size="16" font-family="SegoeUI, Segoe UI"><tspan x="0" y="0">19</tspan></text>
              </g>
              <g id="Grupo_1105103" data-name="Grupo 1105103" transform="translate(126.394 0.64)">
                <text id="_71" data-name="71" transform="translate(0 17)" fill="#4f4641" font-size="16" font-family="SegoeUI, Segoe UI"><tspan x="0" y="0">71</tspan></text>
              </g>
            </g>
            <g id="Grupo_1105105" data-name="Grupo 1105105" transform="translate(33.157)">
              <path id="Trazado_898911" data-name="Trazado 898911" d="M339.069,370.491a42.32,42.32,0,0,0,27.423,9.629,47.878,47.878,0,0,0,8.2-.691c38.262-6.671,44.463-59.975,44.522-60.513a.768.768,0,0,0-.576-.828c-.134-.034-10.566-2.687-18.045-7.214.045-.105.074-.176.077-.185a.768.768,0,0,0-.451-.988.757.757,0,0,0-.923.346,19.876,19.876,0,0,1-4.1-3.514c-4.579-5.408-5.712-9.8-5.994-11.595a3,3,0,0,0,.131-.873c0-4.883-11.767-7.517-22.839-7.517s-22.839,2.636-22.839,7.517a2.988,2.988,0,0,0,.131.872c-.282,1.793-1.416,6.188-5.994,11.595a19.774,19.774,0,0,1-4.08,3.5.761.761,0,0,0-.819-.361.822.822,0,0,0-.616.94,2.257,2.257,0,0,0,.061.3c-7.475,4.507-17.851,7.147-17.987,7.18a.767.767,0,0,0-.575.836C313.815,319.269,318.184,353.471,339.069,370.491Zm27.422-82.408c11.661,0,20.028,2.72,21.16,5.374a1.564,1.564,0,0,1,.143.608,1.8,1.8,0,0,1-.389,1.049c-1.817,2.506-9.9,4.933-20.914,4.933s-19.1-2.428-20.914-4.933a1.8,1.8,0,0,1-.389-1.049,1.564,1.564,0,0,1,.143-.608C346.465,290.8,354.831,288.083,366.492,288.083Zm-27.53,19.441a27.943,27.943,0,0,0,6.018-10.8c3.374,3.17,12.662,4.855,21.512,4.855S384.629,299.9,388,296.728a27.944,27.944,0,0,0,6.018,10.8,21.769,21.769,0,0,0,4.588,3.916c-2.136,3.975-10.325,15.8-32.1,15.8-21.523,0-30.386-11.647-32.3-15.688A22.054,22.054,0,0,0,338.962,307.525ZM361.4,346.9c1.808.135,3.588.192,5.1.192s3.288-.057,5.1-.192l-5.1,11.855Zm8.234-3.455,1.63,1.949c-1.436.1-3.024.163-4.77.163s-3.333-.062-4.77-.163l1.63-1.949.147-.177,2.992-3.575,2.992,3.575ZM357.6,337.826c1.54,1.025,5.07,1.323,7.272,1.407L361.5,343.27l-.147.177-1.494,1.784c-3.671-.387-6.037-1.048-6.942-1.588a1.685,1.685,0,0,1-.276-.2c-.005-.005-.014-.01-.02-.015l.058-.065.085-.1Zm2.053,8.918,4.134,9.618-8.913-10.422A33.835,33.835,0,0,0,359.656,346.744Zm13.672,0a33.959,33.959,0,0,0,4.779-.8l-8.913,10.422Zm6.98-3.377.047.053c-.01.009-.025.018-.035.027a1.629,1.629,0,0,1-.221.164c-.888.556-3.267,1.229-6.971,1.621l-1.493-1.784-.147-.177-3.379-4.038c2.2-.085,5.732-.382,7.272-1.407l4.841,5.445Zm-5.76-6.8a1.266,1.266,0,0,1-.155.1c-.836.441-3.528,1.07-7.9,1.07s-7.063-.629-7.9-1.07a1.086,1.086,0,0,1-.155-.1,1.252,1.252,0,0,1,.154-.1c.835-.44,3.526-1.069,7.9-1.069s7.066.629,7.9,1.069A1.291,1.291,0,0,1,374.547,336.565Zm-41.635-24.2c2.312,4.72,11.288,16.131,32.811,16.4v5.108c-2.492.049-8.6.386-8.853,2.468l-5.709,6.421a.729.729,0,0,0-.052.089.8.8,0,0,0-.089.152.835.835,0,0,0-.033.158.782.782,0,0,0-.023.112c0,.008,0,.014,0,.022a.575.575,0,0,0,.008.062.761.761,0,0,0,.173.59l.057.067.419.491L365.9,361.2l0,0,0,0,.014.013c.014.016.033.027.048.042a.764.764,0,0,0,.166.117.365.365,0,0,0,.038.024s.005,0,.009.007.023,0,.035.008a.686.686,0,0,0,.539,0c.011,0,.023,0,.035-.008s.005,0,.009-.007.025-.017.038-.024a.765.765,0,0,0,.166-.117c.016-.015.034-.026.049-.042l.014-.013,0,0,0,0L381.354,344.5l.42-.491.057-.066a.757.757,0,0,0,.173-.59c0-.021.007-.041.008-.062s0-.014,0-.022a26.224,26.224,0,0,0-.053-.269.757.757,0,0,0-.121-.207c-.009-.011-.011-.024-.021-.035l-.01-.011-.038-.042-5.662-6.368c-.255-2.082-6.361-2.419-8.854-2.468v-5.109C389,328.49,397.517,316.6,399.9,312.26c6.63,4,15.238,6.485,17.7,7.147-.832,6.086-8.311,52.431-43.176,58.511a46.336,46.336,0,0,1-7.934.667,40.823,40.823,0,0,1-26.454-9.283c-18.809-15.327-23.931-45.084-24.648-49.9C317.842,318.744,326.314,316.294,332.913,312.36Z" transform="translate(-313.769 -286.547)" fill="#fff"/>
              <path id="Trazado_898912" data-name="Trazado 898912" d="M407.791,389.864c-.113,0-11.384-.07-16.332-6.477-2.291-2.965-3.267-6.947-3.682-9.767a.768.768,0,1,0-1.52.224c.442,3,1.493,7.254,3.988,10.482,4.675,6.05,14.019,6.926,16.779,7.053v6.694H324.44v-6.694c2.759-.126,12.105-1,16.78-7.053,2.583-3.343,3.625-7.769,4.044-10.893a.768.768,0,0,0-1.522-.206c-.394,2.939-1.364,7.086-3.736,10.158-4.942,6.395-16.221,6.477-16.333,6.477a.768.768,0,0,0-.768.768v8.208a.767.767,0,0,0,.768.768h84.119a.767.767,0,0,0,.768-.768v-8.208a.768.768,0,0,0-.768-.767Z" transform="translate(-313.008 -279.379)" fill="#fff"/>
            </g>
          </g>
        </g>
        <path id="Trazado_898947" data-name="Trazado 898947" d="M169.182,350.336a1.433,1.433,0,1,0,1.433,1.433A1.433,1.433,0,0,0,169.182,350.336Z" transform="translate(69.616 -228.328)" fill="#ffcf11"/>
      </g>
      <g id="Grupo_1105124" data-name="Grupo 1105124" transform="translate(-7076.636 -14371.107)">
        <path id="Trazado_898887" data-name="Trazado 898887" d="M152.943,388.6h-1.108v-1.108a.708.708,0,1,0-1.416,0V388.6h-1.108a.709.709,0,0,0,0,1.418h1.108v1.107a.708.708,0,1,0,1.416,0v-1.107h1.108a.709.709,0,0,0,0-1.418Z" transform="translate(948.385 -232.334)" fill="#ffcf11"/>
        <path id="Trazado_898888" data-name="Trazado 898888" d="M168.129,367.239H166v-2.133a.708.708,0,1,0-1.417,0v2.133h-2.133a.709.709,0,0,0,0,1.418h2.133v2.133a.708.708,0,1,0,1.417,0v-2.133h2.133a.709.709,0,0,0,0-1.418Z" transform="translate(948.385 -232.334)" fill="#ffcf11"/>
        <path id="Trazado_898889" data-name="Trazado 898889" d="M121.875,377.169h-2.067V375.1a.709.709,0,1,0-1.417,0v2.067h-2.067a.709.709,0,0,0,0,1.418h2.067v2.066a.709.709,0,1,0,1.417,0v-2.066h2.067a.709.709,0,0,0,0-1.418Z" transform="translate(948.385 -232.334)" fill="#ffcf11"/>
        <path id="Trazado_898890" data-name="Trazado 898890" d="M132.1,387.972a1.64,1.64,0,1,0,2.32,0A1.64,1.64,0,0,0,132.1,387.972Z" transform="translate(948.385 -232.334)" fill="#ffcf11"/>
        <path id="Trazado_898891" data-name="Trazado 898891" d="M112.95,352.171a2.066,2.066,0,1,0,2.066,2.066A2.066,2.066,0,0,0,112.95,352.171Z" transform="translate(948.385 -232.334)" fill="#ffcf11"/>
        <path id="Trazado_898892" data-name="Trazado 898892" d="M169.182,350.336a1.433,1.433,0,1,0,1.433,1.433A1.433,1.433,0,0,0,169.182,350.336Z" transform="translate(948.385 -232.334)" fill="#ffcf11"/>
        <circle id="Elipse_12169" data-name="Elipse 12169" cx="1.479" cy="1.479" r="1.479" transform="translate(1109.778 150.361)" fill="#ffcf11"/>
        <circle id="Elipse_12170" data-name="Elipse 12170" cx="1.059" cy="1.059" r="1.059" transform="translate(1072.044 130.654)" fill="#ffcf11"/>
        <g id="Enmascarar_grupo_1099158" data-name="Enmascarar grupo 1099158" transform="translate(730 -208.5)" clip-path="url(#clip-path-2)">
          <g id="Grupo_1105098" data-name="Grupo 1105098" transform="translate(278.093 283.263)">
            <text id="THE_DIAMOND-2" data-name="THE DIAMOND" transform="translate(0 150.09)" fill="#4f4641" font-size="22" font-family="SegoeUI, Segoe UI"><tspan x="0" y="0">THE DIAMOND</tspan></text>
            <g id="Grupo_1105091" data-name="Grupo 1105091" transform="translate(15.521 155.46)">
              <text id="ORIGINAL_BRAND-2" data-name="ORIGINAL BRAND" transform="translate(0 10)" fill="#4f4641" font-size="9" font-family="SegoeUI, Segoe UI"><tspan x="0" y="0">ORIGINAL BRAND</tspan></text>
            </g>
            <g id="Grupo_1105096" data-name="Grupo 1105096" transform="translate(12.378 71.812)">
              <g id="Grupo_1105092" data-name="Grupo 1105092">
                <circle id="Elipse_12173" data-name="Elipse 12173" cx="12.547" cy="12.547" r="12.547" transform="translate(0.768 0.768)" fill="#fff"/>
                <path id="Trazado_898905" data-name="Trazado 898905" d="M307.9,379.465a13.315,13.315,0,1,1,13.315-13.315A13.331,13.331,0,0,1,307.9,379.465Zm0-25.094a11.779,11.779,0,1,0,11.779,11.779A11.793,11.793,0,0,0,307.9,354.371Z" transform="translate(-294.588 -352.835)" fill="#4f4641"/>
              </g>
              <g id="Grupo_1105093" data-name="Grupo 1105093" transform="translate(120.375)">
                <circle id="Elipse_12174" data-name="Elipse 12174" cx="12.547" cy="12.547" r="12.547" transform="translate(0.768 0.768)" fill="#fff"/>
                <path id="Trazado_898906" data-name="Trazado 898906" d="M419.018,379.465a13.315,13.315,0,1,1,13.315-13.315A13.331,13.331,0,0,1,419.018,379.465Zm0-25.094A11.779,11.779,0,1,0,430.8,366.15,11.793,11.793,0,0,0,419.018,354.371Z" transform="translate(-405.703 -352.835)" fill="#4f4641"/>
              </g>
              <g id="Grupo_1105094" data-name="Grupo 1105094" transform="translate(5.07 0.64)">
                <text id="_19-2" data-name="19" transform="translate(0 17)" fill="#4f4641" font-size="16" font-family="SegoeUI, Segoe UI"><tspan x="0" y="0">19</tspan></text>
              </g>
              <g id="Grupo_1105095" data-name="Grupo 1105095" transform="translate(126.394 0.64)">
                <text id="_71-2" data-name="71" transform="translate(0 17)" fill="#4f4641" font-size="16" font-family="SegoeUI, Segoe UI"><tspan x="0" y="0">71</tspan></text>
              </g>
            </g>
            <g id="Grupo_1105097" data-name="Grupo 1105097" transform="translate(33.157)">
              <path id="Trazado_898907" data-name="Trazado 898907" d="M339.069,370.491a42.32,42.32,0,0,0,27.423,9.629,47.878,47.878,0,0,0,8.2-.691c38.262-6.671,44.463-59.975,44.522-60.513a.768.768,0,0,0-.576-.828c-.134-.034-10.566-2.687-18.045-7.214.045-.105.074-.176.077-.185a.768.768,0,0,0-.451-.988.757.757,0,0,0-.923.346,19.876,19.876,0,0,1-4.1-3.514c-4.579-5.408-5.712-9.8-5.994-11.595a3,3,0,0,0,.131-.873c0-4.883-11.767-7.517-22.839-7.517s-22.839,2.636-22.839,7.517a2.988,2.988,0,0,0,.131.872c-.282,1.793-1.416,6.188-5.994,11.595a19.774,19.774,0,0,1-4.08,3.5.761.761,0,0,0-.819-.361.822.822,0,0,0-.616.94,2.257,2.257,0,0,0,.061.3c-7.475,4.507-17.851,7.147-17.987,7.18a.767.767,0,0,0-.575.836C313.815,319.269,318.184,353.471,339.069,370.491Zm27.422-82.408c11.661,0,20.028,2.72,21.16,5.374a1.564,1.564,0,0,1,.143.608,1.8,1.8,0,0,1-.389,1.049c-1.817,2.506-9.9,4.933-20.914,4.933s-19.1-2.428-20.914-4.933a1.8,1.8,0,0,1-.389-1.049,1.564,1.564,0,0,1,.143-.608C346.465,290.8,354.831,288.083,366.492,288.083Zm-27.53,19.441a27.943,27.943,0,0,0,6.018-10.8c3.374,3.17,12.662,4.855,21.512,4.855S384.629,299.9,388,296.728a27.944,27.944,0,0,0,6.018,10.8,21.769,21.769,0,0,0,4.588,3.916c-2.136,3.975-10.325,15.8-32.1,15.8-21.523,0-30.386-11.647-32.3-15.688A22.054,22.054,0,0,0,338.962,307.525ZM361.4,346.9c1.808.135,3.588.192,5.1.192s3.288-.057,5.1-.192l-5.1,11.855Zm8.234-3.455,1.63,1.949c-1.436.1-3.024.163-4.77.163s-3.333-.062-4.77-.163l1.63-1.949.147-.177,2.992-3.575,2.992,3.575ZM357.6,337.826c1.54,1.025,5.07,1.323,7.272,1.407L361.5,343.27l-.147.177-1.494,1.784c-3.671-.387-6.037-1.048-6.942-1.588a1.685,1.685,0,0,1-.276-.2c-.005-.005-.014-.01-.02-.015l.058-.065.085-.1Zm2.053,8.918,4.134,9.618-8.913-10.422A33.835,33.835,0,0,0,359.656,346.744Zm13.672,0a33.959,33.959,0,0,0,4.779-.8l-8.913,10.422Zm6.98-3.377.047.053c-.01.009-.025.018-.035.027a1.629,1.629,0,0,1-.221.164c-.888.556-3.267,1.229-6.971,1.621l-1.493-1.784-.147-.177-3.379-4.038c2.2-.085,5.732-.382,7.272-1.407l4.841,5.445Zm-5.76-6.8a1.266,1.266,0,0,1-.155.1c-.836.441-3.528,1.07-7.9,1.07s-7.063-.629-7.9-1.07a1.086,1.086,0,0,1-.155-.1,1.252,1.252,0,0,1,.154-.1c.835-.44,3.526-1.069,7.9-1.069s7.066.629,7.9,1.069A1.291,1.291,0,0,1,374.547,336.565Zm-41.635-24.2c2.312,4.72,11.288,16.131,32.811,16.4v5.108c-2.492.049-8.6.386-8.853,2.468l-5.709,6.421a.729.729,0,0,0-.052.089.8.8,0,0,0-.089.152.835.835,0,0,0-.033.158.782.782,0,0,0-.023.112c0,.008,0,.014,0,.022a.575.575,0,0,0,.008.062.761.761,0,0,0,.173.59l.057.067.419.491L365.9,361.2l0,0,0,0,.014.013c.014.016.033.027.048.042a.764.764,0,0,0,.166.117.365.365,0,0,0,.038.024s.005,0,.009.007.023,0,.035.008a.686.686,0,0,0,.539,0c.011,0,.023,0,.035-.008s.005,0,.009-.007.025-.017.038-.024a.765.765,0,0,0,.166-.117c.016-.015.034-.026.049-.042l.014-.013,0,0,0,0L381.354,344.5l.42-.491.057-.066a.757.757,0,0,0,.173-.59c0-.021.007-.041.008-.062s0-.014,0-.022a26.224,26.224,0,0,0-.053-.269.757.757,0,0,0-.121-.207c-.009-.011-.011-.024-.021-.035l-.01-.011-.038-.042-5.662-6.368c-.255-2.082-6.361-2.419-8.854-2.468v-5.109C389,328.49,397.517,316.6,399.9,312.26c6.63,4,15.238,6.485,17.7,7.147-.832,6.086-8.311,52.431-43.176,58.511a46.336,46.336,0,0,1-7.934.667,40.823,40.823,0,0,1-26.454-9.283c-18.809-15.327-23.931-45.084-24.648-49.9C317.842,318.744,326.314,316.294,332.913,312.36Z" transform="translate(-313.769 -286.547)" fill="#fff"/>
              <path id="Trazado_898908" data-name="Trazado 898908" d="M407.791,389.864c-.113,0-11.384-.07-16.332-6.477-2.291-2.965-3.267-6.947-3.682-9.767a.768.768,0,1,0-1.52.224c.442,3,1.493,7.254,3.988,10.482,4.675,6.05,14.019,6.926,16.779,7.053v6.694H324.44v-6.694c2.759-.126,12.105-1,16.78-7.053,2.583-3.343,3.625-7.769,4.044-10.893a.768.768,0,0,0-1.522-.206c-.394,2.939-1.364,7.086-3.736,10.158-4.942,6.395-16.221,6.477-16.333,6.477a.768.768,0,0,0-.768.768v8.208a.767.767,0,0,0,.768.768h84.119a.767.767,0,0,0,.768-.768v-8.208a.768.768,0,0,0-.768-.767Z" transform="translate(-313.008 -279.379)" fill="#fff"/>
            </g>
          </g>
        </g>
      </g>
      <g id="Grupo_1105125" data-name="Grupo 1105125" transform="translate(-7148.634 -14396.356)">
        <path id="Trazado_898900" data-name="Trazado 898900" d="M356.251,363.147h1.442v1.441a.709.709,0,0,0,1.418,0v-1.441h1.441a.709.709,0,1,0,0-1.418h-1.441v-1.441a.709.709,0,1,0-1.418,0v1.441h-1.442a.709.709,0,0,0,0,1.418Z" transform="translate(1101.563 -133.996)" fill="#ffcf11"/>
        <path id="Trazado_898901" data-name="Trazado 898901" d="M338.433,349.49a.708.708,0,0,0,.709.709h2.8v2.806a.709.709,0,1,0,1.418,0V350.2h2.806a.709.709,0,0,0,0-1.418h-2.806v-2.8a.709.709,0,0,0-1.418,0v2.8h-2.8A.709.709,0,0,0,338.433,349.49Z" transform="translate(1101.563 -133.996)" fill="#ffcf11"/>
        <path id="Trazado_898902" data-name="Trazado 898902" d="M376.185,358.176a2.221,2.221,0,1,0-2.221-2.221A2.221,2.221,0,0,0,376.185,358.176Z" transform="translate(1101.563 -133.996)" fill="#ffcf11"/>
        <path id="Trazado_898903" data-name="Trazado 898903" d="M384.265,343.143a1.587,1.587,0,1,0,1.587-1.587A1.588,1.588,0,0,0,384.265,343.143Z" transform="translate(1101.563 -133.996)" fill="#ffcf11"/>
        <path id="Trazado_898904" data-name="Trazado 898904" d="M339.142,331.261a1.707,1.707,0,1,0-1.707-1.707A1.707,1.707,0,0,0,339.142,331.261Z" transform="translate(1101.563 -133.996)" fill="#ffcf11"/>
        <path id="Trazado_898916" data-name="Trazado 898916" d="M134.5,360.248a.948.948,0,0,0-.293.263c-.012.018-.014.038-.026.056a1.037,1.037,0,0,0-.052.113.922.922,0,0,0-.087.324c0,.026-.019.047-.019.073v24.761c0,.026.018.047.019.073a.915.915,0,0,0,.087.323.945.945,0,0,0,.052.114.5.5,0,0,0,.026.056.906.906,0,0,0,.2.168c.037.03.057.075.1.1l11.731,6.772c.014.008.03,0,.043.012a.867.867,0,0,0,.874,0c.014-.007.03,0,.043-.012l11.731-6.772c.042-.024.061-.069.1-.1a.978.978,0,0,0,.2-.168c.012-.018.014-.038.026-.056a.945.945,0,0,0,.052-.114.923.923,0,0,0,.087-.323c0-.026.019-.047.019-.073V361.077c0-.026-.018-.047-.019-.073a.916.916,0,0,0-.087-.323.947.947,0,0,0-.052-.114c-.011-.018-.014-.038-.026-.056a.956.956,0,0,0-.292-.262l0-.005-11.066-6.085c.212-.237-2.852,0-2.11,0C145.9,354.16,134.5,360.247,134.5,360.248Zm19.7,14.169h3.282v9.531l-3.282-2.385Zm3.282-1.923H154.2v-7.146l3.282-2.385Zm-5.205.962V381.5l-5.563,3.212-5.565-3.212V365.415l5.565-3.213,5.563,3.212Zm-13.051-.962h-3.282v-9.531l3.282,2.387Zm-3.282,1.923h3.282v7.146l-3.282,2.385Zm9.809-18.449v4.569l-5.5,3.178-3.5-2.547Zm-5.505,27.23,5.505,3.178v4.569l-9.006-5.2Zm7.428,7.745v-4.569l5.5-3.178,3.5,2.546Zm9.006-29.775-3.5,2.546-5.5-3.178v-4.569Z" transform="translate(1316.12 -176.689)" fill="#fff"/>
      </g>
      <path id="Trazado_898963" data-name="Trazado 898963" d="M381.119,327.9h1.657v1.657a.709.709,0,1,0,1.418,0V327.9h1.658a.709.709,0,0,0,0-1.418h-1.658v-1.657a.709.709,0,0,0-1.418,0v1.657h-1.657a.709.709,0,1,0,0,1.418Z" transform="translate(-6037.073 -14534.25)" fill="#ffcf11"/>
      <g id="Grupo_1105126" data-name="Grupo 1105126" transform="translate(-6434.068 -14398.051) rotate(19)">
        <path id="Trazado_898859" data-name="Trazado 898859" d="M149.586,66.7a.9.9,0,0,0-.9.9V70.58H145.71a.9.9,0,1,0,0,1.8h2.977v2.977a.9.9,0,1,0,1.8,0V72.379h2.977a.9.9,0,0,0,0-1.8h-2.977V67.6A.9.9,0,0,0,149.586,66.7Z" transform="translate(7.549)" fill="#fff"/>
        <path id="Trazado_898860" data-name="Trazado 898860" d="M121.193,108.356a.9.9,0,0,0,.9-.9v-2.6h2.6a.9.9,0,0,0,0-1.8h-2.6v-2.6a.9.9,0,0,0-1.8,0v2.6h-2.6a.9.9,0,1,0,0,1.8h2.6v2.6A.9.9,0,0,0,121.193,108.356Z" transform="translate(0 8.852)" fill="#fff"/>
        <path id="Trazado_898861" data-name="Trazado 898861" d="M168.628,108.356a.9.9,0,0,0,.9-.9v-2.6h2.6a.9.9,0,0,0,0-1.8h-2.6v-2.6a.9.9,0,0,0-1.8,0v2.6h-2.6a.9.9,0,1,0,0,1.8h2.6v2.6A.9.9,0,0,0,168.628,108.356Z" transform="translate(12.781 8.852)" fill="#fff"/>
        <circle id="Elipse_12163" data-name="Elipse 12163" cx="2.737" cy="2.737" r="2.737" transform="translate(148.342 148.095)" fill="#fff"/>
        <circle id="Elipse_12164" data-name="Elipse 12164" cx="1.955" cy="1.955" r="1.955" transform="translate(175.055 85.446)" fill="#fff"/>
        <path id="Trazado_898862" data-name="Trazado 898862" d="M127.76,78.642a2.1,2.1,0,1,0,2.1,2.1A2.1,2.1,0,0,0,127.76,78.642Z" transform="translate(2.388 3.217)" fill="#fff"/>
        <path id="Trazado_898863" data-name="Trazado 898863" d="M133.657,94.265l-.008.01a.892.892,0,0,0-.11.259c-.006.023-.023.041-.028.065a.567.567,0,0,0,0,.066c0,.029-.018.055-.018.084v25.293a.613.613,0,0,0,.018.084.906.906,0,0,0,.038.185.806.806,0,0,0,.169.3.948.948,0,0,0,.055.079L147,133.254c.022.02.048.027.07.044s.033.039.055.055a.475.475,0,0,0,.052.024.6.6,0,0,0,.065.03c.028.013.053.028.081.038a.885.885,0,0,0,.3.056h0a.883.883,0,0,0,.294-.056.691.691,0,0,0,.083-.038.6.6,0,0,0,.065-.03c.017-.01.036-.014.052-.024s.034-.038.055-.055.049-.025.07-.044l13.226-12.562c.023-.023.033-.053.055-.077a.95.95,0,0,0,.11-.157.878.878,0,0,0,.061-.147.918.918,0,0,0,.038-.187c0-.029.018-.055.018-.084V94.748c0-.029-.015-.055-.018-.084s0-.043,0-.066a.588.588,0,0,0-.028-.065.89.89,0,0,0-.11-.259l-.006-.009a.858.858,0,0,0-.136-.187L148.217,82.214c-.009-.008-.022-.01-.03-.019a.709.709,0,0,0-.081-.056c-.015-.01-.024-.027-.042-.036s-.043-.011-.065-.022a.859.859,0,0,0-.11-.048.724.724,0,0,0-.1-.023.866.866,0,0,0-.113-.017.819.819,0,0,0-.112,0,.865.865,0,0,0-.113.017.581.581,0,0,0-.215.071c-.02.01-.044.01-.065.022s-.025.027-.042.037a.691.691,0,0,0-.08.056c-.01.008-.022.01-.032.019L133.789,94.081A1.031,1.031,0,0,0,133.657,94.265Zm5.57,2.422v23.426l-3.934-.8V95.882Zm8.392-11.995,5.941,10.362H141.68Zm12.326,11.19v23.426l-3.935.8V96.687Zm-12.326,35.086-5.824-8.853h11.648Zm6.593-34.116v23.463H141.026V96.852Zm-16.923,24.7,2.29.468,2.992,4.548Zm15.375,5.018,2.992-4.55,2.29-.468Zm6.277-32.32-3.374.691-4.388-7.655Zm-14.885-6.964-4.388,7.655-3.374-.691Z" transform="translate(4.499 4.119)" fill="#fff"/>
      </g>
      <g id="Grupo_1105127" data-name="Grupo 1105127" transform="matrix(0.985, -0.174, 0.174, 0.985, 6181.249, -3961.793)" opacity="0.9">
        <path id="Trazado_898925" data-name="Trazado 898925" d="M340.012,95.944l18.151,27.8a.71.71,0,0,0,1.188,0l18.152-27.8a.712.712,0,0,0,0-.775l-18.152-27.8a.738.738,0,0,0-1.188,0l-18.151,27.8A.708.708,0,0,0,340.012,95.944Zm7.736.321,10.3,15.774v8.933L341.915,96.264h5.833Zm1.23-.708,9.778-14.975,9.778,14.975-9.778,14.976Zm10.488,25.416V112.04l10.3-15.774H375.6Zm10.3-26.125-10.3-15.774V70.141L375.6,94.848ZM358.048,70.141v8.933l-10.3,15.774h-5.833Z" transform="translate(-10388 -12312)" fill="#ffcf11"/>
        <path id="Trazado_898926" data-name="Trazado 898926" d="M378.645,77.956h1.329v1.33a.709.709,0,0,0,1.418,0v-1.33h1.329a.709.709,0,1,0,0-1.417h-1.329v-1.33a.709.709,0,0,0-1.418,0v1.33h-1.329a.709.709,0,1,0,0,1.417Z" transform="translate(-10388 -12312)" fill="#fff"/>
        <path id="Trazado_898927" data-name="Trazado 898927" d="M345.868,153.134a.708.708,0,0,0,.709-.708v-2.173h2.173a.708.708,0,1,0,0-1.416h-2.173v-2.173a.709.709,0,0,0-1.418,0v2.173h-2.173a.708.708,0,1,0,0,1.416h2.173v2.173A.709.709,0,0,0,345.868,153.134Z" transform="translate(-10388 -12312)" fill="#fff"/>
        <path id="Trazado_898928" data-name="Trazado 898928" d="M366.5,56.825h2.172V59a.709.709,0,0,0,1.418,0V56.825h2.173a.708.708,0,1,0,0-1.416h-2.173V53.236a.709.709,0,0,0-1.418,0v2.173H366.5a.708.708,0,1,0,0,1.416Z" transform="translate(-10388 -12312)" fill="#fff"/>
        <path id="Trazado_898929" data-name="Trazado 898929" d="M326.46,84.159h3.456v3.456a.709.709,0,0,0,1.418,0V84.159h3.456a.709.709,0,1,0,0-1.417h-3.456V79.286a.709.709,0,0,0-1.418,0v3.456H326.46a.709.709,0,1,0,0,1.417Z" transform="translate(-10388 -12312)" fill="#fff"/>
        <path id="Trazado_898930" data-name="Trazado 898930" d="M337.958,126.261a2.906,2.906,0,1,0-2.906-2.907A2.906,2.906,0,0,0,337.958,126.261Z" transform="translate(-10388 -12312)" fill="#fff"/>
        <path id="Trazado_898931" data-name="Trazado 898931" d="M388.464,97.01a1.453,1.453,0,1,0-1.453-1.453A1.453,1.453,0,0,0,388.464,97.01Z" transform="translate(-10388 -12312)" fill="#fff"/>
        <circle id="Elipse_12182" data-name="Elipse 12182" cx="1.5" cy="1.5" r="1.5" transform="translate(-10026.5 -12178.013)" fill="#fff"/>
        <path id="Trazado_898932" data-name="Trazado 898932" d="M339.522,65.827a1.564,1.564,0,1,0-1.564-1.564A1.564,1.564,0,0,0,339.522,65.827Z" transform="translate(-10388 -12312)" fill="#fff"/>
      </g>
      <g id="Grupo_1105128" data-name="Grupo 1105128" transform="matrix(0.985, -0.174, 0.174, 0.985, 4864.58, -3971.801)" opacity="0.87">
        <path id="Trazado_898925-2" data-name="Trazado 898925" d="M340.012,95.944l18.151,27.8a.71.71,0,0,0,1.188,0l18.152-27.8a.712.712,0,0,0,0-.775l-18.152-27.8a.738.738,0,0,0-1.188,0l-18.151,27.8A.708.708,0,0,0,340.012,95.944Zm7.736.321,10.3,15.774v8.933L341.915,96.264h5.833Zm1.23-.708,9.778-14.975,9.778,14.975-9.778,14.976Zm10.488,25.416V112.04l10.3-15.774H375.6Zm10.3-26.125-10.3-15.774V70.141L375.6,94.848ZM358.048,70.141v8.933l-10.3,15.774h-5.833Z" transform="translate(-10388 -12312)" fill="#ffcf11"/>
        <path id="Trazado_898926-2" data-name="Trazado 898926" d="M378.645,77.956h1.329v1.33a.709.709,0,0,0,1.418,0v-1.33h1.329a.709.709,0,1,0,0-1.417h-1.329v-1.33a.709.709,0,0,0-1.418,0v1.33h-1.329a.709.709,0,1,0,0,1.417Z" transform="translate(-10388 -12312)" fill="#fff"/>
        <path id="Trazado_898927-2" data-name="Trazado 898927" d="M345.868,153.134a.708.708,0,0,0,.709-.708v-2.173h2.173a.708.708,0,1,0,0-1.416h-2.173v-2.173a.709.709,0,0,0-1.418,0v2.173h-2.173a.708.708,0,1,0,0,1.416h2.173v2.173A.709.709,0,0,0,345.868,153.134Z" transform="translate(-10388 -12312)" fill="#fff"/>
        <path id="Trazado_898928-2" data-name="Trazado 898928" d="M366.5,56.825h2.172V59a.709.709,0,0,0,1.418,0V56.825h2.173a.708.708,0,1,0,0-1.416h-2.173V53.236a.709.709,0,0,0-1.418,0v2.173H366.5a.708.708,0,1,0,0,1.416Z" transform="translate(-10388 -12312)" fill="#fff"/>
        <path id="Trazado_898929-2" data-name="Trazado 898929" d="M326.46,84.159h3.456v3.456a.709.709,0,0,0,1.418,0V84.159h3.456a.709.709,0,1,0,0-1.417h-3.456V79.286a.709.709,0,0,0-1.418,0v3.456H326.46a.709.709,0,1,0,0,1.417Z" transform="translate(-10388 -12312)" fill="#fff"/>
        <path id="Trazado_898930-2" data-name="Trazado 898930" d="M337.958,126.261a2.906,2.906,0,1,0-2.906-2.907A2.906,2.906,0,0,0,337.958,126.261Z" transform="translate(-10388 -12312)" fill="#fff"/>
        <path id="Trazado_898931-2" data-name="Trazado 898931" d="M388.464,97.01a1.453,1.453,0,1,0-1.453-1.453A1.453,1.453,0,0,0,388.464,97.01Z" transform="translate(-10388 -12312)" fill="#fff"/>
        <circle id="Elipse_12182-2" data-name="Elipse 12182" cx="1.5" cy="1.5" r="1.5" transform="translate(-10026.5 -12178.013)" fill="#fff"/>
        <path id="Trazado_898932-2" data-name="Trazado 898932" d="M339.522,65.827a1.564,1.564,0,1,0-1.564-1.564A1.564,1.564,0,0,0,339.522,65.827Z" transform="translate(-10388 -12312)" fill="#fff"/>
        <path id="Trazado_898946" data-name="Trazado 898946" d="M388.464,97.01a1.453,1.453,0,1,0-1.453-1.453A1.453,1.453,0,0,0,388.464,97.01Z" transform="translate(-10388 -12312)" fill="#fff"/>
      </g>
      <path id="Trazado_898964" data-name="Trazado 898964" d="M1212.631,105.455c16.658-8.328,36.509,30.715,56.609,30.465s25.679-5.529,38.039-21.379c2.39-3.07,5.016-16,3.786-19.687-1.58-4.73-11.662-8.072-15.522-4.922s-6.1,10.792-4.544,15.522c3.34,10.1,39.386,27.891,49.976,26.881s17.037-8.33,20.822-17.795" transform="translate(-7176.636 -14330.356)" fill="none" stroke="#fff" stroke-linecap="round" stroke-linejoin="round" stroke-width="1.04" stroke-dasharray="0 0 7.39 5.91"/>
      <path id="Trazado_898965" data-name="Trazado 898965" d="M1058.08,119.194c7.43,10.442,53.154,60.537,90.066,23.132,45.28-72.841,79.646-9.842,91.545-9.99,23.132,19.833,55.228-1.945,67.588-17.795,2.39-3.07,5.016-16,3.786-19.687-1.58-4.73-11.662-8.072-15.522-4.922s-6.1,10.792-4.544,15.522c3.34,10.1,29.408,31.458,44.666,29.488s22.147,2.461,40.358-26.084" transform="translate(-7716.636 -14324.277)" fill="none" stroke="#fff" stroke-linecap="round" stroke-linejoin="round" stroke-width="1.04" stroke-dasharray="0 0 7.39 5.91"/>
      <path id="Trazado_898966" data-name="Trazado 898966" d="M1243.548,73.152c-7.582,27.744,7.839,32.747,22.23,32.568,13.48-.168,19.994,27.016,29.193,20.791a55.187,55.187,0,0,0,12.308-11.971c2.39-3.07,3.59-11.388,2.36-15.078-1.58-4.73-10.809-7.748-14.669-4.6s-7.052,10.621-5.492,15.351c3.34,10.1,31.525,19.38,42.115,18.37s26.418-4.58,30.2-14.045" transform="translate(-8372.001 -14302.691)" fill="none" stroke="#fff" stroke-linecap="round" stroke-linejoin="round" stroke-width="1.04" stroke-dasharray="0 0 7.39 5.91"/>
      <path id="Trazado_898967" data-name="Trazado 898967" d="M1175.275,108.141c3.371-15.509,21.636-29.049,49.285-16.543,9.478,5.17,12.28,22.566,22.4,31.19,16.544,18.956,33.606,13.506,38.773,13.441" transform="translate(-6860.175 -14330.356)" fill="none" stroke="#fff" stroke-linecap="round" stroke-linejoin="round" stroke-width="1.04" stroke-dasharray="0 0 7.39 5.91"/>
      <path id="Trazado_898968" data-name="Trazado 898968" d="M149.586,66.7a.9.9,0,0,0-.9.9V70.58H145.71a.9.9,0,1,0,0,1.8h2.977v2.977a.9.9,0,1,0,1.8,0V72.379h2.977a.9.9,0,0,0,0-1.8h-2.977V67.6A.9.9,0,0,0,149.586,66.7Z" transform="translate(-6271.931 -14320.04) rotate(19)" fill="#fff"/>
      <path id="Trazado_898969" data-name="Trazado 898969" d="M149.586,66.7a.9.9,0,0,0-.9.9V70.58H145.71a.9.9,0,1,0,0,1.8h2.977v2.977a.9.9,0,1,0,1.8,0V72.379h2.977a.9.9,0,0,0,0-1.8h-2.977V67.6A.9.9,0,0,0,149.586,66.7Z" transform="translate(-6329.931 -14340.4) rotate(19)" fill="#fff"/>
      <path id="Trazado_898970" data-name="Trazado 898970" d="M149.586,66.7a.9.9,0,0,0-.9.9V70.58H145.71a.9.9,0,1,0,0,1.8h2.977v2.977a.9.9,0,1,0,1.8,0V72.379h2.977a.9.9,0,0,0,0-1.8h-2.977V67.6A.9.9,0,0,0,149.586,66.7Z" transform="translate(-6394.931 -14316.79) rotate(19)" fill="#fff"/>
      <path id="Trazado_898971" data-name="Trazado 898971" d="M339.522,65.827a1.564,1.564,0,1,0-1.564-1.564A1.564,1.564,0,0,0,339.522,65.827Z" transform="matrix(0.985, -0.174, 0.174, 0.985, -6519.89, -14220.563)" fill="#fff"/>
      <path id="Trazado_898972" data-name="Trazado 898972" d="M339.522,65.827a1.564,1.564,0,1,0-1.564-1.564A1.564,1.564,0,0,0,339.522,65.827Z" transform="matrix(0.985, -0.174, 0.174, 0.985, -6600.89, -14228.445)" fill="#fff"/>
      <path id="Trazado_898973" data-name="Trazado 898973" d="M339.522,65.827a1.564,1.564,0,1,0-1.564-1.564A1.564,1.564,0,0,0,339.522,65.827Z" transform="matrix(0.985, -0.174, 0.174, 0.985, -6530.89, -14242.998)" fill="#fff"/>
      <path id="Trazado_898974" data-name="Trazado 898974" d="M339.522,65.827a1.564,1.564,0,1,0-1.564-1.564A1.564,1.564,0,0,0,339.522,65.827Z" transform="matrix(0.985, -0.174, 0.174, 0.985, -6600.89, -14228.445)" fill="#fff"/>
      <path id="Trazado_898975" data-name="Trazado 898975" d="M149.586,66.7a.9.9,0,0,0-.9.9V70.58H145.71a.9.9,0,1,0,0,1.8h2.977v2.977a.9.9,0,1,0,1.8,0V72.379h2.977a.9.9,0,0,0,0-1.8h-2.977V67.6A.9.9,0,0,0,149.586,66.7Z" transform="translate(-7009.931 -14367.979) rotate(19)" fill="#fff"/>
      <path id="Trazado_898976" data-name="Trazado 898976" d="M149.586,66.7a.9.9,0,0,0-.9.9V70.58H145.71a.9.9,0,1,0,0,1.8h2.977v2.977a.9.9,0,1,0,1.8,0V72.379h2.977a.9.9,0,0,0,0-1.8h-2.977V67.6A.9.9,0,0,0,149.586,66.7Z" transform="translate(-6908.931 -14419.09) rotate(19)" fill="#fff"/>
      <path id="Trazado_898977" data-name="Trazado 898977" d="M149.586,66.7a.9.9,0,0,0-.9.9V70.58H145.71a.9.9,0,1,0,0,1.8h2.977v2.977a.9.9,0,1,0,1.8,0V72.379h2.977a.9.9,0,0,0,0-1.8h-2.977V67.6A.9.9,0,0,0,149.586,66.7Z" transform="translate(-7105.23 -14410.09) rotate(19)" fill="#fff"/>
      <path id="Trazado_898978" data-name="Trazado 898978" d="M169.182,350.336a1.433,1.433,0,1,0,1.433,1.433A1.433,1.433,0,0,0,169.182,350.336Z" transform="translate(-7121.885 -14609.534)" fill="#ffcf11"/>
      <path id="Trazado_898979" data-name="Trazado 898979" d="M169.182,350.336a1.433,1.433,0,1,0,1.433,1.433A1.433,1.433,0,0,0,169.182,350.336Z" transform="translate(-6997.885 -14619.618)" fill="#ffcf11"/>
      <path id="Trazado_898980" data-name="Trazado 898980" d="M169.182,350.336a1.433,1.433,0,1,0,1.433,1.433A1.433,1.433,0,0,0,169.182,350.336Z" transform="translate(-7022.885 -14594.831)" fill="#ffcf11"/>
      <path id="Trazado_898981" data-name="Trazado 898981" d="M169.182,350.336a1.433,1.433,0,1,0,1.433,1.433A1.433,1.433,0,0,0,169.182,350.336Z" transform="translate(-7091.885 -14588.779)" fill="#ffcf11"/>
      <g id="Grupo_1105190" data-name="Grupo 1105190" transform="translate(-7222.57 -14346.565)">
        <path id="Trazado_898893-2" data-name="Trazado 898893" d="M152.943,388.6h-1.108v-1.108a.708.708,0,1,0-1.416,0V388.6h-1.108a.709.709,0,0,0,0,1.418h1.108v1.107a.708.708,0,1,0,1.416,0v-1.107h1.108a.709.709,0,0,0,0-1.418Z" transform="translate(69.616 -228.328)" fill="#ffcf11"/>
        <path id="Trazado_898894-2" data-name="Trazado 898894" d="M168.129,367.239H166v-2.133a.708.708,0,1,0-1.417,0v2.133h-2.133a.709.709,0,0,0,0,1.418h2.133v2.133a.708.708,0,1,0,1.417,0v-2.133h2.133a.709.709,0,0,0,0-1.418Z" transform="translate(69.616 -228.328)" fill="#ffcf11"/>
        <path id="Trazado_898895-2" data-name="Trazado 898895" d="M121.875,377.169h-2.067V375.1a.709.709,0,1,0-1.417,0v2.067h-2.067a.709.709,0,0,0,0,1.418h2.067v2.066a.709.709,0,1,0,1.417,0v-2.066h2.067a.709.709,0,0,0,0-1.418Z" transform="translate(69.616 -228.328)" fill="#ffcf11"/>
        <path id="Trazado_898896-2" data-name="Trazado 898896" d="M132.1,387.972a1.64,1.64,0,1,0,2.32,0A1.64,1.64,0,0,0,132.1,387.972Z" transform="translate(69.616 -228.328)" fill="#ffcf11"/>
        <path id="Trazado_898897-2" data-name="Trazado 898897" d="M112.95,352.171a2.066,2.066,0,1,0,2.066,2.066A2.066,2.066,0,0,0,112.95,352.171Z" transform="translate(69.616 -228.328)" fill="#ffcf11"/>
        <path id="Trazado_898898-2" data-name="Trazado 898898" d="M169.182,350.336a1.433,1.433,0,1,0,1.433,1.433A1.433,1.433,0,0,0,169.182,350.336Z" transform="translate(69.616 -228.328)" fill="#ffcf11"/>
        <circle id="Elipse_12171-2" data-name="Elipse 12171" cx="1.479" cy="1.479" r="1.479" transform="translate(231.01 154.367)" fill="#ffcf11"/>
        <circle id="Elipse_12172-2" data-name="Elipse 12172" cx="1.059" cy="1.059" r="1.059" transform="translate(193.275 134.66)" fill="#ffcf11"/>
        <g id="Enmascarar_grupo_1099159-2" data-name="Enmascarar grupo 1099159" transform="translate(-151 -205.5)" clip-path="url(#clip-path-2)">
          <g id="Grupo_1105106-2" data-name="Grupo 1105106" transform="translate(278.093 283.263)">
            <text id="THE_DIAMOND-3" data-name="THE DIAMOND" transform="translate(0 150.09)" fill="#4f4641" font-size="22" font-family="SegoeUI, Segoe UI"><tspan x="0" y="0">THE DIAMOND</tspan></text>
            <g id="Grupo_1105099-2" data-name="Grupo 1105099" transform="translate(15.521 155.46)">
              <text id="ORIGINAL_BRAND-3" data-name="ORIGINAL BRAND" transform="translate(0 10)" fill="#4f4641" font-size="9" font-family="SegoeUI, Segoe UI"><tspan x="0" y="0">ORIGINAL BRAND</tspan></text>
            </g>
            <g id="Grupo_1105104-2" data-name="Grupo 1105104" transform="translate(12.378 71.812)">
              <g id="Grupo_1105100-2" data-name="Grupo 1105100">
                <circle id="Elipse_12175-2" data-name="Elipse 12175" cx="12.547" cy="12.547" r="12.547" transform="translate(0.768 0.768)" fill="#fff"/>
                <path id="Trazado_898909-2" data-name="Trazado 898909" d="M307.9,379.465a13.315,13.315,0,1,1,13.315-13.315A13.331,13.331,0,0,1,307.9,379.465Zm0-25.094a11.779,11.779,0,1,0,11.779,11.779A11.793,11.793,0,0,0,307.9,354.371Z" transform="translate(-294.588 -352.835)" fill="#4f4641"/>
              </g>
              <g id="Grupo_1105101-2" data-name="Grupo 1105101" transform="translate(120.375)">
                <circle id="Elipse_12176-2" data-name="Elipse 12176" cx="12.547" cy="12.547" r="12.547" transform="translate(0.768 0.768)" fill="#fff"/>
                <path id="Trazado_898910-2" data-name="Trazado 898910" d="M419.018,379.465a13.315,13.315,0,1,1,13.315-13.315A13.331,13.331,0,0,1,419.018,379.465Zm0-25.094A11.779,11.779,0,1,0,430.8,366.15,11.793,11.793,0,0,0,419.018,354.371Z" transform="translate(-405.703 -352.835)" fill="#4f4641"/>
              </g>
              <g id="Grupo_1105102-2" data-name="Grupo 1105102" transform="translate(5.07 0.64)">
                <text id="_19-3" data-name="19" transform="translate(0 17)" fill="#4f4641" font-size="16" font-family="SegoeUI, Segoe UI"><tspan x="0" y="0">19</tspan></text>
              </g>
              <g id="Grupo_1105103-2" data-name="Grupo 1105103" transform="translate(126.394 0.64)">
                <text id="_71-3" data-name="71" transform="translate(0 17)" fill="#4f4641" font-size="16" font-family="SegoeUI, Segoe UI"><tspan x="0" y="0">71</tspan></text>
              </g>
            </g>
            <g id="Grupo_1105105-2" data-name="Grupo 1105105" transform="translate(33.157)">
              <path id="Trazado_898911-2" data-name="Trazado 898911" d="M339.069,370.491a42.32,42.32,0,0,0,27.423,9.629,47.878,47.878,0,0,0,8.2-.691c38.262-6.671,44.463-59.975,44.522-60.513a.768.768,0,0,0-.576-.828c-.134-.034-10.566-2.687-18.045-7.214.045-.105.074-.176.077-.185a.768.768,0,0,0-.451-.988.757.757,0,0,0-.923.346,19.876,19.876,0,0,1-4.1-3.514c-4.579-5.408-5.712-9.8-5.994-11.595a3,3,0,0,0,.131-.873c0-4.883-11.767-7.517-22.839-7.517s-22.839,2.636-22.839,7.517a2.988,2.988,0,0,0,.131.872c-.282,1.793-1.416,6.188-5.994,11.595a19.774,19.774,0,0,1-4.08,3.5.761.761,0,0,0-.819-.361.822.822,0,0,0-.616.94,2.257,2.257,0,0,0,.061.3c-7.475,4.507-17.851,7.147-17.987,7.18a.767.767,0,0,0-.575.836C313.815,319.269,318.184,353.471,339.069,370.491Zm27.422-82.408c11.661,0,20.028,2.72,21.16,5.374a1.564,1.564,0,0,1,.143.608,1.8,1.8,0,0,1-.389,1.049c-1.817,2.506-9.9,4.933-20.914,4.933s-19.1-2.428-20.914-4.933a1.8,1.8,0,0,1-.389-1.049,1.564,1.564,0,0,1,.143-.608C346.465,290.8,354.831,288.083,366.492,288.083Zm-27.53,19.441a27.943,27.943,0,0,0,6.018-10.8c3.374,3.17,12.662,4.855,21.512,4.855S384.629,299.9,388,296.728a27.944,27.944,0,0,0,6.018,10.8,21.769,21.769,0,0,0,4.588,3.916c-2.136,3.975-10.325,15.8-32.1,15.8-21.523,0-30.386-11.647-32.3-15.688A22.054,22.054,0,0,0,338.962,307.525ZM361.4,346.9c1.808.135,3.588.192,5.1.192s3.288-.057,5.1-.192l-5.1,11.855Zm8.234-3.455,1.63,1.949c-1.436.1-3.024.163-4.77.163s-3.333-.062-4.77-.163l1.63-1.949.147-.177,2.992-3.575,2.992,3.575ZM357.6,337.826c1.54,1.025,5.07,1.323,7.272,1.407L361.5,343.27l-.147.177-1.494,1.784c-3.671-.387-6.037-1.048-6.942-1.588a1.685,1.685,0,0,1-.276-.2c-.005-.005-.014-.01-.02-.015l.058-.065.085-.1Zm2.053,8.918,4.134,9.618-8.913-10.422A33.835,33.835,0,0,0,359.656,346.744Zm13.672,0a33.959,33.959,0,0,0,4.779-.8l-8.913,10.422Zm6.98-3.377.047.053c-.01.009-.025.018-.035.027a1.629,1.629,0,0,1-.221.164c-.888.556-3.267,1.229-6.971,1.621l-1.493-1.784-.147-.177-3.379-4.038c2.2-.085,5.732-.382,7.272-1.407l4.841,5.445Zm-5.76-6.8a1.266,1.266,0,0,1-.155.1c-.836.441-3.528,1.07-7.9,1.07s-7.063-.629-7.9-1.07a1.086,1.086,0,0,1-.155-.1,1.252,1.252,0,0,1,.154-.1c.835-.44,3.526-1.069,7.9-1.069s7.066.629,7.9,1.069A1.291,1.291,0,0,1,374.547,336.565Zm-41.635-24.2c2.312,4.72,11.288,16.131,32.811,16.4v5.108c-2.492.049-8.6.386-8.853,2.468l-5.709,6.421a.729.729,0,0,0-.052.089.8.8,0,0,0-.089.152.835.835,0,0,0-.033.158.782.782,0,0,0-.023.112c0,.008,0,.014,0,.022a.575.575,0,0,0,.008.062.761.761,0,0,0,.173.59l.057.067.419.491L365.9,361.2l0,0,0,0,.014.013c.014.016.033.027.048.042a.764.764,0,0,0,.166.117.365.365,0,0,0,.038.024s.005,0,.009.007.023,0,.035.008a.686.686,0,0,0,.539,0c.011,0,.023,0,.035-.008s.005,0,.009-.007.025-.017.038-.024a.765.765,0,0,0,.166-.117c.016-.015.034-.026.049-.042l.014-.013,0,0,0,0L381.354,344.5l.42-.491.057-.066a.757.757,0,0,0,.173-.59c0-.021.007-.041.008-.062s0-.014,0-.022a26.224,26.224,0,0,0-.053-.269.757.757,0,0,0-.121-.207c-.009-.011-.011-.024-.021-.035l-.01-.011-.038-.042-5.662-6.368c-.255-2.082-6.361-2.419-8.854-2.468v-5.109C389,328.49,397.517,316.6,399.9,312.26c6.63,4,15.238,6.485,17.7,7.147-.832,6.086-8.311,52.431-43.176,58.511a46.336,46.336,0,0,1-7.934.667,40.823,40.823,0,0,1-26.454-9.283c-18.809-15.327-23.931-45.084-24.648-49.9C317.842,318.744,326.314,316.294,332.913,312.36Z" transform="translate(-313.769 -286.547)" fill="#fff"/>
              <path id="Trazado_898912-2" data-name="Trazado 898912" d="M407.791,389.864c-.113,0-11.384-.07-16.332-6.477-2.291-2.965-3.267-6.947-3.682-9.767a.768.768,0,1,0-1.52.224c.442,3,1.493,7.254,3.988,10.482,4.675,6.05,14.019,6.926,16.779,7.053v6.694H324.44v-6.694c2.759-.126,12.105-1,16.78-7.053,2.583-3.343,3.625-7.769,4.044-10.893a.768.768,0,0,0-1.522-.206c-.394,2.939-1.364,7.086-3.736,10.158-4.942,6.395-16.221,6.477-16.333,6.477a.768.768,0,0,0-.768.768v8.208a.767.767,0,0,0,.768.768h84.119a.767.767,0,0,0,.768-.768v-8.208a.768.768,0,0,0-.768-.767Z" transform="translate(-313.008 -279.379)" fill="#fff"/>
            </g>
          </g>
        </g>
        <path id="Trazado_898947-2" data-name="Trazado 898947" d="M169.182,350.336a1.433,1.433,0,1,0,1.433,1.433A1.433,1.433,0,0,0,169.182,350.336Z" transform="translate(69.616 -228.328)" fill="#ffcf11"/>
      </g>
    </g>
    <g id="Enmascarar_grupo_1099175" data-name="Enmascarar grupo 1099175" transform="translate(-228.502 71.208) rotate(-34)" clip-path="url(#clip-path-5)">
      <g id="Grupo_1105198" data-name="Grupo 1105198" transform="translate(207.027 232.33)">
        <text id="THE_DIAMOND-4" data-name="THE DIAMOND" transform="translate(0 311.049)" fill="#4f4641" font-size="45" font-family="SegoeUI, Segoe UI"><tspan x="0" y="0">THE DIAMOND</tspan></text>
        <g id="Grupo_1105191" data-name="Grupo 1105191" transform="translate(32.257 323.089)">
          <text id="ORIGINAL_BRAND-4" data-name="ORIGINAL BRAND" transform="translate(0 19)" fill="#4f4641" font-size="18" font-family="SegoeUI, Segoe UI"><tspan x="0" y="0">ORIGINAL BRAND</tspan></text>
        </g>
        <g id="Grupo_1105196" data-name="Grupo 1105196" transform="translate(25.724 149.245)">
          <g id="Grupo_1105192" data-name="Grupo 1105192">
            <circle id="Elipse_12213" data-name="Elipse 12213" cx="26.076" cy="26.076" r="26.076" transform="translate(1.596 1.596)" fill="#fff"/>
            <path id="Trazado_899212" data-name="Trazado 899212" d="M322.261,408.18a27.673,27.673,0,1,1,27.673-27.673A27.7,27.7,0,0,1,322.261,408.18Zm0-52.153a24.48,24.48,0,1,0,24.48,24.48A24.509,24.509,0,0,0,322.261,356.028Z" transform="translate(-294.588 -352.835)" fill="#4f4641"/>
          </g>
          <g id="Grupo_1105193" data-name="Grupo 1105193" transform="translate(250.171)">
            <circle id="Elipse_12214" data-name="Elipse 12214" cx="26.076" cy="26.076" r="26.076" transform="translate(1.596 1.596)" fill="#fff"/>
            <path id="Trazado_899213" data-name="Trazado 899213" d="M433.376,408.18a27.673,27.673,0,1,1,27.673-27.673A27.7,27.7,0,0,1,433.376,408.18Zm0-52.153a24.48,24.48,0,1,0,24.48,24.48A24.509,24.509,0,0,0,433.376,356.028Z" transform="translate(-405.703 -352.835)" fill="#4f4641"/>
          </g>
          <g id="Grupo_1105194" data-name="Grupo 1105194" transform="translate(10.537 1.33)">
            <text id="_19-4" data-name="19" transform="translate(0 35)" fill="#4f4641" font-size="32" font-family="SegoeUI, Segoe UI"><tspan x="0" y="0">19</tspan></text>
          </g>
          <g id="Grupo_1105195" data-name="Grupo 1105195" transform="translate(262.681 1.33)">
            <text id="_71-4" data-name="71" transform="translate(0 35)" fill="#4f4641" font-size="32" font-family="SegoeUI, Segoe UI"><tspan x="0" y="0">71</tspan></text>
          </g>
        </g>
        <g id="Grupo_1105197" data-name="Grupo 1105197" transform="translate(68.909)">
          <path id="Trazado_899214" data-name="Trazado 899214" d="M366.35,461.006c16.292,13.277,35.467,20.011,56.993,20.011a99.5,99.5,0,0,0,17.039-1.436c79.519-13.864,92.407-124.645,92.528-125.762a1.6,1.6,0,0,0-1.2-1.72c-.279-.07-21.958-5.584-37.5-14.992.094-.218.153-.365.16-.385a1.6,1.6,0,0,0-.937-2.053,1.574,1.574,0,0,0-1.918.718,41.307,41.307,0,0,1-8.522-7.3c-9.517-11.239-11.872-20.376-12.457-24.1a6.227,6.227,0,0,0,.272-1.815c0-10.147-24.455-15.623-47.465-15.623s-47.465,5.478-47.465,15.623a6.212,6.212,0,0,0,.272,1.812c-.585,3.726-2.943,12.86-12.457,24.1a41.1,41.1,0,0,1-8.479,7.272,1.581,1.581,0,0,0-1.7-.75,1.708,1.708,0,0,0-1.281,1.954,4.685,4.685,0,0,0,.126.617c-15.535,9.366-37.1,14.853-37.381,14.923a1.594,1.594,0,0,0-1.2,1.738C313.864,354.552,322.944,425.633,366.35,461.006ZM423.341,289.74c24.235,0,41.623,5.653,43.976,11.17a3.25,3.25,0,0,1,.3,1.263,3.743,3.743,0,0,1-.808,2.179c-3.776,5.208-20.572,10.253-43.464,10.253s-39.691-5.045-43.464-10.253a3.742,3.742,0,0,1-.808-2.179,3.251,3.251,0,0,1,.3-1.263C381.721,295.393,399.106,289.74,423.341,289.74Zm-57.214,40.4c7.97-9.416,11.2-17.429,12.507-22.44,7.011,6.588,26.315,10.091,44.707,10.091s37.694-3.5,44.707-10.089c1.31,5.012,4.537,13.025,12.507,22.44a45.244,45.244,0,0,0,9.535,8.139c-4.44,8.261-21.459,32.84-66.722,32.84-44.73,0-63.151-24.205-67.127-32.6A45.833,45.833,0,0,0,366.127,330.144Zm46.626,81.836c3.758.281,7.457.4,10.591.4s6.833-.119,10.591-.4l-10.591,24.638Zm17.113-7.18,3.388,4.05c-2.985.212-6.284.338-9.913.338s-6.928-.128-9.913-.338l3.388-4.05.306-.367,6.219-7.43,6.219,7.43Zm-25-11.683c3.2,2.13,10.537,2.749,15.114,2.925l-7.022,8.391-.306.367-3.1,3.708c-7.63-.8-12.547-2.177-14.427-3.3a3.5,3.5,0,0,1-.574-.41c-.011-.011-.029-.02-.041-.031l.122-.135.176-.2Zm4.267,18.534,8.592,19.988L399.2,409.981A70.316,70.316,0,0,0,409.134,411.652Zm28.413,0a70.572,70.572,0,0,0,9.931-1.671L428.956,431.64Zm14.506-7.018.1.11c-.02.018-.052.038-.072.056a3.39,3.39,0,0,1-.459.34c-1.846,1.155-6.79,2.553-14.488,3.368l-3.1-3.708-.306-.367-7.022-8.391c4.579-.176,11.912-.795,15.114-2.925l10.062,11.316ZM440.083,390.5a2.631,2.631,0,0,1-.322.2c-1.738.916-7.333,2.224-16.418,2.224s-14.68-1.308-16.418-2.224a2.255,2.255,0,0,1-.322-.2,2.6,2.6,0,0,1,.32-.2c1.736-.914,7.329-2.222,16.42-2.222s14.684,1.308,16.42,2.222A2.676,2.676,0,0,1,440.083,390.5Zm-86.528-50.3c4.8,9.81,23.46,33.524,68.19,34.094V384.9c-5.178.1-17.87.8-18.4,5.129l-11.865,13.344a1.516,1.516,0,0,0-.108.185,1.652,1.652,0,0,0-.185.315,1.738,1.738,0,0,0-.068.329,1.623,1.623,0,0,0-.047.232c0,.016.009.029.009.045a1.178,1.178,0,0,0,.016.128,1.581,1.581,0,0,0,.36,1.227l.119.14.871,1.02,29.67,34.693.007.009.009.007a.354.354,0,0,1,.029.027c.029.034.068.056.1.088a1.587,1.587,0,0,0,.344.243.757.757,0,0,0,.079.05c.007,0,.011.009.018.014.023.009.047.007.072.016a1.426,1.426,0,0,0,1.121,0c.023-.009.047,0,.072-.016.007,0,.011-.009.018-.014.029-.014.052-.036.079-.05a1.59,1.59,0,0,0,.344-.243c.034-.031.07-.054.1-.088a.337.337,0,0,1,.029-.027l.009-.007.009-.009L454.229,407l.874-1.02.119-.137a1.572,1.572,0,0,0,.36-1.227c0-.043.013-.086.016-.128,0-.016.009-.029.009-.045a53.652,53.652,0,0,0-.11-.558,1.573,1.573,0,0,0-.252-.43c-.018-.023-.023-.049-.043-.072l-.02-.023-.079-.088-11.766-13.234c-.529-4.327-13.221-5.028-18.4-5.129V374.286c45.178-.57,62.885-25.277,67.841-34.3,13.779,8.31,31.669,13.477,36.784,14.853-1.729,12.649-17.273,108.966-89.732,121.6a96.3,96.3,0,0,1-16.49,1.387c-20.772,0-39.268-6.491-54.979-19.293-39.09-31.854-49.735-93.7-51.225-103.7C322.235,353.46,339.841,348.37,353.555,340.192Z" transform="translate(-313.769 -286.547)" fill="#fff"/>
          <path id="Trazado_899215" data-name="Trazado 899215" d="M499.322,408.521c-.234,0-23.658-.146-33.943-13.461-4.762-6.162-6.79-14.439-7.653-20.3a1.6,1.6,0,1,0-3.159.466c.919,6.237,3.1,15.076,8.288,21.785,9.715,12.574,29.136,14.394,34.871,14.657V425.58H326.1V411.669c5.734-.261,25.158-2.083,34.873-14.657,5.367-6.948,7.533-16.145,8.4-22.638a1.6,1.6,0,0,0-3.163-.428c-.82,6.108-2.835,14.727-7.765,21.112-10.271,13.29-33.711,13.462-33.945,13.462a1.6,1.6,0,0,0-1.6,1.6v17.059a1.6,1.6,0,0,0,1.6,1.6H499.322a1.6,1.6,0,0,0,1.6-1.6V410.115a1.6,1.6,0,0,0-1.6-1.594Z" transform="translate(-302.336 -178.904)" fill="#fff"/>
        </g>
      </g>
    </g>
    <g id="Grupo_1105199" data-name="Grupo 1105199" transform="matrix(0.875, -0.485, 0.485, 0.875, 1371.043, 145.683)">
      <path id="Trazado_898859-2" data-name="Trazado 898859" d="M149.586,66.7a.9.9,0,0,0-.9.9V70.58H145.71a.9.9,0,1,0,0,1.8h2.977v2.977a.9.9,0,1,0,1.8,0V72.379h2.977a.9.9,0,0,0,0-1.8h-2.977V67.6A.9.9,0,0,0,149.586,66.7Z" transform="translate(7.549)" fill="#fff"/>
      <path id="Trazado_898860-2" data-name="Trazado 898860" d="M121.193,108.356a.9.9,0,0,0,.9-.9v-2.6h2.6a.9.9,0,0,0,0-1.8h-2.6v-2.6a.9.9,0,0,0-1.8,0v2.6h-2.6a.9.9,0,1,0,0,1.8h2.6v2.6A.9.9,0,0,0,121.193,108.356Z" transform="translate(0 8.852)" fill="#fff"/>
      <path id="Trazado_898861-2" data-name="Trazado 898861" d="M168.628,108.356a.9.9,0,0,0,.9-.9v-2.6h2.6a.9.9,0,0,0,0-1.8h-2.6v-2.6a.9.9,0,0,0-1.8,0v2.6h-2.6a.9.9,0,1,0,0,1.8h2.6v2.6A.9.9,0,0,0,168.628,108.356Z" transform="translate(12.781 8.852)" fill="#fff"/>
      <circle id="Elipse_12163-2" data-name="Elipse 12163" cx="2.737" cy="2.737" r="2.737" transform="translate(148.342 148.095)" fill="#fff"/>
      <circle id="Elipse_12164-2" data-name="Elipse 12164" cx="1.955" cy="1.955" r="1.955" transform="translate(175.055 85.446)" fill="#fff"/>
      <path id="Trazado_898862-2" data-name="Trazado 898862" d="M127.76,78.642a2.1,2.1,0,1,0,2.1,2.1A2.1,2.1,0,0,0,127.76,78.642Z" transform="translate(2.388 3.217)" fill="#fff"/>
      <path id="Trazado_898863-2" data-name="Trazado 898863" d="M133.657,94.265l-.008.01a.892.892,0,0,0-.11.259c-.006.023-.023.041-.028.065a.567.567,0,0,0,0,.066c0,.029-.018.055-.018.084v25.293a.613.613,0,0,0,.018.084.906.906,0,0,0,.038.185.806.806,0,0,0,.169.3.948.948,0,0,0,.055.079L147,133.254c.022.02.048.027.07.044s.033.039.055.055a.475.475,0,0,0,.052.024.6.6,0,0,0,.065.03c.028.013.053.028.081.038a.885.885,0,0,0,.3.056h0a.883.883,0,0,0,.294-.056.691.691,0,0,0,.083-.038.6.6,0,0,0,.065-.03c.017-.01.036-.014.052-.024s.034-.038.055-.055.049-.025.07-.044l13.226-12.562c.023-.023.033-.053.055-.077a.95.95,0,0,0,.11-.157.878.878,0,0,0,.061-.147.918.918,0,0,0,.038-.187c0-.029.018-.055.018-.084V94.748c0-.029-.015-.055-.018-.084s0-.043,0-.066a.588.588,0,0,0-.028-.065.89.89,0,0,0-.11-.259l-.006-.009a.858.858,0,0,0-.136-.187L148.217,82.214c-.009-.008-.022-.01-.03-.019a.709.709,0,0,0-.081-.056c-.015-.01-.024-.027-.042-.036s-.043-.011-.065-.022a.859.859,0,0,0-.11-.048.724.724,0,0,0-.1-.023.866.866,0,0,0-.113-.017.819.819,0,0,0-.112,0,.865.865,0,0,0-.113.017.581.581,0,0,0-.215.071c-.02.01-.044.01-.065.022s-.025.027-.042.037a.691.691,0,0,0-.08.056c-.01.008-.022.01-.032.019L133.789,94.081A1.031,1.031,0,0,0,133.657,94.265Zm5.57,2.422v23.426l-3.934-.8V95.882Zm8.392-11.995,5.941,10.362H141.68Zm12.326,11.19v23.426l-3.935.8V96.687Zm-12.326,35.086-5.824-8.853h11.648Zm6.593-34.116v23.463H141.026V96.852Zm-16.923,24.7,2.29.468,2.992,4.548Zm15.375,5.018,2.992-4.55,2.29-.468Zm6.277-32.32-3.374.691-4.388-7.655Zm-14.885-6.964-4.388,7.655-3.374-.691Z" transform="translate(4.499 4.119)" fill="#fff"/>
    </g>
    <path id="Trazado_899216" data-name="Trazado 899216" d="M340.012,95.944l18.151,27.8a.71.71,0,0,0,1.188,0l18.152-27.8a.712.712,0,0,0,0-.775l-18.152-27.8a.738.738,0,0,0-1.188,0l-18.151,27.8A.708.708,0,0,0,340.012,95.944Zm7.736.321,10.3,15.774v8.933L341.915,96.264h5.833Zm1.23-.708,9.778-14.975,9.778,14.975-9.778,14.976Zm10.488,25.416V112.04l10.3-15.774H375.6Zm10.3-26.125-10.3-15.774V70.141L375.6,94.848ZM358.048,70.141v8.933l-10.3,15.774h-5.833Z" transform="matrix(0.985, -0.174, 0.174, 0.985, -329.923, 143.46)" fill="#ffcf11"/>
    <path id="Trazado_899217" data-name="Trazado 899217" d="M340.067,109.73,366.885,150.8a1.049,1.049,0,0,0,1.755,0l26.819-41.071a1.051,1.051,0,0,0,0-1.145L368.64,67.515a1.09,1.09,0,0,0-1.755,0l-26.818,41.07A1.046,1.046,0,0,0,340.067,109.73Zm11.43.474,15.218,23.306v13.2L342.879,110.2H351.5Zm1.817-1.046,14.447-22.125,14.447,22.125-14.447,22.127Zm15.5,37.552v-13.2l15.218-23.306h8.62Zm15.218-38.6L368.81,84.8v-13.2l23.838,36.5Zm-17.313-36.5V84.8L351.5,108.111h-8.618Z" transform="translate(336.805 -16.063) rotate(11)" fill="#ffcf11"/>
  </g>
</svg>
