<svg xmlns="http://www.w3.org/2000/svg" xmlns:xlink="http://www.w3.org/1999/xlink" width="330.656" height="287.733" viewBox="0 0 330.656 287.733">
  <defs>
    <clipPath id="clip-path">
      <rect id="Rect치ngulo_404898" data-name="Rect치ngulo 404898" width="330.656" height="287.733" fill="none"/>
    </clipPath>
    <clipPath id="clip-path-2">
      <rect id="Rect치ngulo_404899" data-name="Rect치ngulo 404899" width="330.656" height="287.733" fill="#12263f"/>
    </clipPath>
  </defs>
  <g id="Grupo_1110759" data-name="Grupo 1110759" transform="translate(-220.576 -490.472)">
    <g id="Grupo_1110666" data-name="Grupo 1110666" transform="translate(220.576 490.472)">
      <g id="Grupo_1110665" data-name="Grupo 1110665" clip-path="url(#clip-path)">
        <path id="Trazado_900386" data-name="Trazado 900386" d="M132.987,303.961q-2.271-1.091-4.484-2.266" transform="translate(-20.932 -49.143)" fill="none" stroke="#1c2141" stroke-miterlimit="10" stroke-width="2"/>
        <path id="Trazado_900387" data-name="Trazado 900387" d="M107.156,253.326c-33.27-21.333-54.5-57.357-55.555-96.468C50.116,101.8,88.886,50.744,144.242,38.919,196.056,27.85,248.677,54.086,272.6,99.563c18.239,34.673,17.614,76.385-.707,111.28" transform="translate(-8.399 -5.928)" fill="none" stroke="#12263f" stroke-miterlimit="10" stroke-width="2" stroke-dasharray="12.198 12.198"/>
        <path id="Trazado_900388" data-name="Trazado 900388" d="M311.309,250.134q-1.256,2.169-2.6,4.3" transform="translate(-50.285 -40.744)" fill="none" stroke="#1c2141" stroke-miterlimit="10" stroke-width="2"/>
        <path id="Trazado_900389" data-name="Trazado 900389" d="M141.77,306.646c-3.636-3.535-7.815-8.672-9.871-13.066l-.583,8.446-5.852,6.118c4.633-1.438,11.246-1.807,16.307-1.5" transform="translate(-20.437 -47.821)" fill="#1c2141"/>
        <path id="Trazado_900390" data-name="Trazado 900390" d="M301.832,262.015c1.213-4.924,2.039-11.5,1.457-16.311l4.967,6.858,8.2,2.092c-4.692,1.232-10.5,4.42-14.628,7.362" transform="translate(-49.165 -40.023)" fill="#1c2141"/>
      </g>
    </g>
    <path id="Trazado_900649" data-name="Trazado 900649" d="M12.551-3.955H5.616L4.3,0H.092L7.238-19.2H10.9L18.088,0H13.882Zm-5.867-3.2h4.8L9.07-14.344Z" transform="matrix(0.853, -0.522, 0.522, 0.853, 302.885, 537.285)" fill="#12263f"/>
    <path id="Trazado_900650" data-name="Trazado 900650" d="M5.459-3.06h8.087V0H1.65V-18.484H5.459Z" transform="translate(317.467 527.283) rotate(-24.743)" fill="#12263f"/>
    <path id="Trazado_900651" data-name="Trazado 900651" d="M13.263-8.319H5.669v5.142h8.912V0H1.714V-19.2H14.555v3.2H5.669v4.575h7.594Z" transform="matrix(0.948, -0.318, 0.318, 0.948, 330.669, 522.258)" fill="#12263f"/>
    <g id="Grupo_1110668" data-name="Grupo 1110668" transform="translate(220.576 490.472)">
      <g id="Grupo_1110667" data-name="Grupo 1110667" clip-path="url(#clip-path-2)">
        <text id="A" transform="matrix(0.981, -0.195, 0.195, 0.981, 123.88, 26.964)" fill="#12263f" font-size="27" font-family="Roboto-Bold, Roboto" font-weight="700"><tspan x="0" y="0">A</tspan></text>
        <text id="C" transform="translate(140.988 22.467) rotate(-4.241)" fill="#12263f" font-size="26" font-family="Roboto-Bold, Roboto" font-weight="700"><tspan x="0" y="0">C</tspan></text>
        <text id="I" transform="translate(158.221 20.403) rotate(1.047)" fill="#12263f" font-size="25" font-family="Roboto-Bold, Roboto" font-weight="700"><tspan x="0" y="0">I</tspan></text>
        <text id="O" transform="matrix(0.994, 0.113, -0.113, 0.994, 165.726, 21.273)" fill="#12263f" font-size="26" font-family="Roboto-Bold, Roboto" font-weight="700"><tspan x="0" y="0">O</tspan></text>
        <text id="N" transform="translate(183.488 24.256) rotate(14.156)" fill="#12263f" font-size="27" font-family="Roboto-Bold, Roboto" font-weight="700"><tspan x="0" y="0">N</tspan></text>
      </g>
    </g>
    <path id="Trazado_900652" data-name="Trazado 900652" d="M13.263-8.319H5.669v5.142h8.912V0H1.714V-19.2H14.555v3.2H5.669v4.575h7.594Z" transform="translate(421.937 519.328) rotate(21.025)" fill="#12263f"/>
    <path id="Trazado_900653" data-name="Trazado 900653" d="M11.235-4.85a1.954,1.954,0,0,0-.762-1.657A9.991,9.991,0,0,0,7.731-7.725,19.439,19.439,0,0,1,4.6-8.988q-3.148-1.7-3.148-4.583a4.464,4.464,0,0,1,.844-2.672,5.507,5.507,0,0,1,2.425-1.834,9.127,9.127,0,0,1,3.548-.66,8.307,8.307,0,0,1,3.529.717A5.62,5.62,0,0,1,14.2-16a5.3,5.3,0,0,1,.857,2.971H11.248a2.493,2.493,0,0,0-.8-1.974A3.288,3.288,0,0,0,8.2-15.7a3.513,3.513,0,0,0-2.171.59,1.862,1.862,0,0,0-.774,1.555,1.783,1.783,0,0,0,.908,1.511,10.255,10.255,0,0,0,2.672,1.143A11.547,11.547,0,0,1,13.571-8.48a4.829,4.829,0,0,1,1.485,3.605,4.448,4.448,0,0,1-1.815,3.764A7.948,7.948,0,0,1,8.354.254,9.438,9.438,0,0,1,4.469-.527,6.147,6.147,0,0,1,1.8-2.666a5.478,5.478,0,0,1-.92-3.148H4.7q0,3.06,3.656,3.06a3.557,3.557,0,0,0,2.12-.552A1.8,1.8,0,0,0,11.235-4.85Z" transform="matrix(0.888, 0.459, -0.459, 0.888, 436.079, 523.633)" fill="#12263f"/>
    <g id="Grupo_1110670" data-name="Grupo 1110670" transform="translate(220.576 490.472)">
      <g id="Grupo_1110669" data-name="Grupo 1110669" clip-path="url(#clip-path)">
        <path id="Trazado_900391" data-name="Trazado 900391" d="M83.992,54.077a119.851,119.851,0,0,0-27.9,32A118.564,118.564,0,0,0,49.411,99" transform="translate(-8.049 -8.809)" fill="none" stroke="#12172c" stroke-miterlimit="10" stroke-width="3"/>
        <path id="Trazado_900392" data-name="Trazado 900392" d="M42.471,120.017c.045-7.607-1.051-17.48-3.585-24.3l9.645,8.263,12.7.179c-6.412,3.441-13.763,10.122-18.757,15.859" transform="translate(-6.334 -15.591)" fill="#12263f"/>
        <path id="Trazado_900393" data-name="Trazado 900393" d="M279.588,40.622a133.1,133.1,0,0,1,34.7,32,112.215,112.215,0,0,1,8.536,13.357" transform="translate(-45.542 -6.617)" fill="none" stroke="#12263f" stroke-miterlimit="10" stroke-width="3"/>
        <path id="Trazado_900394" data-name="Trazado 900394" d="M334.849,106.524c-5.413-5.344-13.246-11.455-19.9-14.4l12.65-1.133,9-8.963c-2.016,6.992-2.367,16.92-1.748,24.5" transform="translate(-51.302 -13.361)" fill="#12263f"/>
        <path id="Trazado_900395" data-name="Trazado 900395" d="M353.109,119.027H306l-23.555,40.8L306,200.623h47.109l23.555-40.8Z" transform="translate(-46.007 -19.388)" fill="#a50417"/>
        <path id="Trazado_900396" data-name="Trazado 900396" d="M70.664,136.81H23.555L0,177.609l23.555,40.8H70.664l23.555-40.8Z" transform="translate(0 -22.285)" fill="#a50417"/>
      </g>
    </g>
    <path id="Trazado_900654" data-name="Trazado 900654" d="M3.059,4.469,5.25,10.656,7.43,4.469H9.738V13H7.975V10.668L8.15,6.643,5.848,13H4.641l-2.3-6.352.176,4.02V13H.762V4.469ZM14.08,13.117a3.112,3.112,0,0,1-2.271-.855,3.041,3.041,0,0,1-.876-2.279V9.818A3.83,3.83,0,0,1,11.3,8.11a2.709,2.709,0,0,1,1.046-1.16,2.936,2.936,0,0,1,1.544-.407,2.631,2.631,0,0,1,2.048.82,3.333,3.333,0,0,1,.747,2.326v.691H12.65a1.573,1.573,0,0,0,.5,1,1.5,1.5,0,0,0,1.046.375,1.828,1.828,0,0,0,1.529-.709l.832.932a2.542,2.542,0,0,1-1.031.841A3.383,3.383,0,0,1,14.08,13.117Zm-.193-5.209a1.058,1.058,0,0,0-.817.341,1.768,1.768,0,0,0-.4.977h2.355V9.091a1.261,1.261,0,0,0-.3-.874A1.092,1.092,0,0,0,13.887,7.908ZM19.676,5.1V6.66H20.76V7.9H19.676v3.164a.756.756,0,0,0,.135.5.677.677,0,0,0,.516.152,2.7,2.7,0,0,0,.5-.041v1.283a3.486,3.486,0,0,1-1.025.152,1.617,1.617,0,0,1-1.816-1.8V7.9h-.926V6.66h.926V5.1Zm5.7,7.9a1.88,1.88,0,0,1-.17-.568,2.049,2.049,0,0,1-1.6.686,2.251,2.251,0,0,1-1.544-.539,1.734,1.734,0,0,1-.612-1.359A1.792,1.792,0,0,1,22.2,9.672a3.686,3.686,0,0,1,2.159-.545h.779V8.764a1.045,1.045,0,0,0-.226-.7A.887.887,0,0,0,24.2,7.8,1.009,1.009,0,0,0,23.528,8a.7.7,0,0,0-.243.563H21.592a1.7,1.7,0,0,1,.34-1.02,2.246,2.246,0,0,1,.961-.735,3.5,3.5,0,0,1,1.395-.267,2.767,2.767,0,0,1,1.86.589,2.06,2.06,0,0,1,.688,1.655v2.748a3.031,3.031,0,0,0,.252,1.365V13Zm-1.4-1.178a1.458,1.458,0,0,0,.691-.167,1.1,1.1,0,0,0,.469-.448v-1.09H24.5q-1.271,0-1.354.879l-.006.1a.678.678,0,0,0,.223.521A.865.865,0,0,0,23.977,11.822ZM29.924,13h-1.7V4h1.7ZM7.7,25H5.941L2.52,19.387V25H.762V16.469H2.52l3.428,5.625V16.469H7.7Zm1.16-3.229a3.76,3.76,0,0,1,.363-1.682,2.659,2.659,0,0,1,1.046-1.143,3.051,3.051,0,0,1,1.585-.4,2.887,2.887,0,0,1,2.095.785,3.151,3.151,0,0,1,.905,2.133l.012.434a3.314,3.314,0,0,1-.814,2.341,2.831,2.831,0,0,1-2.186.882,2.845,2.845,0,0,1-2.188-.879,3.372,3.372,0,0,1-.817-2.391Zm1.693.12a2.37,2.37,0,0,0,.34,1.382,1.221,1.221,0,0,0,1.934.006,2.593,2.593,0,0,0,.346-1.511,2.346,2.346,0,0,0-.346-1.373,1.124,1.124,0,0,0-.973-.487,1.105,1.105,0,0,0-.961.484A2.637,2.637,0,0,0,10.553,21.892Zm11.068,0a3.839,3.839,0,0,1-.65,2.376,2.154,2.154,0,0,1-1.816.853,1.979,1.979,0,0,1-1.646-.791L17.432,25H15.908V16H17.6v3.229a1.929,1.929,0,0,1,1.541-.686,2.172,2.172,0,0,1,1.819.853,3.845,3.845,0,0,1,.659,2.4Zm-1.693-.123a2.522,2.522,0,0,0-.3-1.4,1.03,1.03,0,0,0-.908-.442,1.117,1.117,0,0,0-1.113.662v2.5a1.132,1.132,0,0,0,1.125.668,1.045,1.045,0,0,0,1.078-.809A4.171,4.171,0,0,0,19.928,21.766ZM24.451,25h-1.7V16h1.7Zm4.313.117a3.112,3.112,0,0,1-2.271-.855,3.041,3.041,0,0,1-.876-2.279v-.164a3.83,3.83,0,0,1,.369-1.708,2.709,2.709,0,0,1,1.046-1.16,2.936,2.936,0,0,1,1.544-.407,2.631,2.631,0,0,1,2.048.82,3.333,3.333,0,0,1,.747,2.326v.691H27.334a1.573,1.573,0,0,0,.5,1,1.5,1.5,0,0,0,1.046.375,1.828,1.828,0,0,0,1.529-.709l.832.932a2.542,2.542,0,0,1-1.031.841A3.383,3.383,0,0,1,28.764,25.117Zm-.193-5.209a1.058,1.058,0,0,0-.817.341,1.768,1.768,0,0,0-.4.977h2.355v-.135a1.261,1.261,0,0,0-.3-.874A1.092,1.092,0,0,0,28.57,19.908ZM7.459,46.158a3.019,3.019,0,0,1-1.017,2.168,3.57,3.57,0,0,1-2.417.791,3.21,3.21,0,0,1-2.581-1.1A4.529,4.529,0,0,1,.5,44.98v-.521a5.114,5.114,0,0,1,.434-2.168,3.249,3.249,0,0,1,1.239-1.438,3.471,3.471,0,0,1,1.872-.5,3.478,3.478,0,0,1,2.379.791,3.244,3.244,0,0,1,1.043,2.221H5.713a1.782,1.782,0,0,0-.46-1.2,1.7,1.7,0,0,0-1.2-.372,1.494,1.494,0,0,0-1.315.63,3.53,3.53,0,0,0-.448,1.954v.645A3.778,3.778,0,0,0,2.7,47.043a1.466,1.466,0,0,0,1.321.639,1.735,1.735,0,0,0,1.216-.372,1.681,1.681,0,0,0,.46-1.151Zm.779-.387A3.76,3.76,0,0,1,8.6,44.09a2.659,2.659,0,0,1,1.046-1.143,3.051,3.051,0,0,1,1.585-.4,2.887,2.887,0,0,1,2.095.785,3.151,3.151,0,0,1,.905,2.133l.012.434a3.314,3.314,0,0,1-.814,2.341,2.831,2.831,0,0,1-2.186.882,2.845,2.845,0,0,1-2.188-.879,3.372,3.372,0,0,1-.817-2.391Zm1.693.12a2.37,2.37,0,0,0,.34,1.382,1.221,1.221,0,0,0,1.934.006,2.593,2.593,0,0,0,.346-1.511,2.346,2.346,0,0,0-.346-1.373,1.124,1.124,0,0,0-.973-.487,1.105,1.105,0,0,0-.961.484A2.637,2.637,0,0,0,9.932,45.892ZM17.074,49h-1.7V40h1.7Zm1.131-3.229a3.76,3.76,0,0,1,.363-1.682,2.659,2.659,0,0,1,1.046-1.143,3.051,3.051,0,0,1,1.585-.4,2.887,2.887,0,0,1,2.095.785,3.151,3.151,0,0,1,.905,2.133l.012.434a3.314,3.314,0,0,1-.814,2.341,2.831,2.831,0,0,1-2.186.882,2.845,2.845,0,0,1-2.188-.879,3.372,3.372,0,0,1-.817-2.391Zm1.693.12a2.37,2.37,0,0,0,.34,1.382,1.221,1.221,0,0,0,1.934.006,2.593,2.593,0,0,0,.346-1.511,2.346,2.346,0,0,0-.346-1.373,1.124,1.124,0,0,0-.973-.487,1.105,1.105,0,0,0-.961.484A2.637,2.637,0,0,0,19.9,45.892Zm8.918-1.644a4.6,4.6,0,0,0-.609-.047,1.24,1.24,0,0,0-1.26.65V49H25.254V42.66h1.6l.047.756a1.569,1.569,0,0,1,1.412-.873,1.774,1.774,0,0,1,.527.076ZM36.293,49a1.88,1.88,0,0,1-.17-.568,2.049,2.049,0,0,1-1.6.686,2.251,2.251,0,0,1-1.544-.539,1.734,1.734,0,0,1-.612-1.359,1.792,1.792,0,0,1,.747-1.547,3.686,3.686,0,0,1,2.159-.545h.779v-.363a1.045,1.045,0,0,0-.226-.7.887.887,0,0,0-.712-.264,1.009,1.009,0,0,0-.671.205.7.7,0,0,0-.243.563H32.508a1.7,1.7,0,0,1,.34-1.02,2.246,2.246,0,0,1,.961-.735,3.5,3.5,0,0,1,1.395-.267,2.767,2.767,0,0,1,1.86.589,2.06,2.06,0,0,1,.688,1.655v2.748A3.031,3.031,0,0,0,38,48.9V49Zm-1.4-1.178a1.458,1.458,0,0,0,.691-.167,1.1,1.1,0,0,0,.469-.448v-1.09H35.42q-1.271,0-1.354.879l-.006.1a.678.678,0,0,0,.223.521A.865.865,0,0,0,34.893,47.822ZM40.84,49h-1.7V40h1.7Zm-38.6,5.66.053.709a2.228,2.228,0,0,1,1.822-.826,1.691,1.691,0,0,1,1.682.967,2.177,2.177,0,0,1,1.9-.967,1.891,1.891,0,0,1,1.535.6,2.761,2.761,0,0,1,.5,1.808V61h-1.7V56.957a1.207,1.207,0,0,0-.211-.788.935.935,0,0,0-.744-.249,1.057,1.057,0,0,0-1.055.727L6.035,61H4.342V56.963a1.193,1.193,0,0,0-.217-.8.944.944,0,0,0-.738-.246,1.1,1.1,0,0,0-1.043.6V61H.65V54.66Zm11.719,6.457a3.112,3.112,0,0,1-2.271-.855,3.041,3.041,0,0,1-.876-2.279v-.164a3.83,3.83,0,0,1,.369-1.708,2.709,2.709,0,0,1,1.046-1.16,2.936,2.936,0,0,1,1.544-.407,2.631,2.631,0,0,1,2.048.82,3.333,3.333,0,0,1,.747,2.326v.691H12.527a1.573,1.573,0,0,0,.5,1,1.5,1.5,0,0,0,1.046.375,1.828,1.828,0,0,0,1.529-.709l.832.932a2.542,2.542,0,0,1-1.031.841A3.383,3.383,0,0,1,13.957,61.117Zm-.193-5.209a1.058,1.058,0,0,0-.817.341,1.768,1.768,0,0,0-.4.977H14.9v-.135a1.261,1.261,0,0,0-.3-.874A1.092,1.092,0,0,0,13.764,55.908ZM19.553,53.1V54.66h1.084V55.9H19.553v3.164a.756.756,0,0,0,.135.5.677.677,0,0,0,.516.152,2.7,2.7,0,0,0,.5-.041v1.283a3.486,3.486,0,0,1-1.025.152,1.617,1.617,0,0,1-1.816-1.8V55.9h-.926V54.66h.926V53.1Zm5.7,7.9a1.88,1.88,0,0,1-.17-.568,2.049,2.049,0,0,1-1.6.686,2.251,2.251,0,0,1-1.544-.539,1.734,1.734,0,0,1-.612-1.359,1.792,1.792,0,0,1,.747-1.547,3.686,3.686,0,0,1,2.159-.545h.779v-.363a1.045,1.045,0,0,0-.226-.7.887.887,0,0,0-.712-.264,1.009,1.009,0,0,0-.671.205.7.7,0,0,0-.243.563H21.469a1.7,1.7,0,0,1,.34-1.02,2.246,2.246,0,0,1,.961-.735,3.5,3.5,0,0,1,1.395-.267,2.767,2.767,0,0,1,1.86.589,2.06,2.06,0,0,1,.688,1.655v2.748a3.031,3.031,0,0,0,.252,1.365V61Zm-1.4-1.178a1.458,1.458,0,0,0,.691-.167,1.1,1.1,0,0,0,.469-.448v-1.09h-.633q-1.271,0-1.354.879l-.006.1a.678.678,0,0,0,.223.521A.865.865,0,0,0,23.854,59.822ZM29.8,61H28.1V52h1.7Z" transform="translate(250.232 615.481)" fill="#fafafa"/>
    <path id="Trazado_900656" data-name="Trazado 900656" d="M5.84,14.662a8.817,8.817,0,0,1-3.511-1.7,3.256,3.256,0,0,1-1.1-2.5A3.439,3.439,0,0,1,2.573,7.685a5.337,5.337,0,0,1,3.491-1.1,5.825,5.825,0,0,1,2.612.566,4.3,4.3,0,0,1,1.777,1.563,4,4,0,0,1,.63,2.178H9.2a2.6,2.6,0,0,0-.82-2.034,3.336,3.336,0,0,0-2.314-.74A3.415,3.415,0,0,0,3.9,8.731a2.04,2.04,0,0,0-.776,1.7A1.835,1.835,0,0,0,3.862,11.9,7.232,7.232,0,0,0,6.372,13a11.645,11.645,0,0,1,2.773,1.1,4.209,4.209,0,0,1,1.484,1.4,3.577,3.577,0,0,1,.483,1.885,3.322,3.322,0,0,1-1.348,2.769,5.746,5.746,0,0,1-3.6,1.04,6.683,6.683,0,0,1-2.734-.562A4.6,4.6,0,0,1,1.47,19.1a3.754,3.754,0,0,1-.688-2.217H2.666a2.449,2.449,0,0,0,.952,2.036,4.009,4.009,0,0,0,2.544.747,3.685,3.685,0,0,0,2.275-.605,1.967,1.967,0,0,0,.791-1.65A1.931,1.931,0,0,0,8.5,15.79,8.444,8.444,0,0,0,5.84,14.662Zm18.613-.312A8.8,8.8,0,0,1,23.75,18a5.326,5.326,0,0,1-1.992,2.378,5.481,5.481,0,0,1-3.008.82,5.3,5.3,0,0,1-5-3.179,8.439,8.439,0,0,1-.737-3.54V13.451a8.691,8.691,0,0,1,.713-3.623,5.272,5.272,0,0,1,5-3.242,5.512,5.512,0,0,1,3.013.825A5.316,5.316,0,0,1,23.75,9.8a8.838,8.838,0,0,1,.7,3.647Zm-1.865-.918A6.375,6.375,0,0,0,21.572,9.55,3.35,3.35,0,0,0,18.73,8.2a3.314,3.314,0,0,0-2.8,1.353,6.245,6.245,0,0,0-1.05,3.755V14.35a6.384,6.384,0,0,0,1.03,3.853,3.328,3.328,0,0,0,2.837,1.4,3.314,3.314,0,0,0,2.813-1.323,6.348,6.348,0,0,0,1.025-3.794Zm6.563,6.035h6.738V21H27.266V6.781H29.15ZM38.027,21V6.781h4.014a6.461,6.461,0,0,1,3.281.82,5.548,5.548,0,0,1,2.2,2.334,7.6,7.6,0,0,1,.786,3.477v.908a7.624,7.624,0,0,1-.776,3.525,5.461,5.461,0,0,1-2.217,2.324,6.873,6.873,0,0,1-3.354.83ZM39.9,8.314V19.467h1.973a4.292,4.292,0,0,0,3.374-1.349,5.573,5.573,0,0,0,1.206-3.841v-.831a5.661,5.661,0,0,0-1.138-3.768A4.049,4.049,0,0,0,42.09,8.314Zm19.092,8.965H53.037L51.7,21H49.766L55.2,6.781h1.641L62.275,21H60.352ZM53.6,15.746h4.834L56.016,9.1ZM64.189,21V6.781H68.2a6.461,6.461,0,0,1,3.281.82,5.548,5.548,0,0,1,2.2,2.334,7.6,7.6,0,0,1,.786,3.477v.908a7.624,7.624,0,0,1-.776,3.525,5.461,5.461,0,0,1-2.217,2.324,6.873,6.873,0,0,1-3.354.83ZM66.064,8.314V19.467h1.973a4.292,4.292,0,0,0,3.374-1.349,5.573,5.573,0,0,0,1.206-3.841v-.831a5.661,5.661,0,0,0-1.138-3.768,4.049,4.049,0,0,0-3.228-1.364Zm21.25-1.533v9.668A4.535,4.535,0,0,1,86.05,19.74a5.1,5.1,0,0,1-3.4,1.436l-.5.02a5.322,5.322,0,0,1-3.721-1.26,4.505,4.505,0,0,1-1.406-3.467V6.781h1.855V16.41a3.252,3.252,0,0,0,.85,2.4,3.889,3.889,0,0,0,4.858,0,3.246,3.246,0,0,0,.845-2.393V6.781Zm8.174,8.467h-3.34V21H90.264V6.781h4.707a5.571,5.571,0,0,1,3.7,1.094,3.935,3.935,0,0,1,1.294,3.184,3.828,3.828,0,0,1-.718,2.314,4.285,4.285,0,0,1-2,1.475l3.34,6.035V21H98.574Zm-3.34-1.533h2.881a3.249,3.249,0,0,0,2.222-.724,2.448,2.448,0,0,0,.825-1.937,2.578,2.578,0,0,0-.786-2.025,3.329,3.329,0,0,0-2.271-.714H92.148Zm18.291,3.564h-5.957L103.145,21h-1.934l5.43-14.219h1.641L113.721,21H111.8Zm-5.391-1.533h4.834L107.461,9.1ZM9.492,40.721H3.525V47H1.65V32.781h8.809v1.533H3.525v4.873H9.492Zm13.223-7.939v9.668A4.535,4.535,0,0,1,21.45,45.74a5.1,5.1,0,0,1-3.4,1.436l-.5.02a5.322,5.322,0,0,1-3.721-1.26,4.505,4.505,0,0,1-1.406-3.467V32.781h1.855V42.41a3.252,3.252,0,0,0,.85,2.4,3.265,3.265,0,0,0,2.422.854,3.287,3.287,0,0,0,2.437-.85,3.246,3.246,0,0,0,.845-2.393V32.781ZM36.6,47H34.717L27.559,36.043V47H25.674V32.781h1.885l7.178,11.006V32.781H36.6Zm3.33,0V32.781h4.014a6.461,6.461,0,0,1,3.281.82,5.548,5.548,0,0,1,2.2,2.334,7.6,7.6,0,0,1,.786,3.477v.908a7.624,7.624,0,0,1-.776,3.525,5.461,5.461,0,0,1-2.217,2.324,6.873,6.873,0,0,1-3.354.83Zm1.875-12.686V45.467h1.973a4.292,4.292,0,0,0,3.374-1.349,5.573,5.573,0,0,0,1.206-3.841v-.831a5.661,5.661,0,0,0-1.138-3.768,4.049,4.049,0,0,0-3.228-1.364ZM55.059,47H53.184V32.781h1.875Zm13.887-4.512A5.231,5.231,0,0,1,67.28,45.97,5.457,5.457,0,0,1,63.555,47.2a5.01,5.01,0,0,1-4.038-1.807A7.268,7.268,0,0,1,58,40.555V39.188a8.1,8.1,0,0,1,.708-3.486,5.288,5.288,0,0,1,2.007-2.31,5.588,5.588,0,0,1,3.008-.806,5.138,5.138,0,0,1,3.633,1.265,5.294,5.294,0,0,1,1.592,3.5H67.061A4.085,4.085,0,0,0,66,34.883a3.206,3.206,0,0,0-2.28-.764A3.355,3.355,0,0,0,60.9,35.448a6.1,6.1,0,0,0-1.021,3.782v1.378a6.273,6.273,0,0,0,.967,3.685,3.124,3.124,0,0,0,2.705,1.368,3.608,3.608,0,0,0,2.4-.708,3.929,3.929,0,0,0,1.108-2.466ZM73.516,47H71.641V32.781h1.875Zm14.365-6.65a8.8,8.8,0,0,1-.7,3.647,5.326,5.326,0,0,1-1.992,2.378,5.5,5.5,0,0,1-8-2.358,8.44,8.44,0,0,1-.737-3.54V39.451a8.691,8.691,0,0,1,.713-3.623,5.272,5.272,0,0,1,5-3.242,5.512,5.512,0,0,1,3.013.825A5.316,5.316,0,0,1,87.178,35.8a8.838,8.838,0,0,1,.7,3.647Zm-1.865-.918A6.375,6.375,0,0,0,85,35.55,3.35,3.35,0,0,0,82.158,34.2a3.314,3.314,0,0,0-2.8,1.353,6.245,6.245,0,0,0-1.05,3.755V40.35a6.384,6.384,0,0,0,1.03,3.853,3.61,3.61,0,0,0,5.649.078,6.348,6.348,0,0,0,1.025-3.794ZM83.076,28.953h2.188l-2.617,2.871-1.455,0ZM101.621,47H99.736L92.578,36.043V47H90.693V32.781h1.885l7.178,11.006V32.781h1.865Z" transform="translate(365.232 716.481)"/>
    <path id="Trazado_900655" data-name="Trazado 900655" d="M5.578,11.242H2.5L1.91,13H.041L3.217,4.469H4.846L8.039,13H6.17ZM2.971,9.818H5.1L4.031,6.625ZM10.512,13h-1.7V4h1.7Zm4.313.117a3.112,3.112,0,0,1-2.271-.855,3.041,3.041,0,0,1-.876-2.279V9.818a3.83,3.83,0,0,1,.369-1.708,2.709,2.709,0,0,1,1.046-1.16,2.936,2.936,0,0,1,1.544-.407,2.631,2.631,0,0,1,2.048.82,3.333,3.333,0,0,1,.747,2.326v.691H13.395a1.573,1.573,0,0,0,.5,1,1.5,1.5,0,0,0,1.046.375,1.828,1.828,0,0,0,1.529-.709l.832.932a2.542,2.542,0,0,1-1.031.841A3.383,3.383,0,0,1,14.824,13.117Zm-.193-5.209a1.058,1.058,0,0,0-.817.341,1.768,1.768,0,0,0-.4.977h2.355V9.091a1.261,1.261,0,0,0-.3-.874A1.092,1.092,0,0,0,14.631,7.908ZM22.066,13a1.88,1.88,0,0,1-.17-.568,2.049,2.049,0,0,1-1.6.686,2.251,2.251,0,0,1-1.544-.539,1.734,1.734,0,0,1-.612-1.359,1.792,1.792,0,0,1,.747-1.547,3.686,3.686,0,0,1,2.159-.545h.779V8.764a1.045,1.045,0,0,0-.226-.7.887.887,0,0,0-.712-.264A1.009,1.009,0,0,0,20.218,8a.7.7,0,0,0-.243.563H18.281a1.7,1.7,0,0,1,.34-1.02,2.246,2.246,0,0,1,.961-.735,3.5,3.5,0,0,1,1.395-.267,2.767,2.767,0,0,1,1.86.589,2.06,2.06,0,0,1,.688,1.655v2.748a3.031,3.031,0,0,0,.252,1.365V13Zm-1.4-1.178a1.458,1.458,0,0,0,.691-.167,1.1,1.1,0,0,0,.469-.448v-1.09h-.633q-1.271,0-1.354.879l-.006.1a.678.678,0,0,0,.223.521A.865.865,0,0,0,20.666,11.822Zm6.8-.07a1.111,1.111,0,0,0,.762-.258.9.9,0,0,0,.3-.686h1.588a2.172,2.172,0,0,1-.352,1.181,2.32,2.32,0,0,1-.946.832,2.962,2.962,0,0,1-1.327.3,2.752,2.752,0,0,1-2.145-.864,3.42,3.42,0,0,1-.785-2.388V9.754a3.381,3.381,0,0,1,.779-2.338,2.72,2.72,0,0,1,2.139-.873,2.667,2.667,0,0,1,1.907.677,2.4,2.4,0,0,1,.729,1.8H28.529a1.164,1.164,0,0,0-.3-.8,1.132,1.132,0,0,0-1.667.122,2.5,2.5,0,0,0-.3,1.4v.176a2.531,2.531,0,0,0,.3,1.408A1.033,1.033,0,0,0,27.463,11.752ZM32.871,13h-1.7V6.66h1.7Zm-1.8-7.98a.834.834,0,0,1,.255-.627,1.1,1.1,0,0,1,1.386,0,.829.829,0,0,1,.258.627.831.831,0,0,1-.261.633,1.086,1.086,0,0,1-1.377,0A.831.831,0,0,1,31.072,5.02ZM34,9.771a3.76,3.76,0,0,1,.363-1.682,2.659,2.659,0,0,1,1.046-1.143A3.051,3.051,0,0,1,37,6.543a2.887,2.887,0,0,1,2.095.785A3.151,3.151,0,0,1,40,9.461l.012.434a3.314,3.314,0,0,1-.814,2.341,3.157,3.157,0,0,1-4.374,0A3.372,3.372,0,0,1,34,9.848Zm1.693.12a2.37,2.37,0,0,0,.34,1.382,1.221,1.221,0,0,0,1.934.006,2.593,2.593,0,0,0,.346-1.511A2.346,2.346,0,0,0,37.969,8.4,1.124,1.124,0,0,0,37,7.908a1.105,1.105,0,0,0-.961.484A2.637,2.637,0,0,0,35.7,9.892ZM42.609,6.66l.053.732a2.213,2.213,0,0,1,1.822-.85,1.84,1.84,0,0,1,1.5.592,2.761,2.761,0,0,1,.5,1.77V13H44.795V8.945a1.1,1.1,0,0,0-.234-.782,1.049,1.049,0,0,0-.779-.243,1.165,1.165,0,0,0-1.072.609V13H41.016V6.66Zm8.08,6.457a3.112,3.112,0,0,1-2.271-.855,3.041,3.041,0,0,1-.876-2.279V9.818a3.83,3.83,0,0,1,.369-1.708,2.709,2.709,0,0,1,1.046-1.16A2.936,2.936,0,0,1,50.5,6.543a2.631,2.631,0,0,1,2.048.82A3.333,3.333,0,0,1,53.3,9.689v.691H49.26a1.573,1.573,0,0,0,.5,1,1.5,1.5,0,0,0,1.046.375,1.828,1.828,0,0,0,1.529-.709l.832.932a2.542,2.542,0,0,1-1.031.841A3.383,3.383,0,0,1,50.689,13.117ZM50.5,7.908a1.058,1.058,0,0,0-.817.341,1.768,1.768,0,0,0-.4.977h2.355V9.091a1.261,1.261,0,0,0-.3-.874A1.092,1.092,0,0,0,50.5,7.908Zm7.2,3.34a.546.546,0,0,0-.308-.489,3.494,3.494,0,0,0-.987-.319q-2.262-.475-2.262-1.922a1.742,1.742,0,0,1,.7-1.409,2.825,2.825,0,0,1,1.831-.565,3.04,3.04,0,0,1,1.931.568,1.791,1.791,0,0,1,.724,1.477H57.627a.819.819,0,0,0-.234-.6.992.992,0,0,0-.732-.237A1.013,1.013,0,0,0,56,7.943a.61.61,0,0,0-.234.492.522.522,0,0,0,.267.454,2.743,2.743,0,0,0,.9.3A7.346,7.346,0,0,1,58,9.473a1.752,1.752,0,0,1,1.342,1.705,1.654,1.654,0,0,1-.744,1.4,3.21,3.21,0,0,1-1.922.536,3.353,3.353,0,0,1-1.415-.284,2.374,2.374,0,0,1-.97-.779,1.811,1.811,0,0,1-.352-1.069h1.605a.884.884,0,0,0,.334.691,1.325,1.325,0,0,0,.832.24,1.226,1.226,0,0,0,.735-.185A.574.574,0,0,0,57.691,11.248ZM2.238,18.66l.053.709a2.228,2.228,0,0,1,1.822-.826,1.691,1.691,0,0,1,1.682.967,2.177,2.177,0,0,1,1.9-.967,1.891,1.891,0,0,1,1.535.6,2.761,2.761,0,0,1,.5,1.808V25h-1.7V20.957a1.207,1.207,0,0,0-.211-.788.935.935,0,0,0-.744-.249,1.057,1.057,0,0,0-1.055.727L6.035,25H4.342V20.963a1.193,1.193,0,0,0-.217-.8.944.944,0,0,0-.738-.246,1.1,1.1,0,0,0-1.043.6V25H.65V18.66Zm11.719,6.457a3.112,3.112,0,0,1-2.271-.855,3.041,3.041,0,0,1-.876-2.279v-.164a3.83,3.83,0,0,1,.369-1.708,2.709,2.709,0,0,1,1.046-1.16,2.936,2.936,0,0,1,1.544-.407,2.631,2.631,0,0,1,2.048.82,3.333,3.333,0,0,1,.747,2.326v.691H12.527a1.573,1.573,0,0,0,.5,1,1.5,1.5,0,0,0,1.046.375,1.828,1.828,0,0,0,1.529-.709l.832.932a2.542,2.542,0,0,1-1.031.841A3.383,3.383,0,0,1,13.957,25.117Zm-.193-5.209a1.058,1.058,0,0,0-.817.341,1.768,1.768,0,0,0-.4.977H14.9v-.135a1.261,1.261,0,0,0-.3-.874A1.092,1.092,0,0,0,13.764,19.908ZM19.553,17.1V18.66h1.084V19.9H19.553v3.164a.756.756,0,0,0,.135.5.677.677,0,0,0,.516.152,2.7,2.7,0,0,0,.5-.041v1.283a3.486,3.486,0,0,1-1.025.152,1.617,1.617,0,0,1-1.816-1.8V19.9h-.926V18.66h.926V17.1Zm5.7,7.9a1.88,1.88,0,0,1-.17-.568,2.049,2.049,0,0,1-1.6.686,2.251,2.251,0,0,1-1.544-.539,1.734,1.734,0,0,1-.612-1.359,1.792,1.792,0,0,1,.747-1.547,3.686,3.686,0,0,1,2.159-.545h.779v-.363a1.045,1.045,0,0,0-.226-.7.887.887,0,0,0-.712-.264,1.009,1.009,0,0,0-.671.205.7.7,0,0,0-.243.563H21.469a1.7,1.7,0,0,1,.34-1.02,2.246,2.246,0,0,1,.961-.735,3.5,3.5,0,0,1,1.395-.267,2.767,2.767,0,0,1,1.86.589,2.06,2.06,0,0,1,.688,1.655v2.748a3.031,3.031,0,0,0,.252,1.365V25Zm-1.4-1.178a1.458,1.458,0,0,0,.691-.167,1.1,1.1,0,0,0,.469-.448v-1.09h-.633q-1.271,0-1.354.879l-.006.1a.678.678,0,0,0,.223.521A.865.865,0,0,0,23.854,23.822ZM29.8,25H28.1V16h1.7Zm4.313.117a3.112,3.112,0,0,1-2.271-.855,3.041,3.041,0,0,1-.876-2.279v-.164a3.83,3.83,0,0,1,.369-1.708,2.709,2.709,0,0,1,1.046-1.16,2.936,2.936,0,0,1,1.544-.407,2.631,2.631,0,0,1,2.048.82,3.333,3.333,0,0,1,.747,2.326v.691H32.684a1.573,1.573,0,0,0,.5,1,1.5,1.5,0,0,0,1.046.375,1.828,1.828,0,0,0,1.529-.709l.832.932a2.542,2.542,0,0,1-1.031.841A3.383,3.383,0,0,1,34.113,25.117Zm-.193-5.209a1.058,1.058,0,0,0-.817.341,1.768,1.768,0,0,0-.4.977h2.355v-.135a1.261,1.261,0,0,0-.3-.874A1.092,1.092,0,0,0,33.92,19.908Zm7.2,3.34a.546.546,0,0,0-.308-.489,3.494,3.494,0,0,0-.987-.319q-2.262-.475-2.262-1.922a1.742,1.742,0,0,1,.7-1.409,2.824,2.824,0,0,1,1.831-.565,3.04,3.04,0,0,1,1.931.568,1.791,1.791,0,0,1,.724,1.477H41.051a.819.819,0,0,0-.234-.6.992.992,0,0,0-.732-.237,1.013,1.013,0,0,0-.662.193.61.61,0,0,0-.234.492.522.522,0,0,0,.267.454,2.743,2.743,0,0,0,.9.3,7.346,7.346,0,0,1,1.066.284,1.752,1.752,0,0,1,1.342,1.705,1.654,1.654,0,0,1-.744,1.4,3.21,3.21,0,0,1-1.922.536,3.353,3.353,0,0,1-1.415-.284,2.374,2.374,0,0,1-.97-.779,1.811,1.811,0,0,1-.352-1.069h1.605a.884.884,0,0,0,.334.691,1.325,1.325,0,0,0,.832.24,1.226,1.226,0,0,0,.735-.185A.574.574,0,0,0,41.115,23.248ZM48.4,18.66l.053.732a2.213,2.213,0,0,1,1.822-.85,1.84,1.84,0,0,1,1.5.592,2.761,2.761,0,0,1,.5,1.77V25H50.584V20.945a1.1,1.1,0,0,0-.234-.782,1.049,1.049,0,0,0-.779-.243,1.165,1.165,0,0,0-1.072.609V25H46.8V18.66Zm4.9,3.111a3.76,3.76,0,0,1,.363-1.682,2.659,2.659,0,0,1,1.046-1.143,3.051,3.051,0,0,1,1.585-.4,2.887,2.887,0,0,1,2.095.785,3.151,3.151,0,0,1,.905,2.133l.012.434a3.314,3.314,0,0,1-.814,2.341,3.157,3.157,0,0,1-4.374,0,3.372,3.372,0,0,1-.817-2.391Zm1.693.12a2.37,2.37,0,0,0,.34,1.382,1.221,1.221,0,0,0,1.934.006,2.593,2.593,0,0,0,.346-1.511,2.346,2.346,0,0,0-.346-1.373,1.124,1.124,0,0,0-.973-.487,1.105,1.105,0,0,0-.961.484A2.637,2.637,0,0,0,54.99,21.892Zm-48.633,12a3.8,3.8,0,0,1-.665,2.347,2.132,2.132,0,0,1-1.8.882,1.975,1.975,0,0,1-1.553-.668v2.988H.65V30.66h1.57l.059.621a1.99,1.99,0,0,1,1.605-.738,2.147,2.147,0,0,1,1.822.867,3.905,3.905,0,0,1,.65,2.391Zm-1.693-.123A2.5,2.5,0,0,0,4.351,32.4a1.021,1.021,0,0,0-.911-.48,1.109,1.109,0,0,0-1.1.609v2.6a1.128,1.128,0,0,0,1.107.627Q4.664,35.752,4.664,33.766Zm6.3-1.518a4.6,4.6,0,0,0-.609-.047,1.24,1.24,0,0,0-1.26.65V37H7.406V30.66h1.6l.047.756a1.569,1.569,0,0,1,1.412-.873,1.774,1.774,0,0,1,.527.076ZM14.7,37.117a3.112,3.112,0,0,1-2.271-.855,3.041,3.041,0,0,1-.876-2.279v-.164a3.83,3.83,0,0,1,.369-1.708,2.709,2.709,0,0,1,1.046-1.16,2.936,2.936,0,0,1,1.544-.407,2.631,2.631,0,0,1,2.048.82,3.333,3.333,0,0,1,.747,2.326v.691H13.271a1.573,1.573,0,0,0,.5,1,1.5,1.5,0,0,0,1.046.375,1.828,1.828,0,0,0,1.529-.709l.832.932a2.542,2.542,0,0,1-1.031.841A3.383,3.383,0,0,1,14.7,37.117Zm-.193-5.209a1.058,1.058,0,0,0-.817.341,1.768,1.768,0,0,0-.4.977h2.355v-.135a1.261,1.261,0,0,0-.3-.874A1.092,1.092,0,0,0,14.508,31.908Zm6.4,3.844a1.111,1.111,0,0,0,.762-.258.9.9,0,0,0,.3-.686h1.588a2.172,2.172,0,0,1-.352,1.181,2.32,2.32,0,0,1-.946.832,2.962,2.962,0,0,1-1.327.3,2.752,2.752,0,0,1-2.145-.864,3.42,3.42,0,0,1-.785-2.388v-.111a3.381,3.381,0,0,1,.779-2.338,2.72,2.72,0,0,1,2.139-.873,2.667,2.667,0,0,1,1.907.677,2.4,2.4,0,0,1,.729,1.8H21.973a1.164,1.164,0,0,0-.3-.8A1.132,1.132,0,0,0,20,32.34a2.5,2.5,0,0,0-.3,1.4v.176a2.531,2.531,0,0,0,.3,1.408A1.033,1.033,0,0,0,20.906,35.752ZM26.314,37h-1.7V30.66h1.7Zm-1.8-7.98a.834.834,0,0,1,.255-.627,1.1,1.1,0,0,1,1.386,0,.895.895,0,0,1,0,1.26,1.086,1.086,0,0,1-1.377,0A.831.831,0,0,1,24.516,29.02Zm2.93,4.752a3.76,3.76,0,0,1,.363-1.682,2.659,2.659,0,0,1,1.046-1.143,3.051,3.051,0,0,1,1.585-.4,2.887,2.887,0,0,1,2.095.785,3.151,3.151,0,0,1,.905,2.133l.012.434a3.314,3.314,0,0,1-.814,2.341,3.157,3.157,0,0,1-4.374,0,3.372,3.372,0,0,1-.817-2.391Zm1.693.12a2.37,2.37,0,0,0,.34,1.382,1.221,1.221,0,0,0,1.934.006,2.593,2.593,0,0,0,.346-1.511,2.346,2.346,0,0,0-.346-1.373,1.124,1.124,0,0,0-.973-.487,1.105,1.105,0,0,0-.961.484A2.637,2.637,0,0,0,29.139,33.892Zm8.789,1.356a.546.546,0,0,0-.308-.489,3.494,3.494,0,0,0-.987-.319q-2.262-.475-2.262-1.922a1.742,1.742,0,0,1,.7-1.409,2.824,2.824,0,0,1,1.831-.565,3.04,3.04,0,0,1,1.931.568,1.791,1.791,0,0,1,.724,1.477H37.863a.819.819,0,0,0-.234-.6.992.992,0,0,0-.732-.237,1.013,1.013,0,0,0-.662.193.61.61,0,0,0-.234.492.522.522,0,0,0,.267.454,2.743,2.743,0,0,0,.9.3,7.346,7.346,0,0,1,1.066.284,1.752,1.752,0,0,1,1.342,1.705,1.654,1.654,0,0,1-.744,1.4,3.21,3.21,0,0,1-1.922.536,3.353,3.353,0,0,1-1.415-.284,2.374,2.374,0,0,1-.97-.779,1.811,1.811,0,0,1-.352-1.069h1.605a.884.884,0,0,0,.334.691,1.325,1.325,0,0,0,.832.24,1.226,1.226,0,0,0,.735-.185A.574.574,0,0,0,37.928,35.248ZM40.4,33.771a3.76,3.76,0,0,1,.363-1.682,2.659,2.659,0,0,1,1.046-1.143,3.051,3.051,0,0,1,1.585-.4,2.887,2.887,0,0,1,2.095.785,3.151,3.151,0,0,1,.905,2.133l.012.434a3.314,3.314,0,0,1-.814,2.341,3.157,3.157,0,0,1-4.374,0,3.372,3.372,0,0,1-.817-2.391Zm1.693.12a2.37,2.37,0,0,0,.34,1.382,1.221,1.221,0,0,0,1.934.006,2.593,2.593,0,0,0,.346-1.511,2.346,2.346,0,0,0-.346-1.373,1.124,1.124,0,0,0-.973-.487,1.105,1.105,0,0,0-.961.484A2.637,2.637,0,0,0,42.094,33.892Zm8.789,1.356a.546.546,0,0,0-.308-.489,3.494,3.494,0,0,0-.987-.319q-2.262-.475-2.262-1.922a1.742,1.742,0,0,1,.7-1.409,2.824,2.824,0,0,1,1.831-.565,3.04,3.04,0,0,1,1.931.568,1.791,1.791,0,0,1,.724,1.477H50.818a.819.819,0,0,0-.234-.6.992.992,0,0,0-.732-.237,1.013,1.013,0,0,0-.662.193.61.61,0,0,0-.234.492.522.522,0,0,0,.267.454,2.743,2.743,0,0,0,.9.3,7.346,7.346,0,0,1,1.066.284,1.752,1.752,0,0,1,1.342,1.705,1.654,1.654,0,0,1-.744,1.4,3.21,3.21,0,0,1-1.922.536,3.353,3.353,0,0,1-1.415-.284,2.374,2.374,0,0,1-.97-.779,1.811,1.811,0,0,1-.352-1.069h1.605a.884.884,0,0,0,.334.691,1.325,1.325,0,0,0,.832.24,1.226,1.226,0,0,0,.735-.185A.574.574,0,0,0,50.883,35.248Z" transform="translate(476.232 607.481)" fill="#fafafa"/>
  </g>
</svg>
