<svg xmlns="http://www.w3.org/2000/svg" xmlns:xlink="http://www.w3.org/1999/xlink" width="330.656" height="287.733" viewBox="0 0 330.656 287.733">
  <defs>
    <clipPath id="clip-path">
      <rect id="Rectángulo_404898" data-name="Rectángulo 404898" width="330.656" height="287.733" fill="none"/>
    </clipPath>
  </defs>
  <g id="Grupo_1110772" data-name="Grupo 1110772" transform="translate(-220.576 -490.472)">
    <g id="Grupo_1110666" data-name="Grupo 1110666" transform="translate(220.576 490.472)">
      <g id="Grupo_1110665" data-name="Grupo 1110665" clip-path="url(#clip-path)">
        <path id="Trazado_900386" data-name="Trazado 900386" d="M132.987,303.961q-2.271-1.091-4.484-2.266" transform="translate(-20.932 -49.143)" fill="none" stroke="#1c2141" stroke-miterlimit="10" stroke-width="2"/>
        <path id="Trazado_900387" data-name="Trazado 900387" d="M107.156,253.326c-33.27-21.333-54.5-57.357-55.555-96.468C50.116,101.8,88.886,50.744,144.242,38.919,196.056,27.85,248.677,54.086,272.6,99.563c18.239,34.673,17.614,76.385-.707,111.28" transform="translate(-8.399 -5.928)" fill="none" stroke="#12263f" stroke-miterlimit="10" stroke-width="2" stroke-dasharray="12.198 12.198"/>
        <path id="Trazado_900388" data-name="Trazado 900388" d="M311.309,250.134q-1.256,2.169-2.6,4.3" transform="translate(-50.285 -40.744)" fill="none" stroke="#1c2141" stroke-miterlimit="10" stroke-width="2"/>
        <path id="Trazado_900389" data-name="Trazado 900389" d="M141.77,306.646c-3.636-3.535-7.815-8.672-9.871-13.066l-.583,8.446-5.852,6.118c4.633-1.438,11.246-1.807,16.307-1.5" transform="translate(-20.437 -47.821)" fill="#1c2141"/>
        <path id="Trazado_900390" data-name="Trazado 900390" d="M301.832,262.015c1.213-4.924,2.039-11.5,1.457-16.311l4.967,6.858,8.2,2.092c-4.692,1.232-10.5,4.42-14.628,7.362" transform="translate(-49.165 -40.023)" fill="#1c2141"/>
      </g>
    </g>
    <path id="Trazado_900559" data-name="Trazado 900559" d="M12.551-3.955H5.616L4.3,0H.092L7.238-19.2H10.9L18.088,0H13.882Zm-5.867-3.2h4.8L9.07-14.344Z" transform="matrix(0.853, -0.522, 0.522, 0.853, 302.885, 537.285)" fill="#12263f"/>
    <path id="Trazado_900560" data-name="Trazado 900560" d="M5.669-3.177h8.4V0H1.714V-19.2H5.669Z" transform="translate(318.467 528.283) rotate(-24.743)" fill="#12263f"/>
    <path id="Trazado_900561" data-name="Trazado 900561" d="M13.263-8.319H5.669v5.142h8.912V0H1.714V-19.2H14.555v3.2H5.669v4.575h7.594Z" transform="matrix(0.948, -0.318, 0.318, 0.948, 330.669, 522.258)" fill="#12263f"/>
    <path id="Trazado_900562" data-name="Trazado 900562" d="M12.551-3.955H5.616L4.3,0H.092L7.238-19.2H10.9L18.088,0H13.882Zm-5.867-3.2h4.8L9.07-14.344Z" transform="matrix(0.981, -0.195, 0.195, 0.981, 344.456, 517.435)" fill="#12263f"/>
    <path id="Trazado_900563" data-name="Trazado 900563" d="M16.783-6.394A6.792,6.792,0,0,1,14.5-1.516,8.033,8.033,0,0,1,9.057.264,7.223,7.223,0,0,1,3.25-2.221,10.19,10.19,0,0,1,1.134-9.044v-1.173A11.507,11.507,0,0,1,2.109-15.1,7.311,7.311,0,0,1,4.9-18.332,7.811,7.811,0,0,1,9.11-19.459a7.826,7.826,0,0,1,5.353,1.78,7.3,7.3,0,0,1,2.347,5H12.854a4.009,4.009,0,0,0-1.035-2.7,3.832,3.832,0,0,0-2.709-.837A3.36,3.36,0,0,0,6.15-14.8a7.943,7.943,0,0,0-1.009,4.4v1.45A8.5,8.5,0,0,0,6.084-4.4,3.3,3.3,0,0,0,9.057-2.966,3.9,3.9,0,0,0,11.793-3.8a3.781,3.781,0,0,0,1.035-2.591Z" transform="translate(361.563 512.938) rotate(-4.241)" fill="#12263f"/>
    <path id="Trazado_900564" data-name="Trazado 900564" d="M5.919,0H1.964V-19.2H5.919Z" transform="translate(378.797 511.874) rotate(1.047)" fill="#12263f"/>
    <path id="Trazado_900565" data-name="Trazado 900565" d="M17.481-9.163a11.588,11.588,0,0,1-1,4.97A7.546,7.546,0,0,1,13.612-.9,7.932,7.932,0,0,1,9.334.264,7.986,7.986,0,0,1,5.076-.883a7.62,7.62,0,0,1-2.9-3.276,11.256,11.256,0,0,1-1.042-4.9v-.949A11.527,11.527,0,0,1,2.156-15a7.607,7.607,0,0,1,2.887-3.309,7.942,7.942,0,0,1,4.265-1.154,7.942,7.942,0,0,1,4.265,1.154A7.607,7.607,0,0,1,16.46-15a11.494,11.494,0,0,1,1.022,4.977Zm-4.008-.87a8.078,8.078,0,0,0-1.081-4.588,3.523,3.523,0,0,0-3.085-1.569A3.524,3.524,0,0,0,6.236-14.64,7.985,7.985,0,0,0,5.142-10.1v.936A8.179,8.179,0,0,0,6.223-4.6,3.514,3.514,0,0,0,9.334-2.979a3.482,3.482,0,0,0,3.059-1.562A8.131,8.131,0,0,0,13.474-9.1Z" transform="matrix(0.994, 0.113, -0.113, 0.994, 386.302, 511.743)" fill="#12263f"/>
    <path id="Trazado_900567" data-name="Trazado 900567" d="M17.323,0H13.368l-7.7-12.63V0H1.714V-19.2H5.669L13.381-6.539V-19.2h3.942Z" transform="translate(404.064 514.728) rotate(14.156)" fill="#12263f"/>
    <path id="Trazado_900568" data-name="Trazado 900568" d="M13.263-8.319H5.669v5.142h8.912V0H1.714V-19.2H14.555v3.2H5.669v4.575h7.594Z" transform="translate(421.937 519.328) rotate(21.025)" fill="#12263f"/>
    <path id="Trazado_900569" data-name="Trazado 900569" d="M11.667-5.036a2.03,2.03,0,0,0-.791-1.72A10.375,10.375,0,0,0,8.029-8.022,20.187,20.187,0,0,1,4.772-9.334Q1.5-11.1,1.5-14.093a4.635,4.635,0,0,1,.877-2.775A5.719,5.719,0,0,1,4.9-18.773a9.478,9.478,0,0,1,3.685-.686,8.627,8.627,0,0,1,3.665.745,5.836,5.836,0,0,1,2.5,2.1,5.5,5.5,0,0,1,.89,3.085H11.681a2.588,2.588,0,0,0-.831-2.05,3.414,3.414,0,0,0-2.333-.732,3.648,3.648,0,0,0-2.254.613,1.934,1.934,0,0,0-.8,1.615A1.852,1.852,0,0,0,6.4-12.511a10.65,10.65,0,0,0,2.775,1.187,11.991,11.991,0,0,1,4.917,2.518,5.015,5.015,0,0,1,1.542,3.744A4.619,4.619,0,0,1,13.75-1.154,8.253,8.253,0,0,1,8.675.264,9.8,9.8,0,0,1,4.641-.547,6.384,6.384,0,0,1,1.865-2.769,5.689,5.689,0,0,1,.91-6.038H4.878q0,3.177,3.8,3.177a3.694,3.694,0,0,0,2.2-.573A1.866,1.866,0,0,0,11.667-5.036Z" transform="matrix(0.888, 0.459, -0.459, 0.888, 436.079, 524.633)" fill="#12263f"/>
    <g id="Grupo_1110670" data-name="Grupo 1110670" transform="translate(220.576 490.472)">
      <g id="Grupo_1110669" data-name="Grupo 1110669" clip-path="url(#clip-path)">
        <path id="Trazado_900391" data-name="Trazado 900391" d="M83.992,54.077a119.851,119.851,0,0,0-27.9,32A118.564,118.564,0,0,0,49.411,99" transform="translate(-8.049 -8.809)" fill="none" stroke="#12172c" stroke-miterlimit="10" stroke-width="3"/>
        <path id="Trazado_900392" data-name="Trazado 900392" d="M42.471,120.017c.045-7.607-1.051-17.48-3.585-24.3l9.645,8.263,12.7.179c-6.412,3.441-13.763,10.122-18.757,15.859" transform="translate(-6.334 -15.591)" fill="#12263f"/>
        <path id="Trazado_900393" data-name="Trazado 900393" d="M279.588,40.622a133.1,133.1,0,0,1,34.7,32,112.215,112.215,0,0,1,8.536,13.357" transform="translate(-45.542 -6.617)" fill="none" stroke="#12263f" stroke-miterlimit="10" stroke-width="3"/>
        <path id="Trazado_900394" data-name="Trazado 900394" d="M334.849,106.524c-5.413-5.344-13.246-11.455-19.9-14.4l12.65-1.133,9-8.963c-2.016,6.992-2.367,16.92-1.748,24.5" transform="translate(-51.302 -13.361)" fill="#12263f"/>
        <path id="Trazado_900395" data-name="Trazado 900395" d="M353.109,119.027H306l-23.555,40.8L306,200.623h47.109l23.555-40.8Z" transform="translate(-46.007 -19.388)" fill="#a50417"/>
        <path id="Trazado_900396" data-name="Trazado 900396" d="M70.664,136.81H23.555L0,177.609l23.555,40.8H70.664l23.555-40.8Z" transform="translate(0 -22.285)" fill="#a50417"/>
      </g>
    </g>
    <path id="Trazado_900566" data-name="Trazado 900566" d="M3.059,4.469,5.25,10.656,7.43,4.469H9.738V13H7.975V10.668L8.15,6.643,5.848,13H4.641l-2.3-6.352.176,4.02V13H.762V4.469ZM14.08,13.117a3.112,3.112,0,0,1-2.271-.855,3.041,3.041,0,0,1-.876-2.279V9.818A3.83,3.83,0,0,1,11.3,8.11a2.709,2.709,0,0,1,1.046-1.16,2.936,2.936,0,0,1,1.544-.407,2.631,2.631,0,0,1,2.048.82,3.333,3.333,0,0,1,.747,2.326v.691H12.65a1.573,1.573,0,0,0,.5,1,1.5,1.5,0,0,0,1.046.375,1.828,1.828,0,0,0,1.529-.709l.832.932a2.542,2.542,0,0,1-1.031.841A3.383,3.383,0,0,1,14.08,13.117Zm-.193-5.209a1.058,1.058,0,0,0-.817.341,1.768,1.768,0,0,0-.4.977h2.355V9.091a1.261,1.261,0,0,0-.3-.874A1.092,1.092,0,0,0,13.887,7.908ZM19.676,5.1V6.66H20.76V7.9H19.676v3.164a.756.756,0,0,0,.135.5.677.677,0,0,0,.516.152,2.7,2.7,0,0,0,.5-.041v1.283a3.486,3.486,0,0,1-1.025.152,1.617,1.617,0,0,1-1.816-1.8V7.9h-.926V6.66h.926V5.1Zm5.7,7.9a1.88,1.88,0,0,1-.17-.568,2.049,2.049,0,0,1-1.6.686,2.251,2.251,0,0,1-1.544-.539,1.734,1.734,0,0,1-.612-1.359A1.792,1.792,0,0,1,22.2,9.672a3.686,3.686,0,0,1,2.159-.545h.779V8.764a1.045,1.045,0,0,0-.226-.7A.887.887,0,0,0,24.2,7.8,1.009,1.009,0,0,0,23.528,8a.7.7,0,0,0-.243.563H21.592a1.7,1.7,0,0,1,.34-1.02,2.246,2.246,0,0,1,.961-.735,3.5,3.5,0,0,1,1.395-.267,2.767,2.767,0,0,1,1.86.589,2.06,2.06,0,0,1,.688,1.655v2.748a3.031,3.031,0,0,0,.252,1.365V13Zm-1.4-1.178a1.458,1.458,0,0,0,.691-.167,1.1,1.1,0,0,0,.469-.448v-1.09H24.5q-1.271,0-1.354.879l-.006.1a.678.678,0,0,0,.223.521A.865.865,0,0,0,23.977,11.822ZM29.924,13h-1.7V4h1.7ZM7.7,25H5.941L2.52,19.387V25H.762V16.469H2.52l3.428,5.625V16.469H7.7Zm1.16-3.229a3.76,3.76,0,0,1,.363-1.682,2.659,2.659,0,0,1,1.046-1.143,3.051,3.051,0,0,1,1.585-.4,2.887,2.887,0,0,1,2.095.785,3.151,3.151,0,0,1,.905,2.133l.012.434a3.314,3.314,0,0,1-.814,2.341,2.831,2.831,0,0,1-2.186.882,2.845,2.845,0,0,1-2.188-.879,3.372,3.372,0,0,1-.817-2.391Zm1.693.12a2.37,2.37,0,0,0,.34,1.382,1.221,1.221,0,0,0,1.934.006,2.593,2.593,0,0,0,.346-1.511,2.346,2.346,0,0,0-.346-1.373,1.124,1.124,0,0,0-.973-.487,1.105,1.105,0,0,0-.961.484A2.637,2.637,0,0,0,10.553,21.892Zm11.068,0a3.839,3.839,0,0,1-.65,2.376,2.154,2.154,0,0,1-1.816.853,1.979,1.979,0,0,1-1.646-.791L17.432,25H15.908V16H17.6v3.229a1.929,1.929,0,0,1,1.541-.686,2.172,2.172,0,0,1,1.819.853,3.845,3.845,0,0,1,.659,2.4Zm-1.693-.123a2.522,2.522,0,0,0-.3-1.4,1.03,1.03,0,0,0-.908-.442,1.117,1.117,0,0,0-1.113.662v2.5a1.132,1.132,0,0,0,1.125.668,1.045,1.045,0,0,0,1.078-.809A4.171,4.171,0,0,0,19.928,21.766ZM24.451,25h-1.7V16h1.7Zm4.313.117a3.112,3.112,0,0,1-2.271-.855,3.041,3.041,0,0,1-.876-2.279v-.164a3.83,3.83,0,0,1,.369-1.708,2.709,2.709,0,0,1,1.046-1.16,2.936,2.936,0,0,1,1.544-.407,2.631,2.631,0,0,1,2.048.82,3.333,3.333,0,0,1,.747,2.326v.691H27.334a1.573,1.573,0,0,0,.5,1,1.5,1.5,0,0,0,1.046.375,1.828,1.828,0,0,0,1.529-.709l.832.932a2.542,2.542,0,0,1-1.031.841A3.383,3.383,0,0,1,28.764,25.117Zm-.193-5.209a1.058,1.058,0,0,0-.817.341,1.768,1.768,0,0,0-.4.977h2.355v-.135a1.261,1.261,0,0,0-.3-.874A1.092,1.092,0,0,0,28.57,19.908ZM7.459,46.158a3.019,3.019,0,0,1-1.017,2.168,3.57,3.57,0,0,1-2.417.791,3.21,3.21,0,0,1-2.581-1.1A4.529,4.529,0,0,1,.5,44.98v-.521a5.114,5.114,0,0,1,.434-2.168,3.249,3.249,0,0,1,1.239-1.438,3.471,3.471,0,0,1,1.872-.5,3.478,3.478,0,0,1,2.379.791,3.244,3.244,0,0,1,1.043,2.221H5.713a1.782,1.782,0,0,0-.46-1.2,1.7,1.7,0,0,0-1.2-.372,1.494,1.494,0,0,0-1.315.63,3.53,3.53,0,0,0-.448,1.954v.645A3.778,3.778,0,0,0,2.7,47.043a1.466,1.466,0,0,0,1.321.639,1.735,1.735,0,0,0,1.216-.372,1.681,1.681,0,0,0,.46-1.151Zm.779-.387A3.76,3.76,0,0,1,8.6,44.09a2.659,2.659,0,0,1,1.046-1.143,3.051,3.051,0,0,1,1.585-.4,2.887,2.887,0,0,1,2.095.785,3.151,3.151,0,0,1,.905,2.133l.012.434a3.314,3.314,0,0,1-.814,2.341,2.831,2.831,0,0,1-2.186.882,2.845,2.845,0,0,1-2.188-.879,3.372,3.372,0,0,1-.817-2.391Zm1.693.12a2.37,2.37,0,0,0,.34,1.382,1.221,1.221,0,0,0,1.934.006,2.593,2.593,0,0,0,.346-1.511,2.346,2.346,0,0,0-.346-1.373,1.124,1.124,0,0,0-.973-.487,1.105,1.105,0,0,0-.961.484A2.637,2.637,0,0,0,9.932,45.892ZM17.074,49h-1.7V40h1.7Zm1.131-3.229a3.76,3.76,0,0,1,.363-1.682,2.659,2.659,0,0,1,1.046-1.143,3.051,3.051,0,0,1,1.585-.4,2.887,2.887,0,0,1,2.095.785,3.151,3.151,0,0,1,.905,2.133l.012.434a3.314,3.314,0,0,1-.814,2.341,2.831,2.831,0,0,1-2.186.882,2.845,2.845,0,0,1-2.188-.879,3.372,3.372,0,0,1-.817-2.391Zm1.693.12a2.37,2.37,0,0,0,.34,1.382,1.221,1.221,0,0,0,1.934.006,2.593,2.593,0,0,0,.346-1.511,2.346,2.346,0,0,0-.346-1.373,1.124,1.124,0,0,0-.973-.487,1.105,1.105,0,0,0-.961.484A2.637,2.637,0,0,0,19.9,45.892Zm8.918-1.644a4.6,4.6,0,0,0-.609-.047,1.24,1.24,0,0,0-1.26.65V49H25.254V42.66h1.6l.047.756a1.569,1.569,0,0,1,1.412-.873,1.774,1.774,0,0,1,.527.076ZM36.293,49a1.88,1.88,0,0,1-.17-.568,2.049,2.049,0,0,1-1.6.686,2.251,2.251,0,0,1-1.544-.539,1.734,1.734,0,0,1-.612-1.359,1.792,1.792,0,0,1,.747-1.547,3.686,3.686,0,0,1,2.159-.545h.779v-.363a1.045,1.045,0,0,0-.226-.7.887.887,0,0,0-.712-.264,1.009,1.009,0,0,0-.671.205.7.7,0,0,0-.243.563H32.508a1.7,1.7,0,0,1,.34-1.02,2.246,2.246,0,0,1,.961-.735,3.5,3.5,0,0,1,1.395-.267,2.767,2.767,0,0,1,1.86.589,2.06,2.06,0,0,1,.688,1.655v2.748A3.031,3.031,0,0,0,38,48.9V49Zm-1.4-1.178a1.458,1.458,0,0,0,.691-.167,1.1,1.1,0,0,0,.469-.448v-1.09H35.42q-1.271,0-1.354.879l-.006.1a.678.678,0,0,0,.223.521A.865.865,0,0,0,34.893,47.822ZM40.84,49h-1.7V40h1.7Zm-38.6,5.66.053.709a2.228,2.228,0,0,1,1.822-.826,1.691,1.691,0,0,1,1.682.967,2.177,2.177,0,0,1,1.9-.967,1.891,1.891,0,0,1,1.535.6,2.761,2.761,0,0,1,.5,1.808V61h-1.7V56.957a1.207,1.207,0,0,0-.211-.788.935.935,0,0,0-.744-.249,1.057,1.057,0,0,0-1.055.727L6.035,61H4.342V56.963a1.193,1.193,0,0,0-.217-.8.944.944,0,0,0-.738-.246,1.1,1.1,0,0,0-1.043.6V61H.65V54.66Zm11.719,6.457a3.112,3.112,0,0,1-2.271-.855,3.041,3.041,0,0,1-.876-2.279v-.164a3.83,3.83,0,0,1,.369-1.708,2.709,2.709,0,0,1,1.046-1.16,2.936,2.936,0,0,1,1.544-.407,2.631,2.631,0,0,1,2.048.82,3.333,3.333,0,0,1,.747,2.326v.691H12.527a1.573,1.573,0,0,0,.5,1,1.5,1.5,0,0,0,1.046.375,1.828,1.828,0,0,0,1.529-.709l.832.932a2.542,2.542,0,0,1-1.031.841A3.383,3.383,0,0,1,13.957,61.117Zm-.193-5.209a1.058,1.058,0,0,0-.817.341,1.768,1.768,0,0,0-.4.977H14.9v-.135a1.261,1.261,0,0,0-.3-.874A1.092,1.092,0,0,0,13.764,55.908ZM19.553,53.1V54.66h1.084V55.9H19.553v3.164a.756.756,0,0,0,.135.5.677.677,0,0,0,.516.152,2.7,2.7,0,0,0,.5-.041v1.283a3.486,3.486,0,0,1-1.025.152,1.617,1.617,0,0,1-1.816-1.8V55.9h-.926V54.66h.926V53.1Zm5.7,7.9a1.88,1.88,0,0,1-.17-.568,2.049,2.049,0,0,1-1.6.686,2.251,2.251,0,0,1-1.544-.539,1.734,1.734,0,0,1-.612-1.359,1.792,1.792,0,0,1,.747-1.547,3.686,3.686,0,0,1,2.159-.545h.779v-.363a1.045,1.045,0,0,0-.226-.7.887.887,0,0,0-.712-.264,1.009,1.009,0,0,0-.671.205.7.7,0,0,0-.243.563H21.469a1.7,1.7,0,0,1,.34-1.02,2.246,2.246,0,0,1,.961-.735,3.5,3.5,0,0,1,1.395-.267,2.767,2.767,0,0,1,1.86.589,2.06,2.06,0,0,1,.688,1.655v2.748a3.031,3.031,0,0,0,.252,1.365V61Zm-1.4-1.178a1.458,1.458,0,0,0,.691-.167,1.1,1.1,0,0,0,.469-.448v-1.09h-.633q-1.271,0-1.354.879l-.006.1a.678.678,0,0,0,.223.521A.865.865,0,0,0,23.854,59.822ZM29.8,61H28.1V52h1.7Z" transform="translate(250.232 615.481)" fill="#fafafa"/>
    <path id="Trazado_900571" data-name="Trazado 900571" d="M8.643,17.27A1.5,1.5,0,0,0,8.057,16a7.685,7.685,0,0,0-2.109-.937,14.953,14.953,0,0,1-2.412-.972,3.941,3.941,0,0,1-2.422-3.525A3.434,3.434,0,0,1,1.763,8.5,4.236,4.236,0,0,1,3.628,7.094a7.021,7.021,0,0,1,2.729-.508,6.39,6.39,0,0,1,2.715.552A4.323,4.323,0,0,1,10.923,8.7a4.076,4.076,0,0,1,.659,2.285H8.652a1.917,1.917,0,0,0-.615-1.519A2.529,2.529,0,0,0,6.309,8.92a2.7,2.7,0,0,0-1.67.454,1.432,1.432,0,0,0-.6,1.2,1.372,1.372,0,0,0,.7,1.162,7.889,7.889,0,0,0,2.056.879,8.882,8.882,0,0,1,3.643,1.865,3.715,3.715,0,0,1,1.143,2.773,3.422,3.422,0,0,1-1.4,2.9,6.113,6.113,0,0,1-3.76,1.05,7.26,7.26,0,0,1-2.988-.6,4.729,4.729,0,0,1-2.056-1.646,4.214,4.214,0,0,1-.708-2.422H3.613q0,2.354,2.813,2.354a2.736,2.736,0,0,0,1.631-.425A1.382,1.382,0,0,0,8.643,17.27Zm16.6-3.057a8.584,8.584,0,0,1-.742,3.682,5.589,5.589,0,0,1-2.124,2.441,5.875,5.875,0,0,1-3.169.859,5.915,5.915,0,0,1-3.154-.85,5.644,5.644,0,0,1-2.148-2.427,8.338,8.338,0,0,1-.771-3.628v-.7a8.538,8.538,0,0,1,.757-3.7A5.635,5.635,0,0,1,16.03,7.44a5.883,5.883,0,0,1,3.159-.854,5.883,5.883,0,0,1,3.159.854,5.635,5.635,0,0,1,2.139,2.451,8.514,8.514,0,0,1,.757,3.687Zm-2.969-.645a5.984,5.984,0,0,0-.8-3.4,2.61,2.61,0,0,0-2.285-1.162,2.611,2.611,0,0,0-2.275,1.147A5.915,5.915,0,0,0,16.1,13.52v.693a6.058,6.058,0,0,0,.8,3.379,2.6,2.6,0,0,0,2.3,1.2,2.579,2.579,0,0,0,2.266-1.157,6.023,6.023,0,0,0,.8-3.374ZM30.3,18.646h6.221V21h-9.15V6.781H30.3ZM38.2,21V6.781h4.375a6.644,6.644,0,0,1,3.354.845,5.89,5.89,0,0,1,2.31,2.4,7.41,7.41,0,0,1,.83,3.54v.654a7.431,7.431,0,0,1-.815,3.525,5.84,5.84,0,0,1-2.3,2.393,6.694,6.694,0,0,1-3.35.859Zm2.93-11.846v9.492h1.416a3.181,3.181,0,0,0,2.627-1.123,5.075,5.075,0,0,0,.928-3.213v-.752a5.156,5.156,0,0,0-.9-3.286,3.171,3.171,0,0,0-2.627-1.118Zm18.1,8.916H54.092L53.115,21H50L55.293,6.781h2.715L63.33,21H60.215ZM54.883,15.7h3.555L56.65,10.375ZM64.658,21V6.781h4.375a6.644,6.644,0,0,1,3.354.845,5.89,5.89,0,0,1,2.31,2.4,7.41,7.41,0,0,1,.83,3.54v.654a7.431,7.431,0,0,1-.815,3.525,5.84,5.84,0,0,1-2.3,2.393,6.694,6.694,0,0,1-3.35.859Zm2.93-11.846v9.492H69a3.181,3.181,0,0,0,2.627-1.123,5.075,5.075,0,0,0,.928-3.213v-.752a5.156,5.156,0,0,0-.9-3.286,3.171,3.171,0,0,0-2.627-1.118Zm20.83-2.373v9.365a4.8,4.8,0,0,1-1.46,3.691A5.629,5.629,0,0,1,82.969,21.2a5.692,5.692,0,0,1-3.955-1.318,4.713,4.713,0,0,1-1.494-3.623V6.781h2.93v9.385a2.709,2.709,0,0,0,.669,2.036,2.568,2.568,0,0,0,1.851.64q2.471,0,2.51-2.6V6.781Zm7.666,9.014H93.75V21H90.82V6.781H96.1A5.972,5.972,0,0,1,99.99,7.9a3.876,3.876,0,0,1,1.367,3.174,4.374,4.374,0,0,1-.63,2.427,4.3,4.3,0,0,1-1.909,1.548l3.076,5.811V21H98.75ZM93.75,13.422h2.363a2.42,2.42,0,0,0,1.709-.562,2.007,2.007,0,0,0,.605-1.548,2.148,2.148,0,0,0-.571-1.582A2.374,2.374,0,0,0,96.1,9.154H93.75Zm17.861,4.648h-5.137L105.5,21h-3.115l5.293-14.219h2.715L115.713,21H112.6ZM107.266,15.7h3.555l-1.787-5.322ZM9.824,41.189H4.2V47H1.27V32.781h9.258v2.373H4.2v3.672H9.824Zm13.164-8.408v9.365a4.8,4.8,0,0,1-1.46,3.691A5.629,5.629,0,0,1,17.539,47.2a5.692,5.692,0,0,1-3.955-1.318,4.713,4.713,0,0,1-1.494-3.623V32.781h2.93v9.385a2.709,2.709,0,0,0,.669,2.036,2.568,2.568,0,0,0,1.851.64q2.471,0,2.51-2.6V32.781ZM36.953,47h-2.93l-5.7-9.355V47h-2.93V32.781h2.93l5.713,9.375V32.781h2.92Zm2.559,0V32.781h4.375a6.644,6.644,0,0,1,3.354.845,5.89,5.89,0,0,1,2.31,2.4,7.41,7.41,0,0,1,.83,3.54v.654a7.431,7.431,0,0,1-.815,3.525,5.84,5.84,0,0,1-2.3,2.393,6.694,6.694,0,0,1-3.35.859Zm2.93-11.846v9.492h1.416a3.181,3.181,0,0,0,2.627-1.123,5.075,5.075,0,0,0,.928-3.213v-.752a5.156,5.156,0,0,0-.9-3.286,3.171,3.171,0,0,0-2.627-1.118ZM55.625,47H52.7V32.781h2.93ZM69.5,42.264a5.031,5.031,0,0,1-1.694,3.613A5.951,5.951,0,0,1,63.779,47.2a5.351,5.351,0,0,1-4.3-1.841A7.548,7.548,0,0,1,57.91,40.3v-.869a8.523,8.523,0,0,1,.723-3.613,5.415,5.415,0,0,1,2.065-2.4,6.455,6.455,0,0,1,7.085.483,5.407,5.407,0,0,1,1.738,3.7h-2.93a2.97,2.97,0,0,0-.767-2,2.839,2.839,0,0,0-2.007-.62,2.489,2.489,0,0,0-2.192,1.05,5.883,5.883,0,0,0-.747,3.257v1.074a6.3,6.3,0,0,0,.7,3.369,2.443,2.443,0,0,0,2.2,1.064,2.892,2.892,0,0,0,2.026-.62,2.8,2.8,0,0,0,.767-1.919ZM74.541,47h-2.93V32.781h2.93Zm14.395-6.787a8.584,8.584,0,0,1-.742,3.682,5.589,5.589,0,0,1-2.124,2.441,6.276,6.276,0,0,1-6.323.01A5.644,5.644,0,0,1,77.6,43.919a8.338,8.338,0,0,1-.771-3.628v-.7a8.538,8.538,0,0,1,.757-3.7,5.635,5.635,0,0,1,2.139-2.451,6.267,6.267,0,0,1,6.318,0,5.635,5.635,0,0,1,2.139,2.451,8.514,8.514,0,0,1,.757,3.687Zm-2.969-.645a5.984,5.984,0,0,0-.8-3.4,2.829,2.829,0,0,0-4.561-.015,5.915,5.915,0,0,0-.811,3.364v.693a6.058,6.058,0,0,0,.8,3.379,2.8,2.8,0,0,0,4.57.044,6.023,6.023,0,0,0,.8-3.374Zm-2.52-10.6h3.076L83.818,32H81.523ZM102.627,47H99.7l-5.7-9.355V47h-2.93V32.781h2.93l5.713,9.375V32.781h2.92Z" transform="translate(365.232 716.481)"/>
    <path id="Trazado_900570" data-name="Trazado 900570" d="M5.578,11.242H2.5L1.91,13H.041L3.217,4.469H4.846L8.039,13H6.17ZM2.971,9.818H5.1L4.031,6.625ZM10.512,13h-1.7V4h1.7Zm4.313.117a3.112,3.112,0,0,1-2.271-.855,3.041,3.041,0,0,1-.876-2.279V9.818a3.83,3.83,0,0,1,.369-1.708,2.709,2.709,0,0,1,1.046-1.16,2.936,2.936,0,0,1,1.544-.407,2.631,2.631,0,0,1,2.048.82,3.333,3.333,0,0,1,.747,2.326v.691H13.395a1.573,1.573,0,0,0,.5,1,1.5,1.5,0,0,0,1.046.375,1.828,1.828,0,0,0,1.529-.709l.832.932a2.542,2.542,0,0,1-1.031.841A3.383,3.383,0,0,1,14.824,13.117Zm-.193-5.209a1.058,1.058,0,0,0-.817.341,1.768,1.768,0,0,0-.4.977h2.355V9.091a1.261,1.261,0,0,0-.3-.874A1.092,1.092,0,0,0,14.631,7.908ZM22.066,13a1.88,1.88,0,0,1-.17-.568,2.049,2.049,0,0,1-1.6.686,2.251,2.251,0,0,1-1.544-.539,1.734,1.734,0,0,1-.612-1.359,1.792,1.792,0,0,1,.747-1.547,3.686,3.686,0,0,1,2.159-.545h.779V8.764a1.045,1.045,0,0,0-.226-.7.887.887,0,0,0-.712-.264A1.009,1.009,0,0,0,20.218,8a.7.7,0,0,0-.243.563H18.281a1.7,1.7,0,0,1,.34-1.02,2.246,2.246,0,0,1,.961-.735,3.5,3.5,0,0,1,1.395-.267,2.767,2.767,0,0,1,1.86.589,2.06,2.06,0,0,1,.688,1.655v2.748a3.031,3.031,0,0,0,.252,1.365V13Zm-1.4-1.178a1.458,1.458,0,0,0,.691-.167,1.1,1.1,0,0,0,.469-.448v-1.09h-.633q-1.271,0-1.354.879l-.006.1a.678.678,0,0,0,.223.521A.865.865,0,0,0,20.666,11.822Zm6.8-.07a1.111,1.111,0,0,0,.762-.258.9.9,0,0,0,.3-.686h1.588a2.172,2.172,0,0,1-.352,1.181,2.32,2.32,0,0,1-.946.832,2.962,2.962,0,0,1-1.327.3,2.752,2.752,0,0,1-2.145-.864,3.42,3.42,0,0,1-.785-2.388V9.754a3.381,3.381,0,0,1,.779-2.338,2.72,2.72,0,0,1,2.139-.873,2.667,2.667,0,0,1,1.907.677,2.4,2.4,0,0,1,.729,1.8H28.529a1.164,1.164,0,0,0-.3-.8,1.132,1.132,0,0,0-1.667.122,2.5,2.5,0,0,0-.3,1.4v.176a2.531,2.531,0,0,0,.3,1.408A1.033,1.033,0,0,0,27.463,11.752ZM32.871,13h-1.7V6.66h1.7Zm-1.8-7.98a.834.834,0,0,1,.255-.627,1.1,1.1,0,0,1,1.386,0,.829.829,0,0,1,.258.627.831.831,0,0,1-.261.633,1.086,1.086,0,0,1-1.377,0A.831.831,0,0,1,31.072,5.02ZM34,9.771a3.76,3.76,0,0,1,.363-1.682,2.659,2.659,0,0,1,1.046-1.143A3.051,3.051,0,0,1,37,6.543a2.887,2.887,0,0,1,2.095.785A3.151,3.151,0,0,1,40,9.461l.012.434a3.314,3.314,0,0,1-.814,2.341,3.157,3.157,0,0,1-4.374,0A3.372,3.372,0,0,1,34,9.848Zm1.693.12a2.37,2.37,0,0,0,.34,1.382,1.221,1.221,0,0,0,1.934.006,2.593,2.593,0,0,0,.346-1.511A2.346,2.346,0,0,0,37.969,8.4,1.124,1.124,0,0,0,37,7.908a1.105,1.105,0,0,0-.961.484A2.637,2.637,0,0,0,35.7,9.892ZM42.609,6.66l.053.732a2.213,2.213,0,0,1,1.822-.85,1.84,1.84,0,0,1,1.5.592,2.761,2.761,0,0,1,.5,1.77V13H44.795V8.945a1.1,1.1,0,0,0-.234-.782,1.049,1.049,0,0,0-.779-.243,1.165,1.165,0,0,0-1.072.609V13H41.016V6.66Zm8.08,6.457a3.112,3.112,0,0,1-2.271-.855,3.041,3.041,0,0,1-.876-2.279V9.818a3.83,3.83,0,0,1,.369-1.708,2.709,2.709,0,0,1,1.046-1.16A2.936,2.936,0,0,1,50.5,6.543a2.631,2.631,0,0,1,2.048.82A3.333,3.333,0,0,1,53.3,9.689v.691H49.26a1.573,1.573,0,0,0,.5,1,1.5,1.5,0,0,0,1.046.375,1.828,1.828,0,0,0,1.529-.709l.832.932a2.542,2.542,0,0,1-1.031.841A3.383,3.383,0,0,1,50.689,13.117ZM50.5,7.908a1.058,1.058,0,0,0-.817.341,1.768,1.768,0,0,0-.4.977h2.355V9.091a1.261,1.261,0,0,0-.3-.874A1.092,1.092,0,0,0,50.5,7.908Zm7.2,3.34a.546.546,0,0,0-.308-.489,3.494,3.494,0,0,0-.987-.319q-2.262-.475-2.262-1.922a1.742,1.742,0,0,1,.7-1.409,2.825,2.825,0,0,1,1.831-.565,3.04,3.04,0,0,1,1.931.568,1.791,1.791,0,0,1,.724,1.477H57.627a.819.819,0,0,0-.234-.6.992.992,0,0,0-.732-.237A1.013,1.013,0,0,0,56,7.943a.61.61,0,0,0-.234.492.522.522,0,0,0,.267.454,2.743,2.743,0,0,0,.9.3A7.346,7.346,0,0,1,58,9.473a1.752,1.752,0,0,1,1.342,1.705,1.654,1.654,0,0,1-.744,1.4,3.21,3.21,0,0,1-1.922.536,3.353,3.353,0,0,1-1.415-.284,2.374,2.374,0,0,1-.97-.779,1.811,1.811,0,0,1-.352-1.069h1.605a.884.884,0,0,0,.334.691,1.325,1.325,0,0,0,.832.24,1.226,1.226,0,0,0,.735-.185A.574.574,0,0,0,57.691,11.248ZM2.238,18.66l.053.709a2.228,2.228,0,0,1,1.822-.826,1.691,1.691,0,0,1,1.682.967,2.177,2.177,0,0,1,1.9-.967,1.891,1.891,0,0,1,1.535.6,2.761,2.761,0,0,1,.5,1.808V25h-1.7V20.957a1.207,1.207,0,0,0-.211-.788.935.935,0,0,0-.744-.249,1.057,1.057,0,0,0-1.055.727L6.035,25H4.342V20.963a1.193,1.193,0,0,0-.217-.8.944.944,0,0,0-.738-.246,1.1,1.1,0,0,0-1.043.6V25H.65V18.66Zm11.719,6.457a3.112,3.112,0,0,1-2.271-.855,3.041,3.041,0,0,1-.876-2.279v-.164a3.83,3.83,0,0,1,.369-1.708,2.709,2.709,0,0,1,1.046-1.16,2.936,2.936,0,0,1,1.544-.407,2.631,2.631,0,0,1,2.048.82,3.333,3.333,0,0,1,.747,2.326v.691H12.527a1.573,1.573,0,0,0,.5,1,1.5,1.5,0,0,0,1.046.375,1.828,1.828,0,0,0,1.529-.709l.832.932a2.542,2.542,0,0,1-1.031.841A3.383,3.383,0,0,1,13.957,25.117Zm-.193-5.209a1.058,1.058,0,0,0-.817.341,1.768,1.768,0,0,0-.4.977H14.9v-.135a1.261,1.261,0,0,0-.3-.874A1.092,1.092,0,0,0,13.764,19.908ZM19.553,17.1V18.66h1.084V19.9H19.553v3.164a.756.756,0,0,0,.135.5.677.677,0,0,0,.516.152,2.7,2.7,0,0,0,.5-.041v1.283a3.486,3.486,0,0,1-1.025.152,1.617,1.617,0,0,1-1.816-1.8V19.9h-.926V18.66h.926V17.1Zm5.7,7.9a1.88,1.88,0,0,1-.17-.568,2.049,2.049,0,0,1-1.6.686,2.251,2.251,0,0,1-1.544-.539,1.734,1.734,0,0,1-.612-1.359,1.792,1.792,0,0,1,.747-1.547,3.686,3.686,0,0,1,2.159-.545h.779v-.363a1.045,1.045,0,0,0-.226-.7.887.887,0,0,0-.712-.264,1.009,1.009,0,0,0-.671.205.7.7,0,0,0-.243.563H21.469a1.7,1.7,0,0,1,.34-1.02,2.246,2.246,0,0,1,.961-.735,3.5,3.5,0,0,1,1.395-.267,2.767,2.767,0,0,1,1.86.589,2.06,2.06,0,0,1,.688,1.655v2.748a3.031,3.031,0,0,0,.252,1.365V25Zm-1.4-1.178a1.458,1.458,0,0,0,.691-.167,1.1,1.1,0,0,0,.469-.448v-1.09h-.633q-1.271,0-1.354.879l-.006.1a.678.678,0,0,0,.223.521A.865.865,0,0,0,23.854,23.822ZM29.8,25H28.1V16h1.7Zm4.313.117a3.112,3.112,0,0,1-2.271-.855,3.041,3.041,0,0,1-.876-2.279v-.164a3.83,3.83,0,0,1,.369-1.708,2.709,2.709,0,0,1,1.046-1.16,2.936,2.936,0,0,1,1.544-.407,2.631,2.631,0,0,1,2.048.82,3.333,3.333,0,0,1,.747,2.326v.691H32.684a1.573,1.573,0,0,0,.5,1,1.5,1.5,0,0,0,1.046.375,1.828,1.828,0,0,0,1.529-.709l.832.932a2.542,2.542,0,0,1-1.031.841A3.383,3.383,0,0,1,34.113,25.117Zm-.193-5.209a1.058,1.058,0,0,0-.817.341,1.768,1.768,0,0,0-.4.977h2.355v-.135a1.261,1.261,0,0,0-.3-.874A1.092,1.092,0,0,0,33.92,19.908Zm7.2,3.34a.546.546,0,0,0-.308-.489,3.494,3.494,0,0,0-.987-.319q-2.262-.475-2.262-1.922a1.742,1.742,0,0,1,.7-1.409,2.824,2.824,0,0,1,1.831-.565,3.04,3.04,0,0,1,1.931.568,1.791,1.791,0,0,1,.724,1.477H41.051a.819.819,0,0,0-.234-.6.992.992,0,0,0-.732-.237,1.013,1.013,0,0,0-.662.193.61.61,0,0,0-.234.492.522.522,0,0,0,.267.454,2.743,2.743,0,0,0,.9.3,7.346,7.346,0,0,1,1.066.284,1.752,1.752,0,0,1,1.342,1.705,1.654,1.654,0,0,1-.744,1.4,3.21,3.21,0,0,1-1.922.536,3.353,3.353,0,0,1-1.415-.284,2.374,2.374,0,0,1-.97-.779,1.811,1.811,0,0,1-.352-1.069h1.605a.884.884,0,0,0,.334.691,1.325,1.325,0,0,0,.832.24,1.226,1.226,0,0,0,.735-.185A.574.574,0,0,0,41.115,23.248ZM48.4,18.66l.053.732a2.213,2.213,0,0,1,1.822-.85,1.84,1.84,0,0,1,1.5.592,2.761,2.761,0,0,1,.5,1.77V25H50.584V20.945a1.1,1.1,0,0,0-.234-.782,1.049,1.049,0,0,0-.779-.243,1.165,1.165,0,0,0-1.072.609V25H46.8V18.66Zm4.9,3.111a3.76,3.76,0,0,1,.363-1.682,2.659,2.659,0,0,1,1.046-1.143,3.051,3.051,0,0,1,1.585-.4,2.887,2.887,0,0,1,2.095.785,3.151,3.151,0,0,1,.905,2.133l.012.434a3.314,3.314,0,0,1-.814,2.341,3.157,3.157,0,0,1-4.374,0,3.372,3.372,0,0,1-.817-2.391Zm1.693.12a2.37,2.37,0,0,0,.34,1.382,1.221,1.221,0,0,0,1.934.006,2.593,2.593,0,0,0,.346-1.511,2.346,2.346,0,0,0-.346-1.373,1.124,1.124,0,0,0-.973-.487,1.105,1.105,0,0,0-.961.484A2.637,2.637,0,0,0,54.99,21.892Zm-48.633,12a3.8,3.8,0,0,1-.665,2.347,2.132,2.132,0,0,1-1.8.882,1.975,1.975,0,0,1-1.553-.668v2.988H.65V30.66h1.57l.059.621a1.99,1.99,0,0,1,1.605-.738,2.147,2.147,0,0,1,1.822.867,3.905,3.905,0,0,1,.65,2.391Zm-1.693-.123A2.5,2.5,0,0,0,4.351,32.4a1.021,1.021,0,0,0-.911-.48,1.109,1.109,0,0,0-1.1.609v2.6a1.128,1.128,0,0,0,1.107.627Q4.664,35.752,4.664,33.766Zm6.3-1.518a4.6,4.6,0,0,0-.609-.047,1.24,1.24,0,0,0-1.26.65V37H7.406V30.66h1.6l.047.756a1.569,1.569,0,0,1,1.412-.873,1.774,1.774,0,0,1,.527.076ZM14.7,37.117a3.112,3.112,0,0,1-2.271-.855,3.041,3.041,0,0,1-.876-2.279v-.164a3.83,3.83,0,0,1,.369-1.708,2.709,2.709,0,0,1,1.046-1.16,2.936,2.936,0,0,1,1.544-.407,2.631,2.631,0,0,1,2.048.82,3.333,3.333,0,0,1,.747,2.326v.691H13.271a1.573,1.573,0,0,0,.5,1,1.5,1.5,0,0,0,1.046.375,1.828,1.828,0,0,0,1.529-.709l.832.932a2.542,2.542,0,0,1-1.031.841A3.383,3.383,0,0,1,14.7,37.117Zm-.193-5.209a1.058,1.058,0,0,0-.817.341,1.768,1.768,0,0,0-.4.977h2.355v-.135a1.261,1.261,0,0,0-.3-.874A1.092,1.092,0,0,0,14.508,31.908Zm6.4,3.844a1.111,1.111,0,0,0,.762-.258.9.9,0,0,0,.3-.686h1.588a2.172,2.172,0,0,1-.352,1.181,2.32,2.32,0,0,1-.946.832,2.962,2.962,0,0,1-1.327.3,2.752,2.752,0,0,1-2.145-.864,3.42,3.42,0,0,1-.785-2.388v-.111a3.381,3.381,0,0,1,.779-2.338,2.72,2.72,0,0,1,2.139-.873,2.667,2.667,0,0,1,1.907.677,2.4,2.4,0,0,1,.729,1.8H21.973a1.164,1.164,0,0,0-.3-.8A1.132,1.132,0,0,0,20,32.34a2.5,2.5,0,0,0-.3,1.4v.176a2.531,2.531,0,0,0,.3,1.408A1.033,1.033,0,0,0,20.906,35.752ZM26.314,37h-1.7V30.66h1.7Zm-1.8-7.98a.834.834,0,0,1,.255-.627,1.1,1.1,0,0,1,1.386,0,.895.895,0,0,1,0,1.26,1.086,1.086,0,0,1-1.377,0A.831.831,0,0,1,24.516,29.02Zm2.93,4.752a3.76,3.76,0,0,1,.363-1.682,2.659,2.659,0,0,1,1.046-1.143,3.051,3.051,0,0,1,1.585-.4,2.887,2.887,0,0,1,2.095.785,3.151,3.151,0,0,1,.905,2.133l.012.434a3.314,3.314,0,0,1-.814,2.341,3.157,3.157,0,0,1-4.374,0,3.372,3.372,0,0,1-.817-2.391Zm1.693.12a2.37,2.37,0,0,0,.34,1.382,1.221,1.221,0,0,0,1.934.006,2.593,2.593,0,0,0,.346-1.511,2.346,2.346,0,0,0-.346-1.373,1.124,1.124,0,0,0-.973-.487,1.105,1.105,0,0,0-.961.484A2.637,2.637,0,0,0,29.139,33.892Zm8.789,1.356a.546.546,0,0,0-.308-.489,3.494,3.494,0,0,0-.987-.319q-2.262-.475-2.262-1.922a1.742,1.742,0,0,1,.7-1.409,2.824,2.824,0,0,1,1.831-.565,3.04,3.04,0,0,1,1.931.568,1.791,1.791,0,0,1,.724,1.477H37.863a.819.819,0,0,0-.234-.6.992.992,0,0,0-.732-.237,1.013,1.013,0,0,0-.662.193.61.61,0,0,0-.234.492.522.522,0,0,0,.267.454,2.743,2.743,0,0,0,.9.3,7.346,7.346,0,0,1,1.066.284,1.752,1.752,0,0,1,1.342,1.705,1.654,1.654,0,0,1-.744,1.4,3.21,3.21,0,0,1-1.922.536,3.353,3.353,0,0,1-1.415-.284,2.374,2.374,0,0,1-.97-.779,1.811,1.811,0,0,1-.352-1.069h1.605a.884.884,0,0,0,.334.691,1.325,1.325,0,0,0,.832.24,1.226,1.226,0,0,0,.735-.185A.574.574,0,0,0,37.928,35.248ZM40.4,33.771a3.76,3.76,0,0,1,.363-1.682,2.659,2.659,0,0,1,1.046-1.143,3.051,3.051,0,0,1,1.585-.4,2.887,2.887,0,0,1,2.095.785,3.151,3.151,0,0,1,.905,2.133l.012.434a3.314,3.314,0,0,1-.814,2.341,3.157,3.157,0,0,1-4.374,0,3.372,3.372,0,0,1-.817-2.391Zm1.693.12a2.37,2.37,0,0,0,.34,1.382,1.221,1.221,0,0,0,1.934.006,2.593,2.593,0,0,0,.346-1.511,2.346,2.346,0,0,0-.346-1.373,1.124,1.124,0,0,0-.973-.487,1.105,1.105,0,0,0-.961.484A2.637,2.637,0,0,0,42.094,33.892Zm8.789,1.356a.546.546,0,0,0-.308-.489,3.494,3.494,0,0,0-.987-.319q-2.262-.475-2.262-1.922a1.742,1.742,0,0,1,.7-1.409,2.824,2.824,0,0,1,1.831-.565,3.04,3.04,0,0,1,1.931.568,1.791,1.791,0,0,1,.724,1.477H50.818a.819.819,0,0,0-.234-.6.992.992,0,0,0-.732-.237,1.013,1.013,0,0,0-.662.193.61.61,0,0,0-.234.492.522.522,0,0,0,.267.454,2.743,2.743,0,0,0,.9.3,7.346,7.346,0,0,1,1.066.284,1.752,1.752,0,0,1,1.342,1.705,1.654,1.654,0,0,1-.744,1.4,3.21,3.21,0,0,1-1.922.536,3.353,3.353,0,0,1-1.415-.284,2.374,2.374,0,0,1-.97-.779,1.811,1.811,0,0,1-.352-1.069h1.605a.884.884,0,0,0,.334.691,1.325,1.325,0,0,0,.832.24,1.226,1.226,0,0,0,.735-.185A.574.574,0,0,0,50.883,35.248Z" transform="translate(476.232 607.481)" fill="#fafafa"/>
  </g>
</svg>
