<svg xmlns="http://www.w3.org/2000/svg" width="412.67" height="309.61" viewBox="0 0 412.67 309.61">
  <g id="Grupo_1110773" data-name="Grupo 1110773" transform="translate(-218 -487.146)">
    <g id="_6667475_3378473" data-name="6667475_3378473" transform="translate(218 487.146)">
      <rect id="Rect치ngulo_404896" data-name="Rect치ngulo 404896" width="362.22" height="36.89" transform="translate(34 272.72)" fill="#fff"/>
      <path id="Trazado_900378" data-name="Trazado 900378" d="M0,271.17q10.995-15.225,21.99-30.44H204v30.44Z" fill="#3e83b5"/>
      <path id="Trazado_900379" data-name="Trazado 900379" d="M22,224.84l27.92-63.17a6.136,6.136,0,0,0,.52-2.46V82.36a6.088,6.088,0,0,1,6.09-6.09H74.36a6.088,6.088,0,0,1,6.09,6.09v75.26a6.163,6.163,0,0,0,.55,2.53l29.52,64.63a6.082,6.082,0,0,1-5.54,8.61H27.57A6.092,6.092,0,0,1,22,224.84Z" fill="#a50417"/>
      <path id="Trazado_900380" data-name="Trazado 900380" d="M299.11,101.14V69.61h2.33a2.326,2.326,0,0,0,2.33-2.33V63.95a2.326,2.326,0,0,0-2.33-2.33H267.88a2.326,2.326,0,0,0-2.33,2.33v3.33a2.326,2.326,0,0,0,2.33,2.33h2.11v31.45a47.719,47.719,0,1,0,29.1.07Z" fill="#1c2141"/>
      <path id="Trazado_900381" data-name="Trazado 900381" d="M204,147.83H122.33v7h3.36a7.171,7.171,0,0,0-.31,2.08v70.72a7.313,7.313,0,0,0,7.31,7.31h62.22a7.313,7.313,0,0,0,7.31-7.31V156.91a7.171,7.171,0,0,0-.31-2.08h2.08v-7Z" fill="#1c2141"/>
      <path id="Trazado_900382" data-name="Trazado 900382" d="M66.27,76.28V4.5h96.9V147.83" fill="none" stroke="#12263f" stroke-linejoin="round" stroke-width="9"/>
      <path id="Trazado_900383" data-name="Trazado 900383" d="M383.56,40.28V15.83H163.17" fill="none" stroke="#0f1f33" stroke-linejoin="round" stroke-width="9"/>
      <path id="Trazado_900384" data-name="Trazado 900384" d="M163.17,37.83H284.44V61.61" fill="none" stroke="#12263f" stroke-linejoin="round" stroke-width="9"/>
      <rect id="Rect치ngulo_404897" data-name="Rect치ngulo 404897" width="10.78" height="358.67" transform="translate(412.67 260.38) rotate(90)" fill="#3e83b5"/>
      <path id="Trazado_900385" data-name="Trazado 900385" d="M405.44,40.28H361.66a2.559,2.559,0,0,0-2.56,2.56v5.11a2.559,2.559,0,0,0,2.56,2.56h2.56V243.95a19.442,19.442,0,0,0,19.44,19.44h0a19.442,19.442,0,0,0,19.44-19.44V50.5h2.33a2.559,2.559,0,0,0,2.56-2.56V42.83a2.559,2.559,0,0,0-2.56-2.56Z" fill="#a50417"/>
    </g>
    <path id="Trazado_900570" data-name="Trazado 900570" d="M43,11.406H40.185L39.693,13H37.5l3.129-8.531h1.934L45.71,13H43.5ZM40.677,9.818h1.834l-.92-2.959Zm7.1-3.158.064.744a2.15,2.15,0,0,1,1.811-.861,1.809,1.809,0,0,1,1.479.592,2.817,2.817,0,0,1,.507,1.781V13h-1.98V9a1.07,1.07,0,0,0-.193-.706.894.894,0,0,0-.7-.226.942.942,0,0,0-.861.457V13H45.921V6.66ZM56.3,13a2.23,2.23,0,0,1-.187-.568,1.836,1.836,0,0,1-1.523.686,2.249,2.249,0,0,1-1.523-.542,1.725,1.725,0,0,1-.627-1.362A1.773,1.773,0,0,1,53.2,9.654a3.881,3.881,0,0,1,2.215-.527h.609V8.791q0-.877-.756-.877a.618.618,0,0,0-.7.695H52.589a1.77,1.77,0,0,1,.782-1.492,3.287,3.287,0,0,1,2-.574,2.882,2.882,0,0,1,1.916.592A2.058,2.058,0,0,1,58,8.758v2.807a2.874,2.874,0,0,0,.27,1.336V13Zm-1.236-1.289a1.1,1.1,0,0,0,.612-.158.992.992,0,0,0,.349-.357V10.182h-.574q-1.031,0-1.031.926a.565.565,0,0,0,.182.437A.657.657,0,0,0,55.062,11.711ZM55.554,4H57.64L56.011,5.84l-1.611,0Zm5.625,9H59.2V4h1.98Zm3.3,0H62.5V6.66h1.98Zm-2.1-7.975a.881.881,0,0,1,.3-.691,1.3,1.3,0,0,1,1.582,0,.937.937,0,0,1,0,1.383,1.3,1.3,0,0,1-1.582,0A.881.881,0,0,1,62.38,5.025Zm6.633,6.193a.456.456,0,0,0-.264-.4,4.011,4.011,0,0,0-1-.316,4.569,4.569,0,0,1-1.219-.431A2.041,2.041,0,0,1,65.8,9.42a1.546,1.546,0,0,1-.252-.873,1.752,1.752,0,0,1,.721-1.438,2.969,2.969,0,0,1,1.887-.565,3.289,3.289,0,0,1,2.016.568,1.777,1.777,0,0,1,.762,1.494h-1.98q0-.762-.8-.762a.8.8,0,0,0-.521.173.535.535,0,0,0-.211.431.491.491,0,0,0,.258.428,2.436,2.436,0,0,0,.823.27,7.114,7.114,0,0,1,.993.252,1.8,1.8,0,0,1,1.43,1.764,1.66,1.66,0,0,1-.771,1.412,3.379,3.379,0,0,1-2,.545,3.448,3.448,0,0,1-1.453-.293,2.43,2.43,0,0,1-1-.8,1.8,1.8,0,0,1-.357-1.061h1.846a.763.763,0,0,0,.293.642,1.205,1.205,0,0,0,.721.2.948.948,0,0,0,.606-.164A.525.525,0,0,0,69.013,11.219ZM73.923,13h-1.98V6.66h1.98Zm-2.1-7.975a.881.881,0,0,1,.3-.691,1.3,1.3,0,0,1,1.582,0,.937.937,0,0,1,0,1.383,1.3,1.3,0,0,1-1.582,0A.881.881,0,0,1,71.826,5.025Zm6.633,6.193a.456.456,0,0,0-.264-.4,4.011,4.011,0,0,0-1-.316,4.569,4.569,0,0,1-1.219-.431,2.041,2.041,0,0,1-.732-.647,1.546,1.546,0,0,1-.252-.873,1.752,1.752,0,0,1,.721-1.438A2.969,2.969,0,0,1,77.6,6.543a3.289,3.289,0,0,1,2.016.568,1.777,1.777,0,0,1,.762,1.494h-1.98q0-.762-.8-.762a.8.8,0,0,0-.521.173.535.535,0,0,0-.211.431.491.491,0,0,0,.258.428,2.436,2.436,0,0,0,.823.27,7.114,7.114,0,0,1,.993.252,1.8,1.8,0,0,1,1.43,1.764,1.66,1.66,0,0,1-.771,1.412,3.379,3.379,0,0,1-2,.545,3.448,3.448,0,0,1-1.453-.293,2.43,2.43,0,0,1-1-.8,1.8,1.8,0,0,1-.357-1.061h1.846a.763.763,0,0,0,.293.642,1.205,1.205,0,0,0,.721.2.948.948,0,0,0,.606-.164A.525.525,0,0,0,78.458,11.219ZM37.487,22.111a3.116,3.116,0,0,1-.48,1.573,2.9,2.9,0,0,1-1.233,1.058,4.2,4.2,0,0,1-1.813.375,3.35,3.35,0,0,1-2.648-1.1,4.524,4.524,0,0,1-.967-3.094v-.422a5.164,5.164,0,0,1,.437-2.194,3.308,3.308,0,0,1,1.257-1.453,3.507,3.507,0,0,1,1.9-.513,3.677,3.677,0,0,1,2.5.817A3.23,3.23,0,0,1,37.5,19.416H35.454a1.528,1.528,0,0,0-.393-1.119,1.615,1.615,0,0,0-1.125-.34,1.229,1.229,0,0,0-1.125.574,3.691,3.691,0,0,0-.375,1.834v.6a4.084,4.084,0,0,0,.343,1.951,1.254,1.254,0,0,0,1.181.586,1.579,1.579,0,0,0,1.084-.334,1.418,1.418,0,0,0,.4-1.061Zm4.658,2.2a2.036,2.036,0,0,1-1.693.8,2,2,0,0,1-1.579-.606,2.551,2.551,0,0,1-.536-1.743V18.66h1.975v4.119a.71.71,0,0,0,.791.814,1.032,1.032,0,0,0,.967-.486V18.66h1.986V25H42.2ZM48.708,25a2.23,2.23,0,0,1-.187-.568A1.836,1.836,0,0,1,47,25.117a2.249,2.249,0,0,1-1.523-.542,1.725,1.725,0,0,1-.627-1.362,1.773,1.773,0,0,1,.762-1.559,3.881,3.881,0,0,1,2.215-.527h.609v-.336q0-.877-.756-.877a.618.618,0,0,0-.7.695H45a1.77,1.77,0,0,1,.782-1.492,3.287,3.287,0,0,1,2-.574,2.882,2.882,0,0,1,1.916.592,2.058,2.058,0,0,1,.721,1.623v2.807a2.874,2.874,0,0,0,.27,1.336V25Zm-1.236-1.289a1.1,1.1,0,0,0,.612-.158.992.992,0,0,0,.349-.357V22.182h-.574q-1.031,0-1.031.926a.565.565,0,0,0,.182.437A.657.657,0,0,0,47.471,23.711ZM53.588,25h-1.98V16h1.98Zm3.3,0h-1.98V18.66h1.98Zm-2.1-7.975a.881.881,0,0,1,.3-.691,1.3,1.3,0,0,1,1.582,0,.937.937,0,0,1,0,1.383,1.3,1.3,0,0,1-1.582,0A.881.881,0,0,1,54.79,17.025Zm5.613.059V18.66h1.043v1.371H60.4v2.9a.741.741,0,0,0,.129.5.691.691,0,0,0,.51.141,2.9,2.9,0,0,0,.492-.035v1.412a3.644,3.644,0,0,1-1.113.17,2.069,2.069,0,0,1-1.506-.48,1.969,1.969,0,0,1-.486-1.459V20.031H57.62V18.66h.809V17.084ZM65.793,25a2.23,2.23,0,0,1-.187-.568,1.836,1.836,0,0,1-1.523.686,2.249,2.249,0,0,1-1.523-.542,1.725,1.725,0,0,1-.627-1.362,1.773,1.773,0,0,1,.762-1.559,3.881,3.881,0,0,1,2.215-.527h.609v-.336q0-.877-.756-.877a.618.618,0,0,0-.7.695H62.084a1.77,1.77,0,0,1,.782-1.492,3.287,3.287,0,0,1,2-.574,2.882,2.882,0,0,1,1.916.592,2.058,2.058,0,0,1,.721,1.623v2.807a2.874,2.874,0,0,0,.27,1.336V25Zm-1.236-1.289a1.1,1.1,0,0,0,.612-.158.992.992,0,0,0,.349-.357V22.182h-.574q-1.031,0-1.031.926a.565.565,0,0,0,.182.437A.657.657,0,0,0,64.557,23.711Zm6.334-6.627V18.66h1.043v1.371H70.891v2.9a.741.741,0,0,0,.129.5.691.691,0,0,0,.51.141,2.9,2.9,0,0,0,.492-.035v1.412a3.644,3.644,0,0,1-1.113.17,2.069,2.069,0,0,1-1.506-.48,1.969,1.969,0,0,1-.486-1.459V20.031h-.809V18.66h.809V17.084ZM74.793,25h-1.98V18.66h1.98Zm-2.1-7.975a.881.881,0,0,1,.3-.691,1.3,1.3,0,0,1,1.582,0,.937.937,0,0,1,0,1.383,1.3,1.3,0,0,1-1.582,0A.881.881,0,0,1,72.7,17.025Zm5.842,5.625,1-3.99h2.08L79.551,25H77.536l-2.068-6.34h2.086Zm3.334-.879a3.742,3.742,0,0,1,.369-1.69,2.64,2.64,0,0,1,1.061-1.14,3.194,3.194,0,0,1,1.623-.4,2.915,2.915,0,0,1,2.244.882,3.384,3.384,0,0,1,.82,2.4v.07a3.283,3.283,0,0,1-.823,2.353,2.923,2.923,0,0,1-2.229.87,2.956,2.956,0,0,1-2.174-.812,3.174,3.174,0,0,1-.885-2.2Zm1.975.123a2.359,2.359,0,0,0,.275,1.289.917.917,0,0,0,.814.41q1.055,0,1.078-1.623v-.2q0-1.705-1.09-1.705-.99,0-1.072,1.471Z" transform="translate(441.755 613.309)" fill="#fff"/>
    <path id="Trazado_900571" data-name="Trazado 900571" d="M55.367,13H49.414V11.711l2.742-2.883a3.273,3.273,0,0,0,1.014-1.834,1.276,1.276,0,0,0-.24-.838.858.858,0,0,0-.7-.287.868.868,0,0,0-.732.384,1.577,1.577,0,0,0-.281.958h-1.98a2.8,2.8,0,0,1,.393-1.45,2.753,2.753,0,0,1,1.09-1.04,3.237,3.237,0,0,1,1.559-.375,3.185,3.185,0,0,1,2.13.639,2.28,2.28,0,0,1,.747,1.834,2.663,2.663,0,0,1-.187.981,4.3,4.3,0,0,1-.583,1,14.686,14.686,0,0,1-1.274,1.4l-1.1,1.271h3.357Zm6.211-3.334h.867v1.523h-.867V13H59.6V11.189H56.3l-.117-1.207,3.416-5.5V4.469h1.975Zm-3.51,0H59.6V7.041l-.123.2Zm7.822.973-.557.557V13H63.359V3.994h1.975V8.775l.2-.264L67.021,6.66h2.367L67.167,9.268,69.535,13H67.273ZM53.791,25H51.81V18.7l-1.945.568v-1.5l3.744-1.295h.182Zm8.326-6.252a1.97,1.97,0,0,1-.308,1.1,2.24,2.24,0,0,1-.847.762,2.465,2.465,0,0,1,.967.817,2.109,2.109,0,0,1,.357,1.228,2.233,2.233,0,0,1-.788,1.8,3.273,3.273,0,0,1-2.171.662,3.332,3.332,0,0,1-2.191-.665,2.217,2.217,0,0,1-.8-1.8,2.136,2.136,0,0,1,.352-1.213,2.391,2.391,0,0,1,1-.832,2.253,2.253,0,0,1-.855-.762,1.956,1.956,0,0,1-.311-1.1,2.189,2.189,0,0,1,.756-1.758,3.566,3.566,0,0,1,4.09,0A2.189,2.189,0,0,1,62.117,18.748Zm-1.811,3.744a1.126,1.126,0,0,0-.272-.812.949.949,0,0,0-.718-.284.958.958,0,0,0-.721.284,1.319,1.319,0,0,0,0,1.617.955.955,0,0,0,.729.3.918.918,0,0,0,.709-.293A1.149,1.149,0,0,0,60.306,22.492Zm-1-4.623a.73.73,0,0,0-.606.261,1.132,1.132,0,0,0-.208.724,1.2,1.2,0,0,0,.211.738.728.728,0,0,0,.621.281.7.7,0,0,0,.606-.281,1.237,1.237,0,0,0,.2-.738,1.134,1.134,0,0,0-.208-.721A.74.74,0,0,0,59.31,17.869Zm6.58,4.77-.557.557V25H63.359V15.994h1.975v4.781l.2-.264,1.488-1.852h2.367l-2.221,2.607L69.535,25H67.273ZM53.791,37H51.81V30.7l-1.945.568v-1.5l3.744-1.295h.182Zm7.787-3.334h.867v1.523h-.867V37H59.6V35.189H56.3l-.117-1.207,3.416-5.5v-.018h1.975Zm-3.51,0H59.6V31.041l-.123.2Zm7.822.973-.557.557V37H63.359V27.994h1.975v4.781l.2-.264,1.488-1.852h2.367l-2.221,2.607L69.535,37H67.273Z" transform="translate(542.755 689.754)"/>
    <path id="Trazado_900572" data-name="Trazado 900572" d="M55.367,13H49.414V11.711l2.742-2.883a3.273,3.273,0,0,0,1.014-1.834,1.276,1.276,0,0,0-.24-.838.858.858,0,0,0-.7-.287.868.868,0,0,0-.732.384,1.577,1.577,0,0,0-.281.958h-1.98a2.8,2.8,0,0,1,.393-1.45,2.753,2.753,0,0,1,1.09-1.04,3.237,3.237,0,0,1,1.559-.375,3.185,3.185,0,0,1,2.13.639,2.28,2.28,0,0,1,.747,1.834,2.663,2.663,0,0,1-.187.981,4.3,4.3,0,0,1-.583,1,14.686,14.686,0,0,1-1.274,1.4l-1.1,1.271h3.357Zm6.211-3.334h.867v1.523h-.867V13H59.6V11.189H56.3l-.117-1.207,3.416-5.5V4.469h1.975Zm-3.51,0H59.6V7.041l-.123.2Zm7.822.973-.557.557V13H63.359V3.994h1.975V8.775l.2-.264L67.021,6.66h2.367L67.167,9.268,69.535,13H67.273ZM53.791,25H51.81V18.7l-1.945.568v-1.5l3.744-1.295h.182Zm8.326-6.252a1.97,1.97,0,0,1-.308,1.1,2.24,2.24,0,0,1-.847.762,2.465,2.465,0,0,1,.967.817,2.109,2.109,0,0,1,.357,1.228,2.233,2.233,0,0,1-.788,1.8,3.273,3.273,0,0,1-2.171.662,3.332,3.332,0,0,1-2.191-.665,2.217,2.217,0,0,1-.8-1.8,2.136,2.136,0,0,1,.352-1.213,2.391,2.391,0,0,1,1-.832,2.253,2.253,0,0,1-.855-.762,1.956,1.956,0,0,1-.311-1.1,2.189,2.189,0,0,1,.756-1.758,3.566,3.566,0,0,1,4.09,0A2.189,2.189,0,0,1,62.117,18.748Zm-1.811,3.744a1.126,1.126,0,0,0-.272-.812.949.949,0,0,0-.718-.284.958.958,0,0,0-.721.284,1.319,1.319,0,0,0,0,1.617.955.955,0,0,0,.729.3.918.918,0,0,0,.709-.293A1.149,1.149,0,0,0,60.306,22.492Zm-1-4.623a.73.73,0,0,0-.606.261,1.132,1.132,0,0,0-.208.724,1.2,1.2,0,0,0,.211.738.728.728,0,0,0,.621.281.7.7,0,0,0,.606-.281,1.237,1.237,0,0,0,.2-.738,1.134,1.134,0,0,0-.208-.721A.74.74,0,0,0,59.31,17.869Zm6.58,4.77-.557.557V25H63.359V15.994h1.975v4.781l.2-.264,1.488-1.852h2.367l-2.221,2.607L69.535,25H67.273ZM53.791,37H51.81V30.7l-1.945.568v-1.5l3.744-1.295h.182Zm7.787-3.334h.867v1.523h-.867V37H59.6V35.189H56.3l-.117-1.207,3.416-5.5v-.018h1.975Zm-3.51,0H59.6V31.041l-.123.2Zm7.822.973-.557.557V37H63.359V27.994h1.975v4.781l.2-.264,1.488-1.852h2.367l-2.221,2.607L69.535,37H67.273Z" transform="translate(542.755 689.754)" fill="#f6f6f6"/>
    <path id="Trazado_900573" data-name="Trazado 900573" d="M5.49,11.406H2.672L2.18,13h-2.2L3.111,4.469H5.045L8.2,13H5.988ZM3.164,9.818H5l-.92-2.959Zm7.1-3.158.064.744a2.15,2.15,0,0,1,1.811-.861,1.809,1.809,0,0,1,1.479.592,2.817,2.817,0,0,1,.507,1.781V13h-1.98V9a1.07,1.07,0,0,0-.193-.706.894.894,0,0,0-.7-.226.942.942,0,0,0-.861.457V13H8.408V6.66ZM18.785,13a2.23,2.23,0,0,1-.187-.568,1.836,1.836,0,0,1-1.523.686,2.249,2.249,0,0,1-1.523-.542,1.725,1.725,0,0,1-.627-1.362,1.773,1.773,0,0,1,.762-1.559A3.881,3.881,0,0,1,17.9,9.127h.609V8.791q0-.877-.756-.877a.618.618,0,0,0-.7.695H15.076a1.77,1.77,0,0,1,.782-1.492,3.287,3.287,0,0,1,2-.574,2.882,2.882,0,0,1,1.916.592,2.058,2.058,0,0,1,.721,1.623v2.807a2.874,2.874,0,0,0,.27,1.336V13Zm-1.236-1.289a1.1,1.1,0,0,0,.612-.158.992.992,0,0,0,.349-.357V10.182h-.574q-1.031,0-1.031.926a.565.565,0,0,0,.182.437A.657.657,0,0,0,17.549,11.711ZM18.041,4h2.086L18.5,5.84l-1.611,0Zm5.625,9h-1.98V4h1.98Zm3.3,0h-1.98V6.66h1.98Zm-2.1-7.975a.881.881,0,0,1,.3-.691,1.3,1.3,0,0,1,1.582,0,.937.937,0,0,1,0,1.383,1.3,1.3,0,0,1-1.582,0A.881.881,0,0,1,24.867,5.025ZM31.5,11.219a.456.456,0,0,0-.264-.4,4.011,4.011,0,0,0-1-.316,4.569,4.569,0,0,1-1.219-.431,2.041,2.041,0,0,1-.732-.647,1.546,1.546,0,0,1-.252-.873,1.752,1.752,0,0,1,.721-1.438,2.969,2.969,0,0,1,1.887-.565,3.289,3.289,0,0,1,2.016.568,1.777,1.777,0,0,1,.762,1.494h-1.98q0-.762-.8-.762a.8.8,0,0,0-.521.173.535.535,0,0,0-.211.431.491.491,0,0,0,.258.428,2.436,2.436,0,0,0,.823.27,7.114,7.114,0,0,1,.993.252A1.8,1.8,0,0,1,33.4,11.16a1.66,1.66,0,0,1-.771,1.412,3.379,3.379,0,0,1-2,.545,3.448,3.448,0,0,1-1.453-.293,2.43,2.43,0,0,1-1-.8,1.8,1.8,0,0,1-.357-1.061h1.846a.763.763,0,0,0,.293.642,1.205,1.205,0,0,0,.721.2.948.948,0,0,0,.606-.164A.525.525,0,0,0,31.5,11.219ZM36.41,13H34.43V6.66h1.98Zm-2.1-7.975a.881.881,0,0,1,.3-.691,1.3,1.3,0,0,1,1.582,0,.937.937,0,0,1,0,1.383,1.3,1.3,0,0,1-1.582,0A.881.881,0,0,1,34.313,5.025Zm6.633,6.193a.456.456,0,0,0-.264-.4,4.011,4.011,0,0,0-1-.316,4.569,4.569,0,0,1-1.219-.431,2.041,2.041,0,0,1-.732-.647,1.546,1.546,0,0,1-.252-.873A1.752,1.752,0,0,1,38.2,7.108a2.969,2.969,0,0,1,1.887-.565,3.289,3.289,0,0,1,2.016.568,1.777,1.777,0,0,1,.762,1.494h-1.98q0-.762-.8-.762a.8.8,0,0,0-.521.173.535.535,0,0,0-.211.431.491.491,0,0,0,.258.428,2.436,2.436,0,0,0,.823.27,7.114,7.114,0,0,1,.993.252,1.8,1.8,0,0,1,1.43,1.764,1.66,1.66,0,0,1-.771,1.412,3.379,3.379,0,0,1-2,.545,3.448,3.448,0,0,1-1.453-.293,2.43,2.43,0,0,1-1-.8,1.8,1.8,0,0,1-.357-1.061h1.846a.763.763,0,0,0,.293.642,1.205,1.205,0,0,0,.721.2.948.948,0,0,0,.606-.164A.525.525,0,0,0,40.945,11.219Zm12.809-1.107a3.116,3.116,0,0,1-.48,1.573,2.9,2.9,0,0,1-1.233,1.058,4.2,4.2,0,0,1-1.813.375,3.35,3.35,0,0,1-2.648-1.1,4.524,4.524,0,0,1-.967-3.094V8.506a5.164,5.164,0,0,1,.437-2.194A3.308,3.308,0,0,1,48.3,4.858a3.507,3.507,0,0,1,1.9-.513,3.677,3.677,0,0,1,2.5.817,3.23,3.23,0,0,1,1.072,2.253H51.721A1.528,1.528,0,0,0,51.328,6.3a1.615,1.615,0,0,0-1.125-.34,1.229,1.229,0,0,0-1.125.574A3.691,3.691,0,0,0,48.7,8.365v.6a4.084,4.084,0,0,0,.343,1.951,1.254,1.254,0,0,0,1.181.586,1.579,1.579,0,0,0,1.084-.334,1.418,1.418,0,0,0,.4-1.061Zm4.658,2.2a2.036,2.036,0,0,1-1.693.8,2,2,0,0,1-1.579-.606,2.551,2.551,0,0,1-.536-1.743V6.66h1.975v4.119a.71.71,0,0,0,.791.814,1.032,1.032,0,0,0,.967-.486V6.66h1.986V13H58.471ZM64.975,13a2.23,2.23,0,0,1-.187-.568,1.836,1.836,0,0,1-1.523.686,2.249,2.249,0,0,1-1.523-.542,1.725,1.725,0,0,1-.627-1.362,1.773,1.773,0,0,1,.762-1.559,3.881,3.881,0,0,1,2.215-.527H64.7V8.791q0-.877-.756-.877a.618.618,0,0,0-.7.695H61.266a1.77,1.77,0,0,1,.782-1.492,3.287,3.287,0,0,1,2-.574,2.882,2.882,0,0,1,1.916.592,2.058,2.058,0,0,1,.721,1.623v2.807a2.874,2.874,0,0,0,.27,1.336V13Zm-1.236-1.289a1.1,1.1,0,0,0,.612-.158A.992.992,0,0,0,64.7,11.2V10.182h-.574q-1.031,0-1.031.926a.565.565,0,0,0,.182.437A.657.657,0,0,0,63.738,11.711ZM69.855,13h-1.98V4h1.98Zm3.3,0h-1.98V6.66h1.98Zm-2.1-7.975a.881.881,0,0,1,.3-.691,1.3,1.3,0,0,1,1.582,0,.937.937,0,0,1,0,1.383,1.3,1.3,0,0,1-1.582,0A.881.881,0,0,1,71.057,5.025Zm5.613.059V6.66h1.043V8.031H76.67v2.9a.741.741,0,0,0,.129.5.691.691,0,0,0,.51.141,2.9,2.9,0,0,0,.492-.035v1.412a3.644,3.644,0,0,1-1.113.17,2.069,2.069,0,0,1-1.506-.48,1.969,1.969,0,0,1-.486-1.459V8.031h-.809V6.66H74.7V5.084ZM82.061,13a2.23,2.23,0,0,1-.187-.568,1.836,1.836,0,0,1-1.523.686,2.249,2.249,0,0,1-1.523-.542,1.725,1.725,0,0,1-.627-1.362,1.773,1.773,0,0,1,.762-1.559,3.881,3.881,0,0,1,2.215-.527h.609V8.791q0-.877-.756-.877a.618.618,0,0,0-.7.695H78.352a1.77,1.77,0,0,1,.782-1.492,3.287,3.287,0,0,1,2-.574,2.882,2.882,0,0,1,1.916.592,2.058,2.058,0,0,1,.721,1.623v2.807a2.874,2.874,0,0,0,.27,1.336V13Zm-1.236-1.289a1.1,1.1,0,0,0,.612-.158.992.992,0,0,0,.349-.357V10.182h-.574q-1.031,0-1.031.926a.565.565,0,0,0,.182.437A.657.657,0,0,0,80.824,11.711Zm6.334-6.627V6.66H88.2V8.031H87.158v2.9a.741.741,0,0,0,.129.5.691.691,0,0,0,.51.141,2.9,2.9,0,0,0,.492-.035v1.412a3.644,3.644,0,0,1-1.113.17,2.069,2.069,0,0,1-1.506-.48,1.969,1.969,0,0,1-.486-1.459V8.031h-.809V6.66h.809V5.084ZM91.061,13H89.08V6.66h1.98Zm-2.1-7.975a.881.881,0,0,1,.3-.691,1.3,1.3,0,0,1,1.582,0,.937.937,0,0,1,0,1.383,1.3,1.3,0,0,1-1.582,0A.881.881,0,0,1,88.963,5.025ZM94.8,10.65l1-3.99h2.08L95.818,13H93.8L91.734,6.66H93.82Zm3.334-.879a3.742,3.742,0,0,1,.369-1.69,2.64,2.64,0,0,1,1.061-1.14,3.194,3.194,0,0,1,1.623-.4,2.915,2.915,0,0,1,2.244.882,3.384,3.384,0,0,1,.82,2.4v.07a3.283,3.283,0,0,1-.823,2.353,2.923,2.923,0,0,1-2.229.87,2.956,2.956,0,0,1-2.174-.812,3.174,3.174,0,0,1-.885-2.2Zm1.975.123a2.359,2.359,0,0,0,.275,1.289.917.917,0,0,0,.814.41q1.055,0,1.078-1.623v-.2q0-1.705-1.09-1.705-.99,0-1.072,1.471Z" transform="translate(275.755 734.456)" fill="#fff"/>
    <path id="Trazado_900574" data-name="Trazado 900574" d="M5.086,12.977H3.6V17H.859V5.625H5.336a5,5,0,0,1,3.164.9A3.041,3.041,0,0,1,9.641,9.059a3.693,3.693,0,0,1-.48,1.967,3.41,3.41,0,0,1-1.5,1.264l2.375,4.593V17H7.094ZM3.6,10.867H5.336a1.557,1.557,0,0,0,1.176-.411,1.59,1.59,0,0,0,.395-1.147,1.608,1.608,0,0,0-.4-1.155,1.542,1.542,0,0,0-1.172-.419H3.6Zm14.75,1.3H14.039v2.719h5.094V17H11.3V5.625h7.852V7.742H14.039v2.4h4.313Zm7.766,1.8a1.127,1.127,0,0,0-.426-.937,5.292,5.292,0,0,0-1.5-.7,14.353,14.353,0,0,1-1.75-.7,3.314,3.314,0,0,1-2.211-2.984A2.676,2.676,0,0,1,20.785,7a3.562,3.562,0,0,1,1.559-1.125,6.065,6.065,0,0,1,2.266-.4,5.305,5.305,0,0,1,2.2.438A3.482,3.482,0,0,1,28.32,7.152,3.254,3.254,0,0,1,28.859,9H26.125A1.375,1.375,0,0,0,25.7,7.922a1.66,1.66,0,0,0-1.152-.383,1.872,1.872,0,0,0-1.16.324A.955.955,0,0,0,23.43,9.48a5.911,5.911,0,0,0,1.648.734,10.1,10.1,0,0,1,1.938.816,3.256,3.256,0,0,1,1.844,2.93A2.778,2.778,0,0,1,27.734,16.3a5,5,0,0,1-3.086.852,6.122,6.122,0,0,1-2.5-.5A3.775,3.775,0,0,1,20.457,15.3a3.542,3.542,0,0,1-.566-1.988h2.75a1.744,1.744,0,0,0,.473,1.348,2.234,2.234,0,0,0,1.535.434,1.765,1.765,0,0,0,1.074-.293A.967.967,0,0,0,26.117,13.977Zm6.891-.836V17H30.266V5.625H34.8a5.287,5.287,0,0,1,2.309.48,3.621,3.621,0,0,1,1.555,1.367,3.734,3.734,0,0,1,.551,2.012,3.291,3.291,0,0,1-1.191,2.66,4.943,4.943,0,0,1-3.27,1Zm0-2.117h1.8a1.7,1.7,0,0,0,1.215-.4A1.48,1.48,0,0,0,36.438,9.5a1.83,1.83,0,0,0-.43-1.273,1.522,1.522,0,0,0-1.172-.484H33.008Zm17.3.523a6.708,6.708,0,0,1-.617,2.945,4.561,4.561,0,0,1-1.754,1.973,4.884,4.884,0,0,1-2.59.691,4.953,4.953,0,0,1-2.578-.668,4.554,4.554,0,0,1-1.754-1.91,6.515,6.515,0,0,1-.66-2.852v-.641a6.737,6.737,0,0,1,.613-2.949A4.55,4.55,0,0,1,42.73,6.164a5.2,5.2,0,0,1,5.184-.008,4.632,4.632,0,0,1,1.762,1.957,6.544,6.544,0,0,1,.637,2.91Zm-2.789-.477A4.783,4.783,0,0,0,46.957,8.5a1.817,1.817,0,0,0-1.621-.879q-2.062,0-2.18,3.094l-.008.836a4.92,4.92,0,0,0,.555,2.57,1.814,1.814,0,0,0,1.648.9,1.792,1.792,0,0,0,1.6-.883,4.785,4.785,0,0,0,.57-2.539ZM61.227,17H58.5L54.469,9.922V17H51.727V5.625h2.742L58.492,12.7V5.625h2.734Zm7.6-3.023a1.127,1.127,0,0,0-.426-.937,5.292,5.292,0,0,0-1.5-.7,14.353,14.353,0,0,1-1.75-.7,3.314,3.314,0,0,1-2.211-2.984A2.676,2.676,0,0,1,63.5,7a3.562,3.562,0,0,1,1.559-1.125,6.065,6.065,0,0,1,2.266-.4,5.305,5.305,0,0,1,2.2.438,3.482,3.482,0,0,1,1.512,1.246A3.254,3.254,0,0,1,71.57,9H68.836a1.375,1.375,0,0,0-.426-1.078,1.66,1.66,0,0,0-1.152-.383,1.872,1.872,0,0,0-1.16.324.955.955,0,0,0,.043,1.617,5.911,5.911,0,0,0,1.648.734,10.1,10.1,0,0,1,1.938.816,3.256,3.256,0,0,1,1.844,2.93A2.778,2.778,0,0,1,70.445,16.3a5,5,0,0,1-3.086.852,6.122,6.122,0,0,1-2.5-.5A3.775,3.775,0,0,1,63.168,15.3a3.542,3.542,0,0,1-.566-1.988h2.75a1.745,1.745,0,0,0,.473,1.348,2.234,2.234,0,0,0,1.535.434,1.765,1.765,0,0,0,1.074-.293A.967.967,0,0,0,68.828,13.977Zm10.609.9H75.68L75.023,17h-2.93L76.266,5.625h2.578L83.047,17H80.1Zm-3.1-2.117h2.445L77.555,8.813ZM83.875,17V5.625h4.086a5.786,5.786,0,0,1,3.34.8,2.677,2.677,0,0,1,1.145,2.336,2.706,2.706,0,0,1-.406,1.508,2.367,2.367,0,0,1-1.2.922,2.4,2.4,0,0,1,1.367.875,2.544,2.544,0,0,1,.477,1.563,3.012,3.012,0,0,1-1.059,2.512A5.038,5.038,0,0,1,88.492,17Zm2.742-4.836v2.727h1.8a1.709,1.709,0,0,0,1.141-.34,1.189,1.189,0,0,0,.4-.957,1.261,1.261,0,0,0-1.414-1.43Zm0-1.8h1.43a2.031,2.031,0,0,0,1.281-.329,1.168,1.168,0,0,0,.383-.948A1.226,1.226,0,0,0,89.3,8.052a2.216,2.216,0,0,0-1.336-.317H86.617ZM97.117,17H94.383V5.625h2.734Zm4.648-2.109h4.773V17H99.023V5.625h2.742ZM110.617,17h-2.734V5.625h2.734Zm1.906,0V5.625h3.664a5.39,5.39,0,0,1,2.711.684,4.805,4.805,0,0,1,1.879,1.93,5.826,5.826,0,0,1,.684,2.793v.523a5.86,5.86,0,0,1-.66,2.8,4.826,4.826,0,0,1-1.859,1.938,5.271,5.271,0,0,1-2.676.707Zm2.742-9.258v7.148h.953a2.133,2.133,0,0,0,1.813-.84,4.116,4.116,0,0,0,.633-2.5v-.492a4.082,4.082,0,0,0-.633-2.484,2.17,2.17,0,0,0-1.844-.836Zm14.063,7.133H125.57L124.914,17h-2.93l4.172-11.375h2.578L132.938,17h-2.945Zm-3.1-2.117h2.445l-1.227-3.945ZM133.766,17V5.625h3.664a5.39,5.39,0,0,1,2.711.684,4.805,4.805,0,0,1,1.879,1.93,5.826,5.826,0,0,1,.684,2.793v.523a5.86,5.86,0,0,1-.66,2.8,4.826,4.826,0,0,1-1.859,1.938,5.271,5.271,0,0,1-2.676.707Zm2.742-9.258v7.148h.953a2.133,2.133,0,0,0,1.813-.84,4.116,4.116,0,0,0,.633-2.5v-.492a4.082,4.082,0,0,0-.633-2.484,2.17,2.17,0,0,0-1.844-.836Zm18.047,7.133H150.8L150.141,17h-2.93l4.172-11.375h2.578L158.164,17h-2.945Zm-3.1-2.117H153.9l-1.227-3.945Zm11.141-7.133,2.539,7.914,2.531-7.914h3.609V17h-2.75V14.344l.266-5.437L166.039,17h-1.812l-2.758-8.1.266,5.445V17h-2.742V5.625ZM173.016,17V5.625H177.1a5.786,5.786,0,0,1,3.34.8,2.677,2.677,0,0,1,1.145,2.336,2.707,2.707,0,0,1-.406,1.508,2.367,2.367,0,0,1-1.2.922,2.4,2.4,0,0,1,1.367.875,2.544,2.544,0,0,1,.477,1.563,3.012,3.012,0,0,1-1.059,2.512,5.038,5.038,0,0,1-3.137.855Zm2.742-4.836v2.727h1.8a1.709,1.709,0,0,0,1.141-.34,1.189,1.189,0,0,0,.4-.957,1.261,1.261,0,0,0-1.414-1.43Zm0-1.8h1.43a2.031,2.031,0,0,0,1.281-.329,1.168,1.168,0,0,0,.383-.948,1.226,1.226,0,0,0-.414-1.038,2.216,2.216,0,0,0-1.336-.317h-1.344ZM186.258,17h-2.734V5.625h2.734Zm8.961-4.828h-4.312v2.719H196V17h-7.836V5.625h7.852V7.742h-5.109v2.4h4.313ZM206.617,17h-2.727l-4.031-7.078V17h-2.742V5.625h2.742l4.023,7.078V5.625h2.734Zm10.664-9.258h-3.414V17h-2.742V7.742h-3.352V5.625h9.508Zm6.68,7.133H220.2L219.547,17h-2.93l4.172-11.375h2.578L227.57,17h-2.945Zm-3.1-2.117H223.3l-1.227-3.945Zm10.281,2.133h4.773V17H228.4V5.625h2.742Z" transform="translate(294 767.456)" fill="#1c2141"/>
  </g>
</svg>
